ISO-10303-21;
HEADER;
/* Generated by software containing ST-Developer
 * from STEP Tools, Inc. (www.steptools.com) 
 */

FILE_DESCRIPTION(
/* description */ (''),
/* implementation_level */ '2;1');

FILE_NAME(
/* name */ 'MelaninShield.step',
/* time_stamp */ '2025-08-28T12:16:33-06:00',
/* author */ (''),
/* organization */ (''),
/* preprocessor_version */ 'ST-DEVELOPER v20.1',
/* originating_system */ 'Autodesk Translation Framework v14.10.0.0',
/* authorisation */ '');

FILE_SCHEMA (('AUTOMOTIVE_DESIGN { 1 0 10303 214 3 1 1 }'));
ENDSEC;

DATA;
#10=MECHANICAL_DESIGN_GEOMETRIC_PRESENTATION_REPRESENTATION('',(#13),#309);
#11=SHAPE_REPRESENTATION_RELATIONSHIP('SRR','None',#319,#12);
#12=ADVANCED_BREP_SHAPE_REPRESENTATION('',(#14),#308);
#13=STYLED_ITEM('',(#329),#14);
#14=MANIFOLD_SOLID_BREP('Body1',#167);
#15=CYLINDRICAL_SURFACE('',#197,0.26);
#16=CYLINDRICAL_SURFACE('',#199,0.26);
#17=LINE('',#271,#27);
#18=LINE('',#276,#28);
#19=LINE('',#279,#29);
#20=LINE('',#282,#30);
#21=LINE('',#286,#31);
#22=LINE('',#287,#32);
#23=LINE('',#288,#33);
#24=LINE('',#292,#34);
#25=LINE('',#293,#35);
#26=LINE('',#294,#36);
#27=VECTOR('',#217,0.393700787401575);
#28=VECTOR('',#222,0.393700787401575);
#29=VECTOR('',#225,0.393700787401575);
#30=VECTOR('',#228,0.393700787401575);
#31=VECTOR('',#231,0.393700787401575);
#32=VECTOR('',#232,0.393700787401575);
#33=VECTOR('',#233,0.393700787401575);
#34=VECTOR('',#236,0.393700787401575);
#35=VECTOR('',#237,0.393700787401575);
#36=VECTOR('',#238,0.393700787401575);
#37=PLANE('',#186);
#38=PLANE('',#189);
#39=PLANE('',#191);
#40=PLANE('',#192);
#41=PLANE('',#193);
#42=PLANE('',#195);
#43=FACE_OUTER_BOUND('',#53,.T.);
#44=FACE_OUTER_BOUND('',#54,.T.);
#45=FACE_OUTER_BOUND('',#55,.T.);
#46=FACE_OUTER_BOUND('',#56,.T.);
#47=FACE_OUTER_BOUND('',#57,.T.);
#48=FACE_OUTER_BOUND('',#58,.T.);
#49=FACE_OUTER_BOUND('',#59,.T.);
#50=FACE_OUTER_BOUND('',#60,.T.);
#51=FACE_OUTER_BOUND('',#61,.T.);
#52=FACE_OUTER_BOUND('',#62,.T.);
#53=EDGE_LOOP('',(#111,#112,#113,#114,#115));
#54=EDGE_LOOP('',(#116,#117,#118,#119,#120,#121));
#55=EDGE_LOOP('',(#122,#123,#124,#125));
#56=EDGE_LOOP('',(#126,#127,#128,#129,#130));
#57=EDGE_LOOP('',(#131,#132,#133,#134,#135));
#58=EDGE_LOOP('',(#136,#137));
#59=EDGE_LOOP('',(#138,#139));
#60=EDGE_LOOP('',(#140,#141,#142,#143));
#61=EDGE_LOOP('',(#144,#145,#146,#147));
#62=EDGE_LOOP('',(#148,#149,#150,#151,#152,#153,#154));
#63=CIRCLE('',#182,0.05);
#64=CIRCLE('',#183,0.05);
#65=CIRCLE('',#184,0.05);
#66=CIRCLE('',#185,0.05);
#67=CIRCLE('',#187,0.26);
#68=CIRCLE('',#188,0.26);
#69=CIRCLE('',#190,0.26);
#70=CIRCLE('',#194,0.26);
#71=CIRCLE('',#196,0.26);
#72=CIRCLE('',#198,0.26);
#73=CIRCLE('',#200,0.26);
#74=CIRCLE('',#202,0.26);
#75=VERTEX_POINT('',#261);
#76=VERTEX_POINT('',#262);
#77=VERTEX_POINT('',#264);
#78=VERTEX_POINT('',#267);
#79=VERTEX_POINT('',#270);
#80=VERTEX_POINT('',#272);
#81=VERTEX_POINT('',#274);
#82=VERTEX_POINT('',#278);
#83=VERTEX_POINT('',#280);
#84=VERTEX_POINT('',#284);
#85=VERTEX_POINT('',#285);
#86=VERTEX_POINT('',#290);
#87=VERTEX_POINT('',#291);
#88=VERTEX_POINT('',#304);
#89=EDGE_CURVE('',#75,#76,#63,.T.);
#90=EDGE_CURVE('',#77,#75,#64,.T.);
#91=EDGE_CURVE('',#76,#77,#65,.T.);
#92=EDGE_CURVE('',#76,#78,#66,.T.);
#93=EDGE_CURVE('',#79,#77,#17,.T.);
#94=EDGE_CURVE('',#80,#79,#67,.T.);
#95=EDGE_CURVE('',#81,#80,#68,.T.);
#96=EDGE_CURVE('',#75,#81,#18,.T.);
#97=EDGE_CURVE('',#82,#75,#19,.T.);
#98=EDGE_CURVE('',#83,#82,#69,.T.);
#99=EDGE_CURVE('',#77,#83,#20,.T.);
#100=EDGE_CURVE('',#84,#85,#21,.T.);
#101=EDGE_CURVE('',#82,#84,#22,.T.);
#102=EDGE_CURVE('',#85,#81,#23,.T.);
#103=EDGE_CURVE('',#86,#87,#24,.T.);
#104=EDGE_CURVE('',#79,#86,#25,.T.);
#105=EDGE_CURVE('',#87,#83,#26,.T.);
#106=EDGE_CURVE('',#86,#87,#70,.T.);
#107=EDGE_CURVE('',#84,#85,#71,.T.);
#108=EDGE_CURVE('',#79,#83,#72,.T.);
#109=EDGE_CURVE('',#82,#81,#73,.T.);
#110=EDGE_CURVE('',#88,#80,#74,.T.);
#111=ORIENTED_EDGE('',*,*,#89,.F.);
#112=ORIENTED_EDGE('',*,*,#90,.F.);
#113=ORIENTED_EDGE('',*,*,#91,.F.);
#114=ORIENTED_EDGE('',*,*,#92,.T.);
#115=ORIENTED_EDGE('',*,*,#92,.F.);
#116=ORIENTED_EDGE('',*,*,#89,.T.);
#117=ORIENTED_EDGE('',*,*,#91,.T.);
#118=ORIENTED_EDGE('',*,*,#93,.F.);
#119=ORIENTED_EDGE('',*,*,#94,.F.);
#120=ORIENTED_EDGE('',*,*,#95,.F.);
#121=ORIENTED_EDGE('',*,*,#96,.F.);
#122=ORIENTED_EDGE('',*,*,#90,.T.);
#123=ORIENTED_EDGE('',*,*,#97,.F.);
#124=ORIENTED_EDGE('',*,*,#98,.F.);
#125=ORIENTED_EDGE('',*,*,#99,.F.);
#126=ORIENTED_EDGE('',*,*,#100,.F.);
#127=ORIENTED_EDGE('',*,*,#101,.F.);
#128=ORIENTED_EDGE('',*,*,#97,.T.);
#129=ORIENTED_EDGE('',*,*,#96,.T.);
#130=ORIENTED_EDGE('',*,*,#102,.F.);
#131=ORIENTED_EDGE('',*,*,#103,.F.);
#132=ORIENTED_EDGE('',*,*,#104,.F.);
#133=ORIENTED_EDGE('',*,*,#93,.T.);
#134=ORIENTED_EDGE('',*,*,#99,.T.);
#135=ORIENTED_EDGE('',*,*,#105,.F.);
#136=ORIENTED_EDGE('',*,*,#103,.T.);
#137=ORIENTED_EDGE('',*,*,#106,.F.);
#138=ORIENTED_EDGE('',*,*,#100,.T.);
#139=ORIENTED_EDGE('',*,*,#107,.F.);
#140=ORIENTED_EDGE('',*,*,#105,.T.);
#141=ORIENTED_EDGE('',*,*,#108,.F.);
#142=ORIENTED_EDGE('',*,*,#104,.T.);
#143=ORIENTED_EDGE('',*,*,#106,.T.);
#144=ORIENTED_EDGE('',*,*,#101,.T.);
#145=ORIENTED_EDGE('',*,*,#107,.T.);
#146=ORIENTED_EDGE('',*,*,#102,.T.);
#147=ORIENTED_EDGE('',*,*,#109,.F.);
#148=ORIENTED_EDGE('',*,*,#109,.T.);
#149=ORIENTED_EDGE('',*,*,#95,.T.);
#150=ORIENTED_EDGE('',*,*,#110,.F.);
#151=ORIENTED_EDGE('',*,*,#110,.T.);
#152=ORIENTED_EDGE('',*,*,#94,.T.);
#153=ORIENTED_EDGE('',*,*,#108,.T.);
#154=ORIENTED_EDGE('',*,*,#98,.T.);
#155=SPHERICAL_SURFACE('',#181,0.05);
#156=SPHERICAL_SURFACE('',#201,0.26);
#157=ADVANCED_FACE('',(#43),#155,.F.);
#158=ADVANCED_FACE('',(#44),#37,.T.);
#159=ADVANCED_FACE('',(#45),#38,.T.);
#160=ADVANCED_FACE('',(#46),#39,.F.);
#161=ADVANCED_FACE('',(#47),#40,.F.);
#162=ADVANCED_FACE('',(#48),#41,.F.);
#163=ADVANCED_FACE('',(#49),#42,.F.);
#164=ADVANCED_FACE('',(#50),#15,.T.);
#165=ADVANCED_FACE('',(#51),#16,.T.);
#166=ADVANCED_FACE('',(#52),#156,.T.);
#167=CLOSED_SHELL('',(#157,#158,#159,#160,#161,#162,#163,#164,#165,#166));
#168=DERIVED_UNIT_ELEMENT(#170,1.);
#169=DERIVED_UNIT_ELEMENT(#313,-3.);
#170=(
MASS_UNIT()
NAMED_UNIT(*)
SI_UNIT(.KILO.,.GRAM.)
);
#171=DERIVED_UNIT((#168,#169));
#172=MEASURE_REPRESENTATION_ITEM('density measure',
POSITIVE_RATIO_MEASURE(1000.),#171);
#173=PROPERTY_DEFINITION_REPRESENTATION(#178,#175);
#174=PROPERTY_DEFINITION_REPRESENTATION(#179,#176);
#175=REPRESENTATION('material name',(#177),#308);
#176=REPRESENTATION('density',(#172),#308);
#177=DESCRIPTIVE_REPRESENTATION_ITEM('Generic','Generic');
#178=PROPERTY_DEFINITION('material property','material name',#321);
#179=PROPERTY_DEFINITION('material property','density of part',#321);
#180=AXIS2_PLACEMENT_3D('',#259,#203,#204);
#181=AXIS2_PLACEMENT_3D('',#260,#205,#206);
#182=AXIS2_PLACEMENT_3D('',#263,#207,#208);
#183=AXIS2_PLACEMENT_3D('',#265,#209,#210);
#184=AXIS2_PLACEMENT_3D('',#266,#211,#212);
#185=AXIS2_PLACEMENT_3D('',#268,#213,#214);
#186=AXIS2_PLACEMENT_3D('',#269,#215,#216);
#187=AXIS2_PLACEMENT_3D('',#273,#218,#219);
#188=AXIS2_PLACEMENT_3D('',#275,#220,#221);
#189=AXIS2_PLACEMENT_3D('',#277,#223,#224);
#190=AXIS2_PLACEMENT_3D('',#281,#226,#227);
#191=AXIS2_PLACEMENT_3D('',#283,#229,#230);
#192=AXIS2_PLACEMENT_3D('',#289,#234,#235);
#193=AXIS2_PLACEMENT_3D('',#295,#239,#240);
#194=AXIS2_PLACEMENT_3D('',#296,#241,#242);
#195=AXIS2_PLACEMENT_3D('',#297,#243,#244);
#196=AXIS2_PLACEMENT_3D('',#298,#245,#246);
#197=AXIS2_PLACEMENT_3D('',#299,#247,#248);
#198=AXIS2_PLACEMENT_3D('',#300,#249,#250);
#199=AXIS2_PLACEMENT_3D('',#301,#251,#252);
#200=AXIS2_PLACEMENT_3D('',#302,#253,#254);
#201=AXIS2_PLACEMENT_3D('',#303,#255,#256);
#202=AXIS2_PLACEMENT_3D('',#305,#257,#258);
#203=DIRECTION('axis',(0.,0.,1.));
#204=DIRECTION('refdir',(1.,0.,0.));
#205=DIRECTION('center_axis',(1.22464679914735E-16,0.,1.));
#206=DIRECTION('ref_axis',(1.,0.,-6.93889390390723E-17));
#207=DIRECTION('center_axis',(0.,0.,1.));
#208=DIRECTION('ref_axis',(0.,-1.,0.));
#209=DIRECTION('center_axis',(0.,0.,1.));
#210=DIRECTION('ref_axis',(0.,-1.,0.));
#211=DIRECTION('center_axis',(0.,0.,1.));
#212=DIRECTION('ref_axis',(0.,-1.,0.));
#213=DIRECTION('center_axis',(-1.22464679914735E-16,1.,7.49879891330928E-33));
#214=DIRECTION('ref_axis',(-1.,-1.22464679914735E-16,1.09273919746571E-16));
#215=DIRECTION('center_axis',(0.,0.,-1.));
#216=DIRECTION('ref_axis',(-1.,0.,0.));
#217=DIRECTION('',(1.,0.,0.));
#218=DIRECTION('center_axis',(0.,0.,1.));
#219=DIRECTION('ref_axis',(1.,0.,0.));
#220=DIRECTION('center_axis',(0.,0.,1.));
#221=DIRECTION('ref_axis',(1.,0.,0.));
#222=DIRECTION('',(-1.,0.,0.));
#223=DIRECTION('center_axis',(0.,0.,-1.));
#224=DIRECTION('ref_axis',(-1.,0.,0.));
#225=DIRECTION('',(-1.,0.,0.));
#226=DIRECTION('center_axis',(0.,0.,1.));
#227=DIRECTION('ref_axis',(1.,0.,0.));
#228=DIRECTION('',(1.,0.,0.));
#229=DIRECTION('center_axis',(0.,1.,0.));
#230=DIRECTION('ref_axis',(-1.,0.,0.));
#231=DIRECTION('',(-1.,0.,0.));
#232=DIRECTION('',(0.,0.,-1.));
#233=DIRECTION('',(0.,0.,1.));
#234=DIRECTION('center_axis',(0.,-1.,0.));
#235=DIRECTION('ref_axis',(1.,0.,0.));
#236=DIRECTION('',(1.,0.,0.));
#237=DIRECTION('',(0.,0.,-1.));
#238=DIRECTION('',(0.,0.,1.));
#239=DIRECTION('center_axis',(0.,0.,1.));
#240=DIRECTION('ref_axis',(1.,0.,0.));
#241=DIRECTION('center_axis',(0.,0.,1.));
#242=DIRECTION('ref_axis',(1.,0.,0.));
#243=DIRECTION('center_axis',(0.,0.,1.));
#244=DIRECTION('ref_axis',(1.,0.,0.));
#245=DIRECTION('center_axis',(0.,0.,1.));
#246=DIRECTION('ref_axis',(1.,0.,0.));
#247=DIRECTION('center_axis',(0.,0.,1.));
#248=DIRECTION('ref_axis',(1.,0.,0.));
#249=DIRECTION('center_axis',(0.,0.,1.));
#250=DIRECTION('ref_axis',(1.,0.,0.));
#251=DIRECTION('center_axis',(0.,0.,1.));
#252=DIRECTION('ref_axis',(1.,0.,0.));
#253=DIRECTION('center_axis',(0.,0.,1.));
#254=DIRECTION('ref_axis',(1.,0.,0.));
#255=DIRECTION('center_axis',(1.22464679914735E-16,0.,1.));
#256=DIRECTION('ref_axis',(1.,0.,-6.67201336914157E-17));
#257=DIRECTION('center_axis',(1.22464679914735E-16,-1.,-7.49879891330929E-33));
#258=DIRECTION('ref_axis',(-1.,-1.22464679914735E-16,6.30426460076368E-17));
#259=CARTESIAN_POINT('',(0.,0.,0.));
#260=CARTESIAN_POINT('Origin',(0.,0.,0.025));
#261=CARTESIAN_POINT('',(0.,0.05,0.025));
#262=CARTESIAN_POINT('',(-0.05,-6.12323399573677E-18,0.025));
#263=CARTESIAN_POINT('Origin',(0.,0.,0.025));
#264=CARTESIAN_POINT('',(0.,-0.05,0.025));
#265=CARTESIAN_POINT('Origin',(0.,0.,0.025));
#266=CARTESIAN_POINT('Origin',(0.,0.,0.025));
#267=CARTESIAN_POINT('',(2.40207898946014E-18,-8.07701110913167E-35,0.075));
#268=CARTESIAN_POINT('Origin',(0.,0.,0.025));
#269=CARTESIAN_POINT('Origin',(0.,0.,0.025));
#270=CARTESIAN_POINT('',(-0.255147016443461,-0.05,0.025));
#271=CARTESIAN_POINT('',(0.26,-0.05,0.025));
#272=CARTESIAN_POINT('',(-0.26,-3.18408167778312E-17,0.025));
#273=CARTESIAN_POINT('Origin',(0.,0.,0.025));
#274=CARTESIAN_POINT('',(-0.255147016443461,0.05,0.025));
#275=CARTESIAN_POINT('Origin',(0.,0.,0.025));
#276=CARTESIAN_POINT('',(-0.26,0.05,0.025));
#277=CARTESIAN_POINT('Origin',(0.,0.,0.025));
#278=CARTESIAN_POINT('',(0.255147016443461,0.05,0.025));
#279=CARTESIAN_POINT('',(-0.26,0.05,0.025));
#280=CARTESIAN_POINT('',(0.255147016443461,-0.05,0.025));
#281=CARTESIAN_POINT('Origin',(0.,0.,0.025));
#282=CARTESIAN_POINT('',(0.26,-0.05,0.025));
#283=CARTESIAN_POINT('Origin',(0.255147016443461,0.05,0.));
#284=CARTESIAN_POINT('',(0.255147016443461,0.05,0.));
#285=CARTESIAN_POINT('',(-0.255147016443461,0.05,0.));
#286=CARTESIAN_POINT('',(0.127573508221731,0.05,0.));
#287=CARTESIAN_POINT('',(0.255147016443461,0.05,0.));
#288=CARTESIAN_POINT('',(-0.255147016443461,0.05,0.));
#289=CARTESIAN_POINT('Origin',(-0.255147016443461,-0.05,0.));
#290=CARTESIAN_POINT('',(-0.255147016443461,-0.05,0.));
#291=CARTESIAN_POINT('',(0.255147016443461,-0.05,0.));
#292=CARTESIAN_POINT('',(-0.127573508221731,-0.05,0.));
#293=CARTESIAN_POINT('',(-0.255147016443461,-0.05,0.));
#294=CARTESIAN_POINT('',(0.255147016443461,-0.05,0.));
#295=CARTESIAN_POINT('Origin',(0.,0.,0.));
#296=CARTESIAN_POINT('Origin',(0.,0.,0.));
#297=CARTESIAN_POINT('Origin',(0.,0.,0.));
#298=CARTESIAN_POINT('Origin',(0.,0.,0.));
#299=CARTESIAN_POINT('Origin',(0.,0.,0.));
#300=CARTESIAN_POINT('Origin',(0.,0.,0.025));
#301=CARTESIAN_POINT('Origin',(0.,0.,0.));
#302=CARTESIAN_POINT('Origin',(0.,0.,0.025));
#303=CARTESIAN_POINT('Origin',(0.,0.,0.025));
#304=CARTESIAN_POINT('',(4.70679573069986E-19,-1.892046094202E-33,0.285));
#305=CARTESIAN_POINT('Origin',(0.,0.,0.025));
#306=UNCERTAINTY_MEASURE_WITH_UNIT(LENGTH_MEASURE(0.000393700787401575),
#311,'DISTANCE_ACCURACY_VALUE',
'Maximum model space distance between geometric entities at asserted c
onnectivities');
#307=UNCERTAINTY_MEASURE_WITH_UNIT(LENGTH_MEASURE(0.000393700787401575),
#311,'DISTANCE_ACCURACY_VALUE',
'Maximum model space distance between geometric entities at asserted c
onnectivities');
#308=(
GEOMETRIC_REPRESENTATION_CONTEXT(3)
GLOBAL_UNCERTAINTY_ASSIGNED_CONTEXT((#306))
GLOBAL_UNIT_ASSIGNED_CONTEXT((#311,#315,#316))
REPRESENTATION_CONTEXT('','3D')
);
#309=(
GEOMETRIC_REPRESENTATION_CONTEXT(3)
GLOBAL_UNCERTAINTY_ASSIGNED_CONTEXT((#307))
GLOBAL_UNIT_ASSIGNED_CONTEXT((#311,#315,#316))
REPRESENTATION_CONTEXT('','3D')
);
#310=DIMENSIONAL_EXPONENTS(1.,0.,0.,0.,0.,0.,0.);
#311=(
CONVERSION_BASED_UNIT('inch',#314)
LENGTH_UNIT()
NAMED_UNIT(#310)
);
#312=(
LENGTH_UNIT()
NAMED_UNIT(*)
SI_UNIT(.MILLI.,.METRE.)
);
#313=(
LENGTH_UNIT()
NAMED_UNIT(*)
SI_UNIT($,.METRE.)
);
#314=LENGTH_MEASURE_WITH_UNIT(LENGTH_MEASURE(25.4),#312);
#315=(
NAMED_UNIT(*)
PLANE_ANGLE_UNIT()
SI_UNIT($,.RADIAN.)
);
#316=(
NAMED_UNIT(*)
SI_UNIT($,.STERADIAN.)
SOLID_ANGLE_UNIT()
);
#317=SHAPE_DEFINITION_REPRESENTATION(#318,#319);
#318=PRODUCT_DEFINITION_SHAPE('',$,#321);
#319=SHAPE_REPRESENTATION('',(#180),#308);
#320=PRODUCT_DEFINITION_CONTEXT('part definition',#325,'design');
#321=PRODUCT_DEFINITION('RADSAT Sensor Shield','(Unsaved)',#322,#320);
#322=PRODUCT_DEFINITION_FORMATION('',$,#327);
#323=PRODUCT_RELATED_PRODUCT_CATEGORY('(Unsaved)','(Unsaved)',(#327));
#324=APPLICATION_PROTOCOL_DEFINITION('international standard',
'automotive_design',2009,#325);
#325=APPLICATION_CONTEXT(
'Core Data for Automotive Mechanical Design Process');
#326=PRODUCT_CONTEXT('part definition',#325,'mechanical');
#327=PRODUCT('RADSAT Sensor Shield','(Unsaved)',$,(#326));
#328=PRESENTATION_STYLE_ASSIGNMENT((#330));
#329=PRESENTATION_STYLE_ASSIGNMENT((#331));
#330=SURFACE_STYLE_USAGE(.BOTH.,#332);
#331=SURFACE_STYLE_USAGE(.BOTH.,#333);
#332=SURFACE_SIDE_STYLE('',(#334));
#333=SURFACE_SIDE_STYLE('',(#335));
#334=SURFACE_STYLE_FILL_AREA(#336);
#335=SURFACE_STYLE_FILL_AREA(#337);
#336=FILL_AREA_STYLE('Steel - Satin',(#338));
#337=FILL_AREA_STYLE('Opaque(191,191,191)',(#339));
#338=FILL_AREA_STYLE_COLOUR('Steel - Satin',#340);
#339=FILL_AREA_STYLE_COLOUR('Opaque(191,191,191)',#341);
#340=COLOUR_RGB('Steel - Satin',0.627450980392157,0.627450980392157,0.627450980392157);
#341=COLOUR_RGB('Opaque(191,191,191)',0.0980392156862745,0.0980392156862745,
0.0980392156862745);
ENDSEC;
END-ISO-10303-21;
