ISO-10303-21;
HEADER;
FILE_DESCRIPTION (( 'STEP AP203' ),
    '1' );
FILE_NAME ('MS168-10S.step',
    '2020-10-13T09:45:49',
    ( '' ),
    ( '' ),
    'SwSTEP 2.0',
    'SolidWorks 2018',
    '' );
FILE_SCHEMA (( 'CONFIG_CONTROL_DESIGN' ));
ENDSEC;

DATA;
#1 = VECTOR ( 'NONE', #695, 1000.000000000000000 ) ;
#2 = ORIENTED_EDGE ( 'NONE', *, *, #517, .F. ) ;
#3 = CARTESIAN_POINT ( 'NONE',  ( 4.950000000000000178, -1.000000000000000000, -7.400000000000002132 ) ) ;
#4 = VECTOR ( 'NONE', #307, 1000.000000000000000 ) ;
#5 = EDGE_CURVE ( 'NONE', #90, #1137, #434, .T. ) ;
#6 = DIRECTION ( 'NONE',  ( -0.0000000000000000000, -0.0000000000000000000, 1.000000000000000000 ) ) ;
#7 = ORIENTED_EDGE ( 'NONE', *, *, #748, .F. ) ;
#8 = DIRECTION ( 'NONE',  ( 0.0000000000000000000, 0.0000000000000000000, 1.000000000000000000 ) ) ;
#9 = CARTESIAN_POINT ( 'NONE',  ( 4.949999999999999289, -1.000000000000000000, -6.600000000000001421 ) ) ;
#10 = CARTESIAN_POINT ( 'NONE',  ( -4.950000000000001954, -0.2999999999999999334, -7.400000000000002132 ) ) ;
#11 = DIRECTION ( 'NONE',  ( 6.570922257487903830E-17, -0.0000000000000000000, -1.000000000000000000 ) ) ;
#12 = DIRECTION ( 'NONE',  ( 0.0000000000000000000, -8.673617379884043361E-16, 1.000000000000000000 ) ) ;
#13 = CLOSED_SHELL ( 'NONE', ( #55, #596, #1176, #1058, #262, #429, #76, #1041, #599, #885, #575, #357, #617, #514, #901, #708, #160, #178, #95, #991, #82, #983, #438, #518, #344, #988, #501, #816, #441, #796, #1081, #531, #897, #974, #881, #667, #229, #1172, #243, #408, #182, #958 ) ) ;
#14 = ORIENTED_EDGE ( 'NONE', *, *, #833, .F. ) ;
#15 = PLANE ( 'NONE',  #116 ) ;
#16 = AXIS2_PLACEMENT_3D ( 'NONE', #782, #869, #688 ) ;
#17 = CARTESIAN_POINT ( 'NONE',  ( 4.949999999999999289, -5.000000000000000000, -8.100000000000003197 ) ) ;
#18 = CARTESIAN_POINT ( 'NONE',  ( 4.950000000000000178, 0.0000000000000000000, -7.400000000000002132 ) ) ;
#19 = ORIENTED_EDGE ( 'NONE', *, *, #387, .T. ) ;
#20 = VECTOR ( 'NONE', #403, 1000.000000000000000 ) ;
#21 = ORIENTED_EDGE ( 'NONE', *, *, #66, .T. ) ;
#22 = CARTESIAN_POINT ( 'NONE',  ( 4.950000000000000178, 0.0000000000000000000, -7.400000000000002132 ) ) ;
#23 = CIRCLE ( 'NONE', #867, 0.7000000000000000666 ) ;
#24 = ORIENTED_EDGE ( 'NONE', *, *, #972, .T. ) ;
#25 = ORIENTED_EDGE ( 'NONE', *, *, #748, .T. ) ;
#26 = AXIS2_PLACEMENT_3D ( 'NONE', #304, #214, #853 ) ;
#27 = DIRECTION ( 'NONE',  ( -0.0000000000000000000, 1.000000000000000000, -0.0000000000000000000 ) ) ;
#28 = EDGE_CURVE ( 'NONE', #543, #336, #1095, .T. ) ;
#29 = APPROVAL_PERSON_ORGANIZATION ( #694, #802, #383 ) ;
#30 = AXIS2_PLACEMENT_3D ( 'NONE', #716, #247, #882 ) ;
#31 = LINE ( 'NONE', #232, #542 ) ;
#32 = ORIENTED_EDGE ( 'NONE', *, *, #560, .T. ) ;
#33 = CIRCLE ( 'NONE', #1024, 0.6999999999999992895 ) ;
#34 = ORIENTED_EDGE ( 'NONE', *, *, #28, .F. ) ;
#35 = ORIENTED_EDGE ( 'NONE', *, *, #440, .F. ) ;
#36 = CARTESIAN_POINT ( 'NONE',  ( 6.449999999999999289, -5.204170427930421283E-17, 6.600000000000001421 ) ) ;
#37 = DIRECTION ( 'NONE',  ( -0.0000000000000000000, 1.000000000000000000, -0.0000000000000000000 ) ) ;
#38 = AXIS2_PLACEMENT_3D ( 'NONE', #905, #1094, #1103 ) ;
#39 = CARTESIAN_POINT ( 'NONE',  ( 6.749999999999999112, -0.9999999999999997780, 6.600000000000001421 ) ) ;
#40 = ORIENTED_EDGE ( 'NONE', *, *, #231, .T. ) ;
#41 = EDGE_CURVE ( 'NONE', #1078, #715, #595, .T. ) ;
#42 = CARTESIAN_POINT ( 'NONE',  ( 4.949999999999999289, -5.000000000000000000, 8.100000000000001421 ) ) ;
#43 = DIRECTION ( 'NONE',  ( -1.734723475976807094E-16, -1.000000000000000000, 1.139873309888278418E-32 ) ) ;
#44 = EDGE_CURVE ( 'NONE', #1009, #912, #1164, .T. ) ;
#45 = VERTEX_POINT ( 'NONE', #1174 ) ;
#46 = LINE ( 'NONE', #980, #832 ) ;
#47 = CC_DESIGN_PERSON_AND_ORGANIZATION_ASSIGNMENT ( #58, #561, ( #1092 ) ) ;
#48 = VECTOR ( 'NONE', #43, 1000.000000000000000 ) ;
#49 = ORIENTED_EDGE ( 'NONE', *, *, #1036, .T. ) ;
#50 = CARTESIAN_POINT ( 'NONE',  ( 6.449999999999999289, -0.9999999999999997780, 6.600000000000001421 ) ) ;
#51 = CYLINDRICAL_SURFACE ( 'NONE', #717, 0.7000000000000000666 ) ;
#52 = ORIENTED_EDGE ( 'NONE', *, *, #1127, .T. ) ;
#53 = DIRECTION ( 'NONE',  ( 1.000000000000000000, 0.0000000000000000000, 0.0000000000000000000 ) ) ;
#54 = DIRECTION ( 'NONE',  ( -0.0000000000000000000, 1.000000000000000000, -0.0000000000000000000 ) ) ;
#55 = ADVANCED_FACE ( 'NONE', ( #546 ), #516, .F. ) ;
#56 = CARTESIAN_POINT ( 'NONE',  ( 4.949999999999999289, -0.2999999999999999889, -8.100000000000001421 ) ) ;
#57 = ORIENTED_EDGE ( 'NONE', *, *, #692, .T. ) ;
#58 = PERSON_AND_ORGANIZATION ( #594, #1118 ) ;
#59 = CARTESIAN_POINT ( 'NONE',  ( 6.750000000000000888, -5.000000000000000000, -6.600000000000001421 ) ) ;
#60 = FACE_OUTER_BOUND ( 'NONE', #558, .T. ) ;
#61 = AXIS2_PLACEMENT_3D ( 'NONE', #895, #902, #601 ) ;
#62 = VERTEX_POINT ( 'NONE', #996 ) ;
#63 = TOROIDAL_SURFACE ( 'NONE', #138, 0.8000000000000003775, 1.000000000000000000 ) ;
#64 = CARTESIAN_POINT ( 'NONE',  ( 4.950000000000000178, -0.2999999999999999334, -7.400000000000002132 ) ) ;
#65 = VERTEX_POINT ( 'NONE', #797 ) ;
#66 = EDGE_CURVE ( 'NONE', #591, #687, #927, .T. ) ;
#67 = VERTEX_POINT ( 'NONE', #511 ) ;
#68 = DATE_AND_TIME ( #117, #264 ) ;
#69 = EDGE_LOOP ( 'NONE', ( #125, #548, #512, #693 ) ) ;
#70 = VECTOR ( 'NONE', #878, 1000.000000000000000 ) ;
#71 = CYLINDRICAL_SURFACE ( 'NONE', #184, 0.7000000000000000666 ) ;
#72 = CARTESIAN_POINT ( 'NONE',  ( -4.950000000000002842, -0.9999999999999997780, -6.600000000000001421 ) ) ;
#73 = CIRCLE ( 'NONE', #810, 0.9999999999999991118 ) ;
#74 = ORIENTED_EDGE ( 'NONE', *, *, #1097, .F. ) ;
#75 = DIRECTION ( 'NONE',  ( -1.836970198721029688E-16, -0.0000000000000000000, 1.000000000000000000 ) ) ;
#76 = ADVANCED_FACE ( 'NONE', ( #89 ), #805, .T. ) ;
#77 = DIRECTION ( 'NONE',  ( 0.0000000000000000000, 0.0000000000000000000, 1.000000000000000000 ) ) ;
#78 = CARTESIAN_POINT ( 'NONE',  ( -4.950000000000002842, -0.2999999999999999889, 8.099999999999999645 ) ) ;
#79 = CARTESIAN_POINT ( 'NONE',  ( -4.950000000000003730, -1.000000000000000000, 7.400000000000002132 ) ) ;
#80 = CARTESIAN_POINT ( 'NONE',  ( 4.949999999999999289, -0.2999999999999999334, -6.600000000000001421 ) ) ;
#81 = DIRECTION ( 'NONE',  ( -0.0000000000000000000, 1.000000000000000000, -0.0000000000000000000 ) ) ;
#82 = ADVANCED_FACE ( 'NONE', ( #384 ), #51, .F. ) ;
#83 = DIRECTION ( 'NONE',  ( -0.0000000000000000000, -0.0000000000000000000, 1.000000000000000000 ) ) ;
#84 = VERTEX_POINT ( 'NONE', #1167 ) ;
#85 = DATE_AND_TIME ( #951, #1175 ) ;
#86 = EDGE_CURVE ( 'NONE', #592, #458, #1136, .T. ) ;
#87 = VECTOR ( 'NONE', #217, 1000.000000000000000 ) ;
#88 = ORIENTED_EDGE ( 'NONE', *, *, #1152, .F. ) ;
#89 = FACE_OUTER_BOUND ( 'NONE', #169, .T. ) ;
#90 = VERTEX_POINT ( 'NONE', #17 ) ;
#91 = DIRECTION ( 'NONE',  ( -0.0000000000000000000, 1.000000000000000000, -0.0000000000000000000 ) ) ;
#92 = CARTESIAN_POINT ( 'NONE',  ( 4.949999999999999289, 0.0000000000000000000, 6.600000000000001421 ) ) ;
#93 = DIRECTION ( 'NONE',  ( -1.084202172485503842E-15, 0.0000000000000000000, 1.000000000000000000 ) ) ;
#94 = DIRECTION ( 'NONE',  ( -1.000000000000000000, -8.673617379884035472E-16, 0.0000000000000000000 ) ) ;
#95 = ADVANCED_FACE ( 'NONE', ( #658 ), #1021, .F. ) ;
#96 = DIRECTION ( 'NONE',  ( 1.000000000000000000, 0.0000000000000000000, 0.0000000000000000000 ) ) ;
#97 = CARTESIAN_POINT ( 'NONE',  ( -4.950000000000002842, -5.000000000000000000, -8.099999999999999645 ) ) ;
#98 = AXIS2_PLACEMENT_3D ( 'NONE', #1151, #787, #874 ) ;
#99 = ORIENTED_EDGE ( 'NONE', *, *, #468, .F. ) ;
#100 = CARTESIAN_POINT ( 'NONE',  ( 6.750000000000000000, -5.000000000000000000, 6.600000000000001421 ) ) ;
#101 = DIRECTION ( 'NONE',  ( -1.734723475976807094E-16, -1.000000000000000000, -0.0000000000000000000 ) ) ;
#102 = EDGE_LOOP ( 'NONE', ( #1063, #418, #486, #238 ) ) ;
#103 = TOROIDAL_SURFACE ( 'NONE', #631, 0.7999999999999986011, 1.000000000000000000 ) ;
#104 = ORIENTED_EDGE ( 'NONE', *, *, #424, .T. ) ;
#105 = VECTOR ( 'NONE', #855, 1000.000000000000000 ) ;
#106 = DIRECTION ( 'NONE',  ( -0.0000000000000000000, 1.000000000000000000, -0.0000000000000000000 ) ) ;
#107 = EDGE_CURVE ( 'NONE', #1096, #877, #1008, .T. ) ;
#108 = AXIS2_PLACEMENT_3D ( 'NONE', #616, #6, #96 ) ;
#109 = CARTESIAN_POINT ( 'NONE',  ( 4.949999999999999289, -5.000000000000000000, -8.400000000000000355 ) ) ;
#110 = DIRECTION ( 'NONE',  ( 0.0000000000000000000, 0.0000000000000000000, 1.000000000000000000 ) ) ;
#111 = CARTESIAN_POINT ( 'NONE',  ( 6.449999999999999289, -5.000000000000000000, -6.600000000000001421 ) ) ;
#112 = CARTESIAN_POINT ( 'NONE',  ( -5.750000000000000000, -0.2999999999999999334, -6.600000000000001421 ) ) ;
#113 = EDGE_CURVE ( 'NONE', #128, #290, #485, .T. ) ;
#114 = DIRECTION ( 'NONE',  ( 1.000000000000000000, -0.0000000000000000000, -0.0000000000000000000 ) ) ;
#115 = DIRECTION ( 'NONE',  ( -0.0000000000000000000, -0.0000000000000000000, 1.000000000000000000 ) ) ;
#116 = AXIS2_PLACEMENT_3D ( 'NONE', #925, #101, #646 ) ;
#117 = CALENDAR_DATE ( 2020, 13, 10 ) ;
#118 = EDGE_LOOP ( 'NONE', ( #570, #668, #943, #7 ) ) ;
#119 = CIRCLE ( 'NONE', #948, 1.499999999999999556 ) ;
#120 = VECTOR ( 'NONE', #234, 1000.000000000000000 ) ;
#121 = ORIENTED_EDGE ( 'NONE', *, *, #967, .F. ) ;
#122 = VECTOR ( 'NONE', #640, 1000.000000000000000 ) ;
#123 = CARTESIAN_POINT ( 'NONE',  ( 6.749999999999999112, 0.0000000000000000000, 6.600000000000001421 ) ) ;
#124 = DIRECTION ( 'NONE',  ( 6.570922257487903830E-17, -0.0000000000000000000, -1.000000000000000000 ) ) ;
#125 = ORIENTED_EDGE ( 'NONE', *, *, #420, .F. ) ;
#126 = CIRCLE ( 'NONE', #1129, 0.7000000000000000666 ) ;
#127 = CARTESIAN_POINT ( 'NONE',  ( -4.950000000000002842, -0.2999999999999999889, 6.600000000000001421 ) ) ;
#128 = VERTEX_POINT ( 'NONE', #1010 ) ;
#129 = DIRECTION ( 'NONE',  ( -0.0000000000000000000, -0.0000000000000000000, 1.000000000000000000 ) ) ;
#130 = VECTOR ( 'NONE', #789, 1000.000000000000000 ) ;
#131 = EDGE_LOOP ( 'NONE', ( #49, #378, #551, #222 ) ) ;
#132 = CYLINDRICAL_SURFACE ( 'NONE', #108, 0.7000000000000000666 ) ;
#133 = DIRECTION ( 'NONE',  ( 6.570922257487903830E-17, 1.139873309888278418E-32, -1.000000000000000000 ) ) ;
#134 = CARTESIAN_POINT ( 'NONE',  ( 5.750000000000000888, -1.000000000000000000, -6.600000000000001421 ) ) ;
#135 = ORIENTED_EDGE ( 'NONE', *, *, #163, .T. ) ;
#136 = CARTESIAN_POINT ( 'NONE',  ( -4.950000000000002842, 0.0000000000000000000, 8.400000000000000355 ) ) ;
#137 = DIRECTION ( 'NONE',  ( 1.000000000000000000, 1.734723475976807094E-16, 6.570922257487903830E-17 ) ) ;
#138 = AXIS2_PLACEMENT_3D ( 'NONE', #319, #389, #571 ) ;
#139 = ORIENTED_EDGE ( 'NONE', *, *, #365, .T. ) ;
#140 = LOCAL_TIME ( 12, 45, 49.00000000000000000, #292 ) ;
#141 = FACE_OUTER_BOUND ( 'NONE', #978, .T. ) ;
#142 = ORIENTED_EDGE ( 'NONE', *, *, #455, .T. ) ;
#143 = CARTESIAN_POINT ( 'NONE',  ( -6.450000000000000178, -5.000000000000000000, -6.600000000000000533 ) ) ;
#144 = LINE ( 'NONE', #947, #837 ) ;
#145 = DIRECTION ( 'NONE',  ( 1.000000000000000000, -8.673617379884035472E-16, 0.0000000000000000000 ) ) ;
#146 = EDGE_CURVE ( 'NONE', #305, #715, #850, .T. ) ;
#147 = CARTESIAN_POINT ( 'NONE',  ( -6.450000000000001954, -0.2999999999999999889, -6.600000000000001421 ) ) ;
#148 = AXIS2_PLACEMENT_3D ( 'NONE', #1003, #454, #827 ) ;
#149 = CARTESIAN_POINT ( 'NONE',  ( -4.950000000000002842, -1.000000000000000000, -6.600000000000001421 ) ) ;
#150 = EDGE_CURVE ( 'NONE', #411, #45, #893, .T. ) ;
#151 = EDGE_LOOP ( 'NONE', ( #768, #1028, #865, #24 ) ) ;
#152 = LINE ( 'NONE', #64, #791 ) ;
#153 = ORIENTED_EDGE ( 'NONE', *, *, #560, .F. ) ;
#154 = LINE ( 'NONE', #602, #130 ) ;
#155 = EDGE_LOOP ( 'NONE', ( #435, #428, #873, #938 ) ) ;
#156 = ORIENTED_EDGE ( 'NONE', *, *, #960, .T. ) ;
#157 = CC_DESIGN_PERSON_AND_ORGANIZATION_ASSIGNMENT ( #198, #739, ( #603 ) ) ;
#158 = DIRECTION ( 'NONE',  ( -0.0000000000000000000, -0.0000000000000000000, 1.000000000000000000 ) ) ;
#159 = ORIENTED_EDGE ( 'NONE', *, *, #235, .T. ) ;
#160 = ADVANCED_FACE ( 'NONE', ( #314 ), #132, .F. ) ;
#161 = EDGE_CURVE ( 'NONE', #342, #1078, #1080, .T. ) ;
#162 = DIRECTION ( 'NONE',  ( 1.000000000000000000, -0.0000000000000000000, -4.818676322157799347E-16 ) ) ;
#163 = EDGE_CURVE ( 'NONE', #691, #254, #1061, .T. ) ;
#164 = DIRECTION ( 'NONE',  ( -0.0000000000000000000, 1.000000000000000000, -0.0000000000000000000 ) ) ;
#165 = CARTESIAN_POINT ( 'NONE',  ( 6.750000000000000000, -0.9999999999999997780, -6.600000000000001421 ) ) ;
#166 = CARTESIAN_POINT ( 'NONE',  ( -4.950000000000002842, -5.000000000000000000, 8.100000000000003197 ) ) ;
#167 = DIRECTION ( 'NONE',  ( -1.000000000000000000, -0.0000000000000000000, -0.0000000000000000000 ) ) ;
#168 = DIRECTION ( 'NONE',  ( 1.000000000000000000, -0.0000000000000000000, -0.0000000000000000000 ) ) ;
#169 = EDGE_LOOP ( 'NONE', ( #483, #416, #19, #645 ) ) ;
#170 = ORIENTED_EDGE ( 'NONE', *, *, #533, .T. ) ;
#171 = ORIENTED_EDGE ( 'NONE', *, *, #830, .F. ) ;
#172 = VECTOR ( 'NONE', #450, 1000.000000000000000 ) ;
#173 = DIRECTION ( 'NONE',  ( 1.000000000000000000, -0.0000000000000000000, -0.0000000000000000000 ) ) ;
#174 = VECTOR ( 'NONE', #1146, 1000.000000000000000 ) ;
#175 = AXIS2_PLACEMENT_3D ( 'NONE', #861, #318, #580 ) ;
#176 = CIRCLE ( 'NONE', #362, 0.9999999999999991118 ) ;
#177 = CARTESIAN_POINT ( 'NONE',  ( 4.950000000000000178, -1.000000000000000000, -7.400000000000002132 ) ) ;
#178 = ADVANCED_FACE ( 'NONE', ( #191 ), #674, .F. ) ;
#179 = DIRECTION ( 'NONE',  ( 0.0000000000000000000, -0.0000000000000000000, -1.000000000000000000 ) ) ;
#180 = DIRECTION ( 'NONE',  ( -1.000000000000000000, 0.0000000000000000000, -0.0000000000000000000 ) ) ;
#181 = PLANE ( 'NONE',  #464 ) ;
#182 = ADVANCED_FACE ( 'NONE', ( #340 ), #1125, .T. ) ;
#183 = DIRECTION ( 'NONE',  ( 0.0000000000000000000, 1.000000000000000000, 1.734723475976807094E-16 ) ) ;
#184 = AXIS2_PLACEMENT_3D ( 'NONE', #931, #650, #1015 ) ;
#185 = DIRECTION ( 'NONE',  ( -1.000000000000000000, -0.0000000000000000000, -0.0000000000000000000 ) ) ;
#186 = EDGE_CURVE ( 'NONE', #458, #1033, #876, .T. ) ;
#187 = LINE ( 'NONE', #56, #758 ) ;
#188 = EDGE_LOOP ( 'NONE', ( #784, #683, #750, #820 ) ) ;
#189 = FACE_OUTER_BOUND ( 'NONE', #155, .T. ) ;
#190 = CARTESIAN_POINT ( 'NONE',  ( 4.950000000000000178, -1.000000000000000000, -7.400000000000002132 ) ) ;
#191 = FACE_OUTER_BOUND ( 'NONE', #69, .T. ) ;
#192 = ORIENTED_EDGE ( 'NONE', *, *, #399, .F. ) ;
#193 = CARTESIAN_POINT ( 'NONE',  ( -4.950000000000003730, 0.0000000000000000000, -8.400000000000000355 ) ) ;
#194 = CARTESIAN_POINT ( 'NONE',  ( -4.950000000000002842, -0.9999999999999997780, 8.099999999999999645 ) ) ;
#195 = AXIS2_PLACEMENT_3D ( 'NONE', #535, #945, #1128 ) ;
#196 = DIRECTION ( 'NONE',  ( 1.000000000000000000, 1.734723475976807094E-16, 6.570922257487903830E-17 ) ) ;
#197 = ORIENTED_EDGE ( 'NONE', *, *, #220, .T. ) ;
#198 = PERSON_AND_ORGANIZATION ( #594, #1118 ) ;
#199 = TOROIDAL_SURFACE ( 'NONE', #957, 0.8000000000000003775, 0.7000000000000000666 ) ;
#200 = EDGE_LOOP ( 'NONE', ( #1048, #921, #402, #1031, #104, #21, #277, #156 ) ) ;
#201 = AXIS2_PLACEMENT_3D ( 'NONE', #36, #137, #656 ) ;
#202 = ORIENTED_EDGE ( 'NONE', *, *, #1141, .T. ) ;
#203 = APPLICATION_CONTEXT ( 'configuration controlled 3d designs of mechanical parts and assemblies' ) ;
#204 = DIRECTION ( 'NONE',  ( -0.0000000000000000000, 1.000000000000000000, -0.0000000000000000000 ) ) ;
#205 = EDGE_CURVE ( 'NONE', #691, #812, #144, .T. ) ;
#206 = CARTESIAN_POINT ( 'NONE',  ( 4.949999999999999289, -0.9999999999999997780, 6.600000000000001421 ) ) ;
#207 = AXIS2_PLACEMENT_3D ( 'NONE', #127, #576, #765 ) ;
#208 = PERSON_AND_ORGANIZATION ( #594, #1118 ) ;
#209 = CYLINDRICAL_SURFACE ( 'NONE', #926, 1.799999999999999600 ) ;
#210 = EDGE_LOOP ( 'NONE', ( #823, #99, #1157, #779 ) ) ;
#211 = VECTOR ( 'NONE', #1079, 1000.000000000000000 ) ;
#212 = CARTESIAN_POINT ( 'NONE',  ( -6.750000000000000888, -5.000000000000000000, -6.600000000000000533 ) ) ;
#213 = ORIENTED_EDGE ( 'NONE', *, *, #552, .F. ) ;
#214 = DIRECTION ( 'NONE',  ( 6.570922257487903830E-17, -0.0000000000000000000, -1.000000000000000000 ) ) ;
#215 = CC_DESIGN_PERSON_AND_ORGANIZATION_ASSIGNMENT ( #351, #745, ( #427 ) ) ;
#216 = APPROVAL_ROLE ( '' ) ;
#217 = DIRECTION ( 'NONE',  ( -1.000000000000000000, -0.0000000000000000000, -0.0000000000000000000 ) ) ;
#218 = CARTESIAN_POINT ( 'NONE',  ( -4.950000000000002842, -5.000000000000000000, -6.600000000000001421 ) ) ;
#219 = CC_DESIGN_DATE_AND_TIME_ASSIGNMENT ( #68, #386, ( #1092 ) ) ;
#220 = EDGE_CURVE ( 'NONE', #254, #336, #355, .T. ) ;
#221 = CARTESIAN_POINT ( 'NONE',  ( 6.749999999999999112, 0.0000000000000000000, 6.600000000000001421 ) ) ;
#222 = ORIENTED_EDGE ( 'NONE', *, *, #660, .T. ) ;
#223 = AXIS2_PLACEMENT_3D ( 'NONE', #941, #37, #559 ) ;
#224 = DATE_AND_TIME ( #540, #886 ) ;
#225 = ORIENTED_EDGE ( 'NONE', *, *, #473, .F. ) ;
#226 = VECTOR ( 'NONE', #538, 1000.000000000000000 ) ;
#227 = DIRECTION ( 'NONE',  ( -0.0000000000000000000, 1.000000000000000000, -0.0000000000000000000 ) ) ;
#228 = LINE ( 'NONE', #212, #1161 ) ;
#229 = ADVANCED_FACE ( 'NONE', ( #628 ), #700, .T. ) ;
#230 = VECTOR ( 'NONE', #180, 1000.000000000000000 ) ;
#231 = EDGE_CURVE ( 'NONE', #1162, #90, #410, .T. ) ;
#232 = CARTESIAN_POINT ( 'NONE',  ( 4.949999999999999289, -5.000000000000000000, -8.400000000000002132 ) ) ;
#233 = CARTESIAN_POINT ( 'NONE',  ( 4.949999999999999289, -0.9999999999999997780, -6.600000000000001421 ) ) ;
#234 = DIRECTION ( 'NONE',  ( -0.0000000000000000000, -1.000000000000000000, -1.734723475976807094E-16 ) ) ;
#235 = EDGE_CURVE ( 'NONE', #537, #747, #73, .T. ) ;
#236 = FACE_OUTER_BOUND ( 'NONE', #506, .T. ) ;
#237 = FACE_OUTER_BOUND ( 'NONE', #842, .T. ) ;
#238 = ORIENTED_EDGE ( 'NONE', *, *, #517, .T. ) ;
#239 = CARTESIAN_POINT ( 'NONE',  ( -4.950000000000002842, -5.204170427930421283E-17, -8.100000000000001421 ) ) ;
#240 = CYLINDRICAL_SURFACE ( 'NONE', #987, 0.7000000000000000666 ) ;
#241 = ORIENTED_EDGE ( 'NONE', *, *, #785, .F. ) ;
#242 = CARTESIAN_POINT ( 'NONE',  ( 4.949999999999999289, -5.204170427930421283E-17, 8.100000000000001421 ) ) ;
#243 = ADVANCED_FACE ( 'NONE', ( #396 ), #1037, .T. ) ;
#244 = CARTESIAN_POINT ( 'NONE',  ( -4.950000000000002842, -5.000000000000000000, 6.600000000000001421 ) ) ;
#245 = DIRECTION ( 'NONE',  ( 0.0000000000000000000, 0.0000000000000000000, 1.000000000000000000 ) ) ;
#246 = EDGE_LOOP ( 'NONE', ( #1108, #541, #497, #934 ) ) ;
#247 = DIRECTION ( 'NONE',  ( -0.0000000000000000000, 1.000000000000000000, -0.0000000000000000000 ) ) ;
#248 = CARTESIAN_POINT ( 'NONE',  ( 5.750000000000000000, -0.2999999999999999889, 6.600000000000001421 ) ) ;
#249 = ORIENTED_EDGE ( 'NONE', *, *, #66, .F. ) ;
#250 = CIRCLE ( 'NONE', #1049, 1.799999999999999600 ) ;
#251 = ORIENTED_EDGE ( 'NONE', *, *, #692, .F. ) ;
#252 = VECTOR ( 'NONE', #615, 1000.000000000000000 ) ;
#253 = DIRECTION ( 'NONE',  ( -1.000000000000000000, -0.0000000000000000000, -5.665538897647979615E-16 ) ) ;
#254 = VERTEX_POINT ( 'NONE', #100 ) ;
#255 = CARTESIAN_POINT ( 'NONE',  ( -4.950000000000001954, 0.0000000000000000000, -7.400000000000002132 ) ) ;
#256 = CARTESIAN_POINT ( 'NONE',  ( -4.950000000000002842, -5.000000000000000000, -6.600000000000001421 ) ) ;
#257 = AXIS2_PLACEMENT_3D ( 'NONE', #720, #81, #899 ) ;
#258 = DIRECTION ( 'NONE',  ( 6.570922257487903830E-17, -0.0000000000000000000, 1.000000000000000000 ) ) ;
#259 = CARTESIAN_POINT ( 'NONE',  ( -6.750000000000000888, -5.000000000000000000, 6.600000000000002309 ) ) ;
#260 = DIRECTION ( 'NONE',  ( 1.000000000000000000, -0.0000000000000000000, -0.0000000000000000000 ) ) ;
#261 = DIRECTION ( 'NONE',  ( 6.570922257487903830E-17, -0.0000000000000000000, 1.000000000000000000 ) ) ;
#262 = ADVANCED_FACE ( 'NONE', ( #826 ), #360, .T. ) ;
#263 = EDGE_CURVE ( 'NONE', #1078, #565, #762, .T. ) ;
#264 = LOCAL_TIME ( 12, 45, 49.00000000000000000, #742 ) ;
#265 = DIRECTION ( 'NONE',  ( -1.000000000000000000, 0.0000000000000000000, -0.0000000000000000000 ) ) ;
#266 = VECTOR ( 'NONE', #854, 1000.000000000000000 ) ;
#267 = ORIENTED_EDGE ( 'NONE', *, *, #573, .F. ) ;
#268 = CIRCLE ( 'NONE', #677, 1.499999999999999556 ) ;
#269 = CARTESIAN_POINT ( 'NONE',  ( 6.750000000000000888, -5.000000000000000000, -6.600000000000001421 ) ) ;
#270 = CARTESIAN_POINT ( 'NONE',  ( 4.949999999999999289, -5.000000000000000000, -8.400000000000000355 ) ) ;
#271 = CARTESIAN_POINT ( 'NONE',  ( -5.750000000000000000, -1.000000000000000000, 6.600000000000001421 ) ) ;
#272 = PRODUCT_RELATED_PRODUCT_CATEGORY ( 'detail', '', ( #499 ) ) ;
#273 = ORIENTED_EDGE ( 'NONE', *, *, #1070, .T. ) ;
#274 = DIRECTION ( 'NONE',  ( 0.0000000000000000000, 0.0000000000000000000, 1.000000000000000000 ) ) ;
#275 = CARTESIAN_POINT ( 'NONE',  ( -4.950000000000002842, -5.000000000000000000, 8.400000000000000355 ) ) ;
#276 = EDGE_CURVE ( 'NONE', #1135, #397, #23, .T. ) ;
#277 = ORIENTED_EDGE ( 'NONE', *, *, #573, .T. ) ;
#278 = LINE ( 'NONE', #166, #654 ) ;
#279 = FACE_OUTER_BOUND ( 'NONE', #382, .T. ) ;
#280 = AXIS2_PLACEMENT_3D ( 'NONE', #92, #1068, #709 ) ;
#281 = CARTESIAN_POINT ( 'NONE',  ( 4.949999999999999289, -0.2999999999999999889, -6.600000000000001421 ) ) ;
#282 = VECTOR ( 'NONE', #352, 1000.000000000000000 ) ;
#283 = DIRECTION ( 'NONE',  ( -0.0000000000000000000, -0.0000000000000000000, 1.000000000000000000 ) ) ;
#284 = DIRECTION ( 'NONE',  ( -0.0000000000000000000, 1.000000000000000000, -0.0000000000000000000 ) ) ;
#285 = CARTESIAN_POINT ( 'NONE',  ( 5.750000000000000888, -1.000000000000000000, -6.600000000000001421 ) ) ;
#286 = CARTESIAN_POINT ( 'NONE',  ( -4.950000000000002842, -5.000000000000000000, 6.600000000000001421 ) ) ;
#287 = AXIS2_PLACEMENT_3D ( 'NONE', #256, #706, #179 ) ;
#288 = DIRECTION ( 'NONE',  ( -0.0000000000000000000, -0.0000000000000000000, -1.000000000000000000 ) ) ;
#289 = DIRECTION ( 'NONE',  ( -1.000000000000000000, 0.0000000000000000000, 4.818676322157798361E-16 ) ) ;
#290 = VERTEX_POINT ( 'NONE', #270 ) ;
#291 = ORIENTED_EDGE ( 'NONE', *, *, #276, .T. ) ;
#292 = COORDINATED_UNIVERSAL_TIME_OFFSET ( 2, 0, .AHEAD. ) ;
#293 = FACE_OUTER_BOUND ( 'NONE', #1029, .T. ) ;
#294 = ORIENTED_EDGE ( 'NONE', *, *, #767, .T. ) ;
#295 = DIRECTION ( 'NONE',  ( 0.0000000000000000000, 0.0000000000000000000, 1.000000000000000000 ) ) ;
#296 = FACE_OUTER_BOUND ( 'NONE', #151, .T. ) ;
#297 = ORIENTED_EDGE ( 'NONE', *, *, #231, .F. ) ;
#298 = EDGE_CURVE ( 'NONE', #342, #690, #647, .T. ) ;
#299 = ORIENTED_EDGE ( 'NONE', *, *, #552, .T. ) ;
#300 = CARTESIAN_POINT ( 'NONE',  ( 4.949999999999999289, -5.000000000000000000, -6.600000000000001421 ) ) ;
#301 = EDGE_CURVE ( 'NONE', #1119, #537, #795, .T. ) ;
#302 = CARTESIAN_POINT ( 'NONE',  ( -4.950000000000002842, -5.000000000000000000, 8.100000000000003197 ) ) ;
#303 = DIRECTION ( 'NONE',  ( -0.0000000000000000000, 1.000000000000000000, -0.0000000000000000000 ) ) ;
#304 = CARTESIAN_POINT ( 'NONE',  ( 5.750000000000000000, -1.000000000000000000, 6.600000000000001421 ) ) ;
#305 = VERTEX_POINT ( 'NONE', #530 ) ;
#306 = CARTESIAN_POINT ( 'NONE',  ( -6.750000000000000888, -5.000000000000000000, 6.600000000000002309 ) ) ;
#307 = DIRECTION ( 'NONE',  ( 1.139873309888278418E-32, -1.000000000000000000, 1.734723475976807094E-16 ) ) ;
#308 = ORIENTED_EDGE ( 'NONE', *, *, #415, .T. ) ;
#309 = LINE ( 'NONE', #673, #87 ) ;
#310 = ORIENTED_EDGE ( 'NONE', *, *, #331, .T. ) ;
#311 = LINE ( 'NONE', #143, #211 ) ;
#312 = DIRECTION ( 'NONE',  ( 0.0000000000000000000, 1.734723475976807094E-16, 1.000000000000000000 ) ) ;
#313 = CARTESIAN_POINT ( 'NONE',  ( -4.950000000000002842, -0.2999999999999999889, 6.600000000000001421 ) ) ;
#314 = FACE_OUTER_BOUND ( 'NONE', #857, .T. ) ;
#315 = CC_DESIGN_PERSON_AND_ORGANIZATION_ASSIGNMENT ( #554, #638, ( #499 ) ) ;
#316 = CARTESIAN_POINT ( 'NONE',  ( -6.449999999999999289, -0.9999999999999997780, -6.600000000000000533 ) ) ;
#317 = CARTESIAN_POINT ( 'NONE',  ( -4.950000000000002842, -5.000000000000000000, 6.600000000000001421 ) ) ;
#318 = DIRECTION ( 'NONE',  ( -1.000000000000000000, 1.734723475976807094E-16, 0.0000000000000000000 ) ) ;
#319 = CARTESIAN_POINT ( 'NONE',  ( 4.949999999999999289, -1.000000000000000000, 6.600000000000001421 ) ) ;
#320 = AXIS2_PLACEMENT_3D ( 'NONE', #433, #1140, #513 ) ;
#321 = ORIENTED_EDGE ( 'NONE', *, *, #722, .F. ) ;
#322 = LINE ( 'NONE', #345, #379 ) ;
#323 = CARTESIAN_POINT ( 'NONE',  ( -4.950000000000002842, -0.9999999999999997780, 8.400000000000000355 ) ) ;
#324 = CIRCLE ( 'NONE', #734, 1.000000000000000000 ) ;
#325 = ORIENTED_EDGE ( 'NONE', *, *, #722, .T. ) ;
#326 = ORIENTED_EDGE ( 'NONE', *, *, #636, .F. ) ;
#327 = EDGE_CURVE ( 'NONE', #67, #1009, #731, .T. ) ;
#328 = ORIENTED_EDGE ( 'NONE', *, *, #652, .F. ) ;
#329 = DIRECTION ( 'NONE',  ( 1.000000000000000000, 0.0000000000000000000, 0.0000000000000000000 ) ) ;
#330 = DIRECTION ( 'NONE',  ( 0.0000000000000000000, 1.000000000000000000, 1.734723475976807094E-16 ) ) ;
#331 = EDGE_CURVE ( 'NONE', #591, #727, #176, .T. ) ;
#332 = CARTESIAN_POINT ( 'NONE',  ( -6.750000000000002665, -5.000000000000000000, -6.600000000000000533 ) ) ;
#333 = EDGE_LOOP ( 'NONE', ( #294, #961, #1148, #642 ) ) ;
#334 = ORIENTED_EDGE ( 'NONE', *, *, #1141, .F. ) ;
#335 = CYLINDRICAL_SURFACE ( 'NONE', #858, 1.000000000000000000 ) ;
#336 = VERTEX_POINT ( 'NONE', #269 ) ;
#337 = CC_DESIGN_APPROVAL ( #802, ( #603 ) ) ;
#338 = VECTOR ( 'NONE', #648, 1000.000000000000000 ) ;
#339 = PLANE ( 'NONE',  #522 ) ;
#340 = FACE_OUTER_BOUND ( 'NONE', #333, .T. ) ;
#341 = CARTESIAN_POINT ( 'NONE',  ( 6.750000000000000000, -5.000000000000000000, 6.600000000000001421 ) ) ;
#342 = VERTEX_POINT ( 'NONE', #911 ) ;
#343 = EDGE_CURVE ( 'NONE', #1135, #411, #923, .T. ) ;
#344 = ADVANCED_FACE ( 'NONE', ( #761 ), #71, .F. ) ;
#345 = CARTESIAN_POINT ( 'NONE',  ( -4.950000000000002842, -5.000000000000000000, 8.400000000000002132 ) ) ;
#346 = AXIS2_PLACEMENT_3D ( 'NONE', #177, #1066, #803 ) ;
#347 = DIRECTION ( 'NONE',  ( 1.734723475976807094E-16, -1.000000000000000000, 1.139873309888278418E-32 ) ) ;
#348 = PLANE ( 'NONE',  #1020 ) ;
#349 = DIRECTION ( 'NONE',  ( -1.000000000000000000, -9.293161478447180018E-16, 0.0000000000000000000 ) ) ;
#350 = ORIENTED_EDGE ( 'NONE', *, *, #343, .F. ) ;
#351 = PERSON_AND_ORGANIZATION ( #594, #1118 ) ;
#352 = DIRECTION ( 'NONE',  ( 6.570922257487903830E-17, -0.0000000000000000000, -1.000000000000000000 ) ) ;
#353 = CIRCLE ( 'NONE', #195, 1.799999999999999600 ) ;
#354 = ORIENTED_EDGE ( 'NONE', *, *, #455, .F. ) ;
#355 = LINE ( 'NONE', #341, #282 ) ;
#356 = EDGE_LOOP ( 'NONE', ( #713, #831, #472, #443 ) ) ;
#357 = ADVANCED_FACE ( 'NONE', ( #460 ), #749, .F. ) ;
#358 = DIRECTION ( 'NONE',  ( 1.000000000000000000, -8.673617379884035472E-16, 0.0000000000000000000 ) ) ;
#359 = PRODUCT_DEFINITION_SHAPE ( 'NONE', 'NONE',  #427 ) ;
#360 = PLANE ( 'NONE',  #738 ) ;
#361 = CARTESIAN_POINT ( 'NONE',  ( 4.950000000000000178, -1.000000000000000000, -7.400000000000002132 ) ) ;
#362 = AXIS2_PLACEMENT_3D ( 'NONE', #933, #836, #920 ) ;
#363 = CARTESIAN_POINT ( 'NONE',  ( -4.950000000000001954, -1.000000000000000000, -7.400000000000002132 ) ) ;
#364 = DIRECTION ( 'NONE',  ( -1.000000000000000000, -0.0000000000000000000, -0.0000000000000000000 ) ) ;
#365 = EDGE_CURVE ( 'NONE', #730, #1009, #394, .T. ) ;
#366 = CARTESIAN_POINT ( 'NONE',  ( -4.950000000000002842, -0.9999999999999997780, 6.600000000000001421 ) ) ;
#367 = VERTEX_POINT ( 'NONE', #635 ) ;
#368 = CIRCLE ( 'NONE', #453, 0.7000000000000000666 ) ;
#369 = ORIENTED_EDGE ( 'NONE', *, *, #41, .F. ) ;
#370 = FACE_OUTER_BOUND ( 'NONE', #118, .T. ) ;
#371 = ORIENTED_EDGE ( 'NONE', *, *, #1115, .F. ) ;
#372 = VECTOR ( 'NONE', #11, 1000.000000000000000 ) ;
#373 = CARTESIAN_POINT ( 'NONE',  ( -4.950000000000002842, -0.9999999999999997780, 8.100000000000001421 ) ) ;
#374 = CARTESIAN_POINT ( 'NONE',  ( -4.950000000000002842, -5.000000000000000000, -8.400000000000002132 ) ) ;
#375 = APPROVAL ( #1025, 'UNSPECIFIED' ) ;
#376 = DIRECTION ( 'NONE',  ( 0.0000000000000000000, -8.673617379884043361E-16, -1.000000000000000000 ) ) ;
#377 = DIRECTION ( 'NONE',  ( -0.0000000000000000000, 1.000000000000000000, -0.0000000000000000000 ) ) ;
#378 = ORIENTED_EDGE ( 'NONE', *, *, #1099, .F. ) ;
#379 = VECTOR ( 'NONE', #1169, 1000.000000000000000 ) ;
#380 = CYLINDRICAL_SURFACE ( 'NONE', #1106, 1.499999999999999556 ) ;
#381 = AXIS2_PLACEMENT_3D ( 'NONE', #1017, #1011, #556 ) ;
#382 = EDGE_LOOP ( 'NONE', ( #354, #629, #732, #918 ) ) ;
#383 = APPROVAL_ROLE ( '' ) ;
#384 = FACE_OUTER_BOUND ( 'NONE', #884, .T. ) ;
#385 = DIRECTION ( 'NONE',  ( 0.0000000000000000000, 0.0000000000000000000, 1.000000000000000000 ) ) ;
#386 = DATE_TIME_ROLE ( 'classification_date' ) ;
#387 = EDGE_CURVE ( 'NONE', #254, #65, #940, .T. ) ;
#388 = CC_DESIGN_APPROVAL ( #751, ( #1092 ) ) ;
#389 = DIRECTION ( 'NONE',  ( -0.0000000000000000000, 1.000000000000000000, -0.0000000000000000000 ) ) ;
#390 = EDGE_LOOP ( 'NONE', ( #1004, #924, #523, #672 ) ) ;
#391 = VECTOR ( 'NONE', #598, 1000.000000000000000 ) ;
#392 = CARTESIAN_POINT ( 'NONE',  ( 5.750000000000000000, -1.000000000000000000, 6.600000000000001421 ) ) ;
#393 = ORIENTED_EDGE ( 'NONE', *, *, #989, .T. ) ;
#394 = LINE ( 'NONE', #463, #482 ) ;
#395 = AXIS2_PLACEMENT_3D ( 'NONE', #539, #528, #93 ) ;
#396 = FACE_OUTER_BOUND ( 'NONE', #131, .T. ) ;
#397 = VERTEX_POINT ( 'NONE', #1113 ) ;
#398 = APPROVAL_STATUS ( 'not_yet_approved' ) ;
#399 = EDGE_CURVE ( 'NONE', #794, #305, #696, .T. ) ;
#400 = DIRECTION ( 'NONE',  ( -1.734723475976807094E-16, -1.000000000000000000, 1.139873309888278418E-32 ) ) ;
#401 = AXIS2_PLACEMENT_3D ( 'NONE', #883, #347, #814 ) ;
#402 = ORIENTED_EDGE ( 'NONE', *, *, #107, .T. ) ;
#403 = DIRECTION ( 'NONE',  ( 6.570922257487903830E-17, 1.139873309888278418E-32, -1.000000000000000000 ) ) ;
#404 = ORIENTED_EDGE ( 'NONE', *, *, #587, .F. ) ;
#405 = CIRCLE ( 'NONE', #38, 1.800000000000000488 ) ;
#406 = EDGE_CURVE ( 'NONE', #747, #691, #1093, .T. ) ;
#407 = FACE_OUTER_BOUND ( 'NONE', #1044, .T. ) ;
#408 = ADVANCED_FACE ( 'NONE', ( #1133 ), #550, .T. ) ;
#409 = CARTESIAN_POINT ( 'NONE',  ( -4.950000000000002842, -0.9999999999999997780, -8.400000000000000355 ) ) ;
#410 = CIRCLE ( 'NONE', #697, 1.499999999999999556 ) ;
#411 = VERTEX_POINT ( 'NONE', #1111 ) ;
#412 = AXIS2_PLACEMENT_3D ( 'NONE', #914, #284, #724 ) ;
#413 = CARTESIAN_POINT ( 'NONE',  ( -5.750000000000000000, -1.000000000000000000, -6.600000000000001421 ) ) ;
#414 = DIRECTION ( 'NONE',  ( -1.000000000000000000, -0.0000000000000000000, -0.0000000000000000000 ) ) ;
#415 = EDGE_CURVE ( 'NONE', #565, #367, #268, .T. ) ;
#416 = ORIENTED_EDGE ( 'NONE', *, *, #220, .F. ) ;
#417 = DIRECTION ( 'NONE',  ( 0.0000000000000000000, -0.0000000000000000000, -1.000000000000000000 ) ) ;
#418 = ORIENTED_EDGE ( 'NONE', *, *, #533, .F. ) ;
#419 = CIRCLE ( 'NONE', #320, 0.8000000000000003775 ) ;
#420 = EDGE_CURVE ( 'NONE', #1137, #659, #994, .T. ) ;
#421 = VECTOR ( 'NONE', #1100, 1000.000000000000000 ) ;
#422 = CARTESIAN_POINT ( 'NONE',  ( 4.949999999999999289, -0.2999999999999999889, 6.600000000000001421 ) ) ;
#423 = DIRECTION ( 'NONE',  ( -4.818676322157803291E-16, 0.0000000000000000000, -1.000000000000000000 ) ) ;
#424 = EDGE_CURVE ( 'NONE', #1091, #591, #529, .T. ) ;
#425 = DIRECTION ( 'NONE',  ( -0.0000000000000000000, 1.000000000000000000, -0.0000000000000000000 ) ) ;
#426 = ORIENTED_EDGE ( 'NONE', *, *, #764, .F. ) ;
#427 = PRODUCT_DEFINITION ( 'UNKNOWN', '', #603, #651 ) ;
#428 = ORIENTED_EDGE ( 'NONE', *, *, #146, .T. ) ;
#429 = ADVANCED_FACE ( 'NONE', ( #952 ), #741, .T. ) ;
#430 = DIRECTION ( 'NONE',  ( 0.0000000000000000000, -0.0000000000000000000, -1.000000000000000000 ) ) ;
#431 = CIRCLE ( 'NONE', #851, 1.799999999999997824 ) ;
#432 = ORIENTED_EDGE ( 'NONE', *, *, #1030, .F. ) ;
#433 = CARTESIAN_POINT ( 'NONE',  ( 4.949999999999999289, -0.2999999999999999334, 6.600000000000001421 ) ) ;
#434 = LINE ( 'NONE', #607, #230 ) ;
#435 = ORIENTED_EDGE ( 'NONE', *, *, #1051, .F. ) ;
#436 = CARTESIAN_POINT ( 'NONE',  ( 4.949999999999999289, -0.2999999999999999889, 6.600000000000001421 ) ) ;
#437 = AXIS2_PLACEMENT_3D ( 'NONE', #949, #1027, #481 ) ;
#438 = ADVANCED_FACE ( 'NONE', ( #778 ), #199, .F. ) ;
#439 = CARTESIAN_POINT ( 'NONE',  ( 4.949999999999999289, -5.204170427930421283E-17, -8.100000000000001421 ) ) ;
#440 = EDGE_CURVE ( 'NONE', #763, #254, #569, .T. ) ;
#441 = ADVANCED_FACE ( 'NONE', ( #296 ), #1007, .T. ) ;
#442 = DIRECTION ( 'NONE',  ( -0.0000000000000000000, 1.000000000000000000, -0.0000000000000000000 ) ) ;
#443 = ORIENTED_EDGE ( 'NONE', *, *, #614, .T. ) ;
#444 = CARTESIAN_POINT ( 'NONE',  ( -4.950000000000002842, -0.9999999999999997780, 6.600000000000001421 ) ) ;
#445 = FACE_OUTER_BOUND ( 'NONE', #1057, .T. ) ;
#446 = FACE_OUTER_BOUND ( 'NONE', #719, .T. ) ;
#447 = ORIENTED_EDGE ( 'NONE', *, *, #113, .T. ) ;
#448 = CIRCLE ( 'NONE', #976, 1.000000000000000000 ) ;
#449 = ORIENTED_EDGE ( 'NONE', *, *, #780, .F. ) ;
#450 = DIRECTION ( 'NONE',  ( -0.0000000000000000000, -0.0000000000000000000, 1.000000000000000000 ) ) ;
#451 = EDGE_CURVE ( 'NONE', #1165, #1074, #250, .T. ) ;
#452 = ORIENTED_EDGE ( 'NONE', *, *, #960, .F. ) ;
#453 = AXIS2_PLACEMENT_3D ( 'NONE', #676, #474, #1139 ) ;
#454 = DIRECTION ( 'NONE',  ( 0.0000000000000000000, 0.0000000000000000000, 1.000000000000000000 ) ) ;
#455 = EDGE_CURVE ( 'NONE', #690, #715, #505, .T. ) ;
#456 = AXIS2_PLACEMENT_3D ( 'NONE', #999, #261, #94 ) ;
#457 = MECHANICAL_CONTEXT ( 'NONE', #1013, 'mechanical' ) ;
#458 = VERTEX_POINT ( 'NONE', #1042 ) ;
#459 = CALENDAR_DATE ( 2020, 13, 10 ) ;
#460 = FACE_OUTER_BOUND ( 'NONE', #503, .T. ) ;
#461 = DIRECTION ( 'NONE',  ( -0.0000000000000000000, 1.000000000000000000, -0.0000000000000000000 ) ) ;
#462 = EDGE_LOOP ( 'NONE', ( #225, #426, #984, #757 ) ) ;
#463 = CARTESIAN_POINT ( 'NONE',  ( -6.749999999999999112, -0.9999999999999997780, -6.600000000000000533 ) ) ;
#464 = AXIS2_PLACEMENT_3D ( 'NONE', #244, #879, #1073 ) ;
#465 = DIRECTION ( 'NONE',  ( 1.139873309888278418E-32, -1.000000000000000000, 1.734723475976807094E-16 ) ) ;
#466 = COORDINATED_UNIVERSAL_TIME_OFFSET ( 2, 0, .AHEAD. ) ;
#467 = CIRCLE ( 'NONE', #98, 0.7999999999999986011 ) ;
#468 = EDGE_CURVE ( 'NONE', #458, #62, #981, .T. ) ;
#469 = ORIENTED_EDGE ( 'NONE', *, *, #614, .F. ) ;
#470 = FACE_OUTER_BOUND ( 'NONE', #567, .T. ) ;
#471 = DIRECTION ( 'NONE',  ( -1.239088197126292050E-15, -9.293161478447189878E-16, 1.000000000000000000 ) ) ;
#472 = ORIENTED_EDGE ( 'NONE', *, *, #343, .T. ) ;
#473 = EDGE_CURVE ( 'NONE', #367, #62, #891, .T. ) ;
#474 = DIRECTION ( 'NONE',  ( 1.000000000000000000, -0.0000000000000000000, -0.0000000000000000000 ) ) ;
#475 = DIRECTION ( 'NONE',  ( 1.000000000000000000, 0.0000000000000000000, 8.881784197001252323E-16 ) ) ;
#476 = ORIENTED_EDGE ( 'NONE', *, *, #263, .F. ) ;
#477 = ORIENTED_EDGE ( 'NONE', *, *, #1012, .F. ) ;
#478 = PERSON_AND_ORGANIZATION ( #594, #1118 ) ;
#479 = ORIENTED_EDGE ( 'NONE', *, *, #451, .F. ) ;
#480 = CARTESIAN_POINT ( 'NONE',  ( -5.750000000000001776, 0.0000000000000000000, -6.600000000000001421 ) ) ;
#481 = DIRECTION ( 'NONE',  ( -1.734723475976807094E-16, -1.000000000000000000, 0.0000000000000000000 ) ) ;
#482 = VECTOR ( 'NONE', #283, 1000.000000000000000 ) ;
#483 = ORIENTED_EDGE ( 'NONE', *, *, #903, .F. ) ;
#484 = CC_DESIGN_APPROVAL ( #375, ( #427 ) ) ;
#485 = LINE ( 'NONE', #825, #122 ) ;
#486 = ORIENTED_EDGE ( 'NONE', *, *, #44, .F. ) ;
#487 = ORIENTED_EDGE ( 'NONE', *, *, #1016, .F. ) ;
#488 = DIRECTION ( 'NONE',  ( 6.570922257487903830E-17, -0.0000000000000000000, -1.000000000000000000 ) ) ;
#489 = DIRECTION ( 'NONE',  ( 0.0000000000000000000, -1.000000000000000000, 1.734723475976807094E-16 ) ) ;
#490 = VECTOR ( 'NONE', #1082, 1000.000000000000000 ) ;
#491 = EDGE_CURVE ( 'NONE', #1074, #794, #228, .T. ) ;
#492 = TOROIDAL_SURFACE ( 'NONE', #16, 0.7999999999999986011, 0.7000000000000000666 ) ;
#493 = CARTESIAN_POINT ( 'NONE',  ( -4.950000000000003730, -0.2999999999999999334, 7.400000000000000355 ) ) ;
#494 = VECTOR ( 'NONE', #465, 1000.000000000000000 ) ;
#495 = ORIENTED_EDGE ( 'NONE', *, *, #1152, .T. ) ;
#496 = CC_DESIGN_SECURITY_CLASSIFICATION ( #1092, ( #603 ) ) ;
#497 = ORIENTED_EDGE ( 'NONE', *, *, #1036, .F. ) ;
#498 = EDGE_CURVE ( 'NONE', #877, #1091, #793, .T. ) ;
#499 = PRODUCT ( 'MS168-10S', 'MS168-10S', '', ( #457 ) ) ;
#500 = AXIS2_PLACEMENT_3D ( 'NONE', #703, #1173, #618 ) ;
#501 = ADVANCED_FACE ( 'NONE', ( #671 ), #63, .T. ) ;
#502 = CARTESIAN_POINT ( 'NONE',  ( 4.949999999999999289, -0.2999999999999999889, 6.600000000000001421 ) ) ;
#503 = EDGE_LOOP ( 'NONE', ( #477, #369, #1159, #755 ) ) ;
#504 = APPROVAL_DATE_TIME ( #1075, #375 ) ;
#505 = CIRCLE ( 'NONE', #1134, 1.499999999999997780 ) ;
#506 = EDGE_LOOP ( 'NONE', ( #1138, #1055, #452, #532 ) ) ;
#507 = EDGE_CURVE ( 'NONE', #969, #1078, #33, .T. ) ;
#508 = VECTOR ( 'NONE', #815, 1000.000000000000000 ) ;
#509 = ORIENTED_EDGE ( 'NONE', *, *, #507, .T. ) ;
#510 = AXIS2_PLACEMENT_3D ( 'NONE', #9, #711, #900 ) ;
#511 = CARTESIAN_POINT ( 'NONE',  ( -5.750000000000000000, 0.0000000000000000000, 6.600000000000001421 ) ) ;
#512 = ORIENTED_EDGE ( 'NONE', *, *, #620, .T. ) ;
#513 = DIRECTION ( 'NONE',  ( 0.0000000000000000000, 0.0000000000000000000, 1.000000000000000000 ) ) ;
#514 = ADVANCED_FACE ( 'NONE', ( #279 ), #746, .F. ) ;
#515 = MANIFOLD_SOLID_BREP ( 'Swept Flange1', #13 ) ;
#516 = PLANE ( 'NONE',  #280 ) ;
#517 = EDGE_CURVE ( 'NONE', #1009, #794, #593, .T. ) ;
#518 = ADVANCED_FACE ( 'NONE', ( #714 ), #849, .F. ) ;
#519 = DIRECTION ( 'NONE',  ( 0.0000000000000000000, -9.293161478447168185E-16, -1.000000000000000000 ) ) ;
#520 = CARTESIAN_POINT ( 'NONE',  ( 6.750000000000000000, 0.0000000000000000000, -6.600000000000001421 ) ) ;
#521 = DIRECTION ( 'NONE',  ( 0.0000000000000000000, 0.0000000000000000000, 1.000000000000000000 ) ) ;
#522 = AXIS2_PLACEMENT_3D ( 'NONE', #1168, #811, #260 ) ;
#523 = ORIENTED_EDGE ( 'NONE', *, *, #817, .T. ) ;
#524 = PERSON_AND_ORGANIZATION ( #594, #1118 ) ;
#525 = DIRECTION ( 'NONE',  ( 0.0000000000000000000, 0.0000000000000000000, 1.000000000000000000 ) ) ;
#526 = FACE_OUTER_BOUND ( 'NONE', #623, .T. ) ;
#527 = ORIENTED_EDGE ( 'NONE', *, *, #536, .T. ) ;
#528 = DIRECTION ( 'NONE',  ( -0.0000000000000000000, 1.000000000000000000, -0.0000000000000000000 ) ) ;
#529 = LINE ( 'NONE', #18, #846 ) ;
#530 = CARTESIAN_POINT ( 'NONE',  ( -4.950000000000002842, -5.000000000000000000, 8.400000000000000355 ) ) ;
#531 = ADVANCED_FACE ( 'NONE', ( #470 ), #752, .T. ) ;
#532 = ORIENTED_EDGE ( 'NONE', *, *, #327, .T. ) ;
#533 = EDGE_CURVE ( 'NONE', #912, #305, #729, .T. ) ;
#534 = CARTESIAN_POINT ( 'NONE',  ( 4.949999999999999289, -5.000000000000000000, 6.600000000000001421 ) ) ;
#535 = CARTESIAN_POINT ( 'NONE',  ( 4.949999999999999289, -0.9999999999999997780, 6.600000000000001421 ) ) ;
#536 = EDGE_CURVE ( 'NONE', #730, #1074, #684, .T. ) ;
#537 = VERTEX_POINT ( 'NONE', #1034 ) ;
#538 = DIRECTION ( 'NONE',  ( -1.139873309888278418E-32, -1.000000000000000000, -1.734723475976807094E-16 ) ) ;
#539 = CARTESIAN_POINT ( 'NONE',  ( 4.949999999999999289, 0.0000000000000000000, 6.600000000000001421 ) ) ;
#540 = CALENDAR_DATE ( 2020, 13, 10 ) ;
#541 = ORIENTED_EDGE ( 'NONE', *, *, #113, .F. ) ;
#542 = VECTOR ( 'NONE', #944, 1000.000000000000000 ) ;
#543 = VERTEX_POINT ( 'NONE', #165 ) ;
#544 = FACE_OUTER_BOUND ( 'NONE', #1121, .T. ) ;
#545 =( NAMED_UNIT ( * ) PLANE_ANGLE_UNIT ( ) SI_UNIT ( $, .RADIAN. ) );
#546 = FACE_OUTER_BOUND ( 'NONE', #200, .T. ) ;
#547 = DIRECTION ( 'NONE',  ( 0.0000000000000000000, -1.000000000000000000, 0.0000000000000000000 ) ) ;
#548 = ORIENTED_EDGE ( 'NONE', *, *, #848, .F. ) ;
#549 = CC_DESIGN_DATE_AND_TIME_ASSIGNMENT ( #85, #845, ( #427 ) ) ;
#550 = PLANE ( 'NONE',  #637 ) ;
#551 = ORIENTED_EDGE ( 'NONE', *, *, #498, .F. ) ;
#552 = EDGE_CURVE ( 'NONE', #727, #730, #431, .T. ) ;
#553 = EDGE_LOOP ( 'NONE', ( #308, #325, #334, #171 ) ) ;
#554 = PERSON_AND_ORGANIZATION ( #594, #1118 ) ;
#555 = CIRCLE ( 'NONE', #824, 1.499999999999999556 ) ;
#556 = DIRECTION ( 'NONE',  ( 0.0000000000000000000, -1.000000000000000000, 1.734723475976807094E-16 ) ) ;
#557 = VECTOR ( 'NONE', #619, 1000.000000000000000 ) ;
#558 = EDGE_LOOP ( 'NONE', ( #1018, #871, #326, #170 ) ) ;
#559 = DIRECTION ( 'NONE',  ( 0.0000000000000000000, 0.0000000000000000000, 1.000000000000000000 ) ) ;
#560 = EDGE_CURVE ( 'NONE', #687, #730, #448, .T. ) ;
#561 = PERSON_AND_ORGANIZATION_ROLE ( 'classification_officer' ) ;
#562 = DIRECTION ( 'NONE',  ( 0.0000000000000000000, 0.0000000000000000000, 1.000000000000000000 ) ) ;
#563 = DIRECTION ( 'NONE',  ( 6.123233995736766036E-17, -0.0000000000000000000, -1.000000000000000000 ) ) ;
#564 = DIRECTION ( 'NONE',  ( -4.818676322157798361E-16, 0.0000000000000000000, -1.000000000000000000 ) ) ;
#565 = VERTEX_POINT ( 'NONE', #1170 ) ;
#566 = FACE_OUTER_BOUND ( 'NONE', #390, .T. ) ;
#567 = EDGE_LOOP ( 'NONE', ( #1104, #2, #679, #527 ) ) ;
#568 = APPROVAL_STATUS ( 'not_yet_approved' ) ;
#569 = LINE ( 'NONE', #221, #105 ) ;
#570 = ORIENTED_EDGE ( 'NONE', *, *, #587, .T. ) ;
#571 = DIRECTION ( 'NONE',  ( 0.0000000000000000000, 0.0000000000000000000, 1.000000000000000000 ) ) ;
#572 = ORIENTED_EDGE ( 'NONE', *, *, #903, .T. ) ;
#573 = EDGE_CURVE ( 'NONE', #687, #67, #1147, .T. ) ;
#574 = AXIS2_PLACEMENT_3D ( 'NONE', #737, #928, #385 ) ;
#575 = ADVANCED_FACE ( 'NONE', ( #370 ), #657, .F. ) ;
#576 = DIRECTION ( 'NONE',  ( -0.0000000000000000000, 1.000000000000000000, -0.0000000000000000000 ) ) ;
#577 = CARTESIAN_POINT ( 'NONE',  ( 4.949999999999999289, 0.0000000000000000000, -6.600000000000001421 ) ) ;
#578 = EDGE_LOOP ( 'NONE', ( #908, #371, #572, #40 ) ) ;
#579 = LINE ( 'NONE', #109, #172 ) ;
#580 = DIRECTION ( 'NONE',  ( -1.734723475976807094E-16, -1.000000000000000000, 0.0000000000000000000 ) ) ;
#581 = CARTESIAN_POINT ( 'NONE',  ( 4.949999999999999289, -1.000000000000000000, 6.600000000000001421 ) ) ;
#582 = CYLINDRICAL_SURFACE ( 'NONE', #207, 1.799999999999997824 ) ;
#583 = ORIENTED_EDGE ( 'NONE', *, *, #451, .T. ) ;
#584 = AXIS2_PLACEMENT_3D ( 'NONE', #285, #288, #145 ) ;
#585 = ORIENTED_EDGE ( 'NONE', *, *, #186, .F. ) ;
#586 = CARTESIAN_POINT ( 'NONE',  ( 5.750000000000000888, 0.0000000000000000000, -6.600000000000001421 ) ) ;
#587 = EDGE_CURVE ( 'NONE', #844, #592, #419, .T. ) ;
#588 = DIRECTION ( 'NONE',  ( 0.0000000000000000000, 0.0000000000000000000, 1.000000000000000000 ) ) ;
#589 = EDGE_CURVE ( 'NONE', #659, #690, #311, .T. ) ;
#590 = DIRECTION ( 'NONE',  ( -0.0000000000000000000, 1.000000000000000000, -0.0000000000000000000 ) ) ;
#591 = VERTEX_POINT ( 'NONE', #255 ) ;
#592 = VERTEX_POINT ( 'NONE', #248 ) ;
#593 = LINE ( 'NONE', #766, #968 ) ;
#594 = PERSON ( 'UNSPECIFIED', 'UNSPECIFIED', 'UNSPECIFIED', ('UNSPECIFIED'), ('UNSPECIFIED'), ('UNSPECIFIED') ) ;
#595 = LINE ( 'NONE', #78, #557 ) ;
#596 = ADVANCED_FACE ( 'NONE', ( #822 ), #181, .T. ) ;
#597 = ORIENTED_EDGE ( 'NONE', *, *, #473, .T. ) ;
#598 = DIRECTION ( 'NONE',  ( -0.0000000000000000000, -1.734723475976807094E-16, 1.000000000000000000 ) ) ;
#599 = ADVANCED_FACE ( 'NONE', ( #189 ), #339, .T. ) ;
#600 = CARTESIAN_POINT ( 'NONE',  ( -4.950000000000002842, -0.2999999999999999889, -6.600000000000001421 ) ) ;
#601 = DIRECTION ( 'NONE',  ( 0.0000000000000000000, 0.0000000000000000000, -1.000000000000000000 ) ) ;
#602 = CARTESIAN_POINT ( 'NONE',  ( -4.950000000000002842, -0.9999999999999997780, 8.400000000000000355 ) ) ;
#603 = PRODUCT_DEFINITION_FORMATION_WITH_SPECIFIED_SOURCE ( 'ANY', '', #499, .NOT_KNOWN. ) ;
#604 = DIRECTION ( 'NONE',  ( 0.0000000000000000000, 0.0000000000000000000, 1.000000000000000000 ) ) ;
#605 = COORDINATED_UNIVERSAL_TIME_OFFSET ( 2, 0, .AHEAD. ) ;
#606 = PLANE ( 'NONE',  #287 ) ;
#607 = CARTESIAN_POINT ( 'NONE',  ( 4.949999999999999289, -5.000000000000000000, -8.100000000000003197 ) ) ;
#608 = CARTESIAN_POINT ( 'NONE',  ( -5.750000000000000000, 0.0000000000000000000, -6.600000000000001421 ) ) ;
#609 = ORIENTED_EDGE ( 'NONE', *, *, #936, .T. ) ;
#610 = CIRCLE ( 'NONE', #30, 1.799999999999999600 ) ;
#611 = FACE_OUTER_BOUND ( 'NONE', #639, .T. ) ;
#612 = VECTOR ( 'NONE', #632, 1000.000000000000000 ) ;
#613 = ORIENTED_EDGE ( 'NONE', *, *, #678, .T. ) ;
#614 = EDGE_CURVE ( 'NONE', #411, #625, #1122, .T. ) ;
#615 = DIRECTION ( 'NONE',  ( 1.000000000000000000, -0.0000000000000000000, -0.0000000000000000000 ) ) ;
#616 = CARTESIAN_POINT ( 'NONE',  ( -5.750000000000000000, -1.000000000000000000, -6.600000000000001421 ) ) ;
#617 = ADVANCED_FACE ( 'NONE', ( #544 ), #240, .F. ) ;
#618 = DIRECTION ( 'NONE',  ( 0.0000000000000000000, -8.673617379884027583E-16, 1.000000000000000000 ) ) ;
#619 = DIRECTION ( 'NONE',  ( 0.0000000000000000000, -1.000000000000000000, 0.0000000000000000000 ) ) ;
#620 = EDGE_CURVE ( 'NONE', #397, #625, #1035, .T. ) ;
#621 = LINE ( 'NONE', #193, #226 ) ;
#622 = CARTESIAN_POINT ( 'NONE',  ( -6.750000000000002665, -5.000000000000000000, -6.600000000000000533 ) ) ;
#623 = EDGE_LOOP ( 'NONE', ( #583, #664, #213, #495 ) ) ;
#624 = LINE ( 'NONE', #1050, #391 ) ;
#625 = VERTEX_POINT ( 'NONE', #977 ) ;
#626 = ORIENTED_EDGE ( 'NONE', *, *, #5, .F. ) ;
#627 = DIRECTION ( 'NONE',  ( 0.0000000000000000000, 0.0000000000000000000, 1.000000000000000000 ) ) ;
#628 = FACE_OUTER_BOUND ( 'NONE', #188, .T. ) ;
#629 = ORIENTED_EDGE ( 'NONE', *, *, #298, .F. ) ;
#630 = DIRECTION ( 'NONE',  ( 0.0000000000000000000, 0.0000000000000000000, 1.000000000000000000 ) ) ;
#631 = AXIS2_PLACEMENT_3D ( 'NONE', #149, #1153, #964 ) ;
#632 = DIRECTION ( 'NONE',  ( 6.570922257487903830E-17, -0.0000000000000000000, -1.000000000000000000 ) ) ;
#633 = CARTESIAN_POINT ( 'NONE',  ( 4.949999999999999289, -5.000000000000000000, -6.600000000000001421 ) ) ;
#634 = DIRECTION ( 'NONE',  ( 1.000000000000000000, 0.0000000000000000000, 0.0000000000000000000 ) ) ;
#635 = CARTESIAN_POINT ( 'NONE',  ( 6.450000000000000178, -1.000000000000000000, 6.600000000000001421 ) ) ;
#636 = EDGE_CURVE ( 'NONE', #912, #747, #154, .T. ) ;
#637 = AXIS2_PLACEMENT_3D ( 'NONE', #123, #196, #839 ) ;
#638 = PERSON_AND_ORGANIZATION_ROLE ( 'design_owner' ) ;
#639 = EDGE_LOOP ( 'NONE', ( #299, #153, #249, #310 ) ) ;
#640 = DIRECTION ( 'NONE',  ( -1.139873309888278281E-32, -1.000000000000000000, -1.734723475976807094E-16 ) ) ;
#641 = DIRECTION ( 'NONE',  ( 0.0000000000000000000, -0.0000000000000000000, -1.000000000000000000 ) ) ;
#642 = ORIENTED_EDGE ( 'NONE', *, *, #967, .T. ) ;
#643 = FACE_OUTER_BOUND ( 'NONE', #246, .T. ) ;
#644 = VECTOR ( 'NONE', #955, 1000.000000000000000 ) ;
#645 = ORIENTED_EDGE ( 'NONE', *, *, #829, .T. ) ;
#646 = DIRECTION ( 'NONE',  ( -0.0000000000000000000, -0.0000000000000000000, 1.000000000000000000 ) ) ;
#647 = LINE ( 'NONE', #1002, #982 ) ;
#648 = DIRECTION ( 'NONE',  ( -1.000000000000000000, -0.0000000000000000000, -0.0000000000000000000 ) ) ;
#649 = AXIS2_PLACEMENT_3D ( 'NONE', #740, #770, #330 ) ;
#650 = DIRECTION ( 'NONE',  ( 6.570922257487903830E-17, -0.0000000000000000000, -1.000000000000000000 ) ) ;
#651 = DESIGN_CONTEXT ( 'detailed design', #203, 'design' ) ;
#652 = EDGE_CURVE ( 'NONE', #537, #1096, #1059, .T. ) ;
#653 = CARTESIAN_POINT ( 'NONE',  ( 4.950000000000000178, 0.0000000000000000000, 8.400000000000000355 ) ) ;
#654 = VECTOR ( 'NONE', #813, 1000.000000000000000 ) ;
#655 = VECTOR ( 'NONE', #173, 1000.000000000000000 ) ;
#656 = DIRECTION ( 'NONE',  ( -1.734723475976807094E-16, 1.000000000000000000, 0.0000000000000000000 ) ) ;
#657 = TOROIDAL_SURFACE ( 'NONE', #1149, 0.8000000000000003775, 0.7000000000000000666 ) ;
#658 = FACE_OUTER_BOUND ( 'NONE', #356, .T. ) ;
#659 = VERTEX_POINT ( 'NONE', #699 ) ;
#660 = EDGE_CURVE ( 'NONE', #877, #543, #875, .T. ) ;
#661 = DIRECTION ( 'NONE',  ( 0.0000000000000000000, -1.000000000000000000, 0.0000000000000000000 ) ) ;
#662 = PLANE ( 'NONE',  #175 ) ;
#663 = DIRECTION ( 'NONE',  ( -1.000000000000000000, 0.0000000000000000000, 0.0000000000000000000 ) ) ;
#664 = ORIENTED_EDGE ( 'NONE', *, *, #536, .F. ) ;
#665 = CARTESIAN_POINT ( 'NONE',  ( 4.949999999999999289, -0.9999999999999997780, 8.400000000000000355 ) ) ;
#666 = APPROVAL_DATE_TIME ( #224, #751 ) ;
#667 = ADVANCED_FACE ( 'NONE', ( #992 ), #801, .T. ) ;
#668 = ORIENTED_EDGE ( 'NONE', *, *, #764, .T. ) ;
#669 = FACE_OUTER_BOUND ( 'NONE', #725, .T. ) ;
#670 = AXIS2_PLACEMENT_3D ( 'NONE', #136, #312, #1130 ) ;
#671 = FACE_OUTER_BOUND ( 'NONE', #675, .T. ) ;
#672 = ORIENTED_EDGE ( 'NONE', *, *, #298, .T. ) ;
#673 = CARTESIAN_POINT ( 'NONE',  ( 4.949999999999999289, -0.9999999999999997780, -8.400000000000000355 ) ) ;
#674 = CYLINDRICAL_SURFACE ( 'NONE', #257, 1.499999999999998668 ) ;
#675 = EDGE_LOOP ( 'NONE', ( #328, #159, #613, #121 ) ) ;
#676 = CARTESIAN_POINT ( 'NONE',  ( 4.949999999999998401, -1.000000000000000000, 7.400000000000002132 ) ) ;
#677 = AXIS2_PLACEMENT_3D ( 'NONE', #206, #204, #295 ) ;
#678 = EDGE_CURVE ( 'NONE', #747, #763, #353, .T. ) ;
#679 = ORIENTED_EDGE ( 'NONE', *, *, #365, .F. ) ;
#680 = TOROIDAL_SURFACE ( 'NONE', #412, 0.7999999999999986011, 1.000000000000000000 ) ;
#681 = PLANE ( 'NONE',  #1006 ) ;
#682 = LINE ( 'NONE', #887, #655 ) ;
#683 = ORIENTED_EDGE ( 'NONE', *, *, #331, .F. ) ;
#684 = LINE ( 'NONE', #862, #48 ) ;
#685 = ORIENTED_EDGE ( 'NONE', *, *, #161, .F. ) ;
#686 = DIRECTION ( 'NONE',  ( -0.0000000000000000000, 1.000000000000000000, -0.0000000000000000000 ) ) ;
#687 = VERTEX_POINT ( 'NONE', #480 ) ;
#688 = DIRECTION ( 'NONE',  ( 0.0000000000000000000, 0.0000000000000000000, 1.000000000000000000 ) ) ;
#689 = AXIS2_PLACEMENT_3D ( 'NONE', #190, #819, #376 ) ;
#690 = VERTEX_POINT ( 'NONE', #1123 ) ;
#691 = VERTEX_POINT ( 'NONE', #841 ) ;
#692 = EDGE_CURVE ( 'NONE', #290, #1165, #31, .T. ) ;
#693 = ORIENTED_EDGE ( 'NONE', *, *, #898, .T. ) ;
#694 = PERSON_AND_ORGANIZATION ( #594, #1118 ) ;
#695 = DIRECTION ( 'NONE',  ( 1.734723475976807094E-16, -1.000000000000000000, -0.0000000000000000000 ) ) ;
#696 = CIRCLE ( 'NONE', #840, 1.799999999999999600 ) ;
#697 = AXIS2_PLACEMENT_3D ( 'NONE', #633, #106, #627 ) ;
#698 = CARTESIAN_POINT ( 'NONE',  ( 5.750000000000000000, -0.2999999999999999334, 6.600000000000001421 ) ) ;
#699 = CARTESIAN_POINT ( 'NONE',  ( -6.450000000000000178, -5.000000000000000000, -6.600000000000000533 ) ) ;
#700 = CYLINDRICAL_SURFACE ( 'NONE', #346, 1.000000000000000000 ) ;
#701 = DIRECTION ( 'NONE',  ( -0.0000000000000000000, 1.000000000000000000, -0.0000000000000000000 ) ) ;
#702 = ORIENTED_EDGE ( 'NONE', *, *, #491, .F. ) ;
#703 = CARTESIAN_POINT ( 'NONE',  ( -4.950000000000003730, -1.000000000000000000, 7.400000000000000355 ) ) ;
#704 = CARTESIAN_POINT ( 'NONE',  ( 5.750000000000000000, 0.0000000000000000000, 6.600000000000001421 ) ) ;
#705 = DIRECTION ( 'NONE',  ( 0.0000000000000000000, 0.0000000000000000000, -1.000000000000000000 ) ) ;
#706 = DIRECTION ( 'NONE',  ( 0.0000000000000000000, -1.000000000000000000, 0.0000000000000000000 ) ) ;
#707 = DIRECTION ( 'NONE',  ( -0.0000000000000000000, 1.000000000000000000, -0.0000000000000000000 ) ) ;
#708 = ADVANCED_FACE ( 'NONE', ( #566 ), #662, .F. ) ;
#709 = DIRECTION ( 'NONE',  ( 0.0000000000000000000, -0.0000000000000000000, -1.000000000000000000 ) ) ;
#710 = CIRCLE ( 'NONE', #1043, 0.7000000000000009548 ) ;
#711 = DIRECTION ( 'NONE',  ( -0.0000000000000000000, 1.000000000000000000, -0.0000000000000000000 ) ) ;
#712 = LINE ( 'NONE', #239, #120 ) ;
#713 = ORIENTED_EDGE ( 'NONE', *, *, #620, .F. ) ;
#714 = FACE_OUTER_BOUND ( 'NONE', #1038, .T. ) ;
#715 = VERTEX_POINT ( 'NONE', #302 ) ;
#716 = CARTESIAN_POINT ( 'NONE',  ( 4.949999999999999289, -0.9999999999999997780, -6.600000000000001421 ) ) ;
#717 = AXIS2_PLACEMENT_3D ( 'NONE', #3, #167, #800 ) ;
#718 = DIRECTION ( 'NONE',  ( 0.0000000000000000000, -1.000000000000000000, -1.734723475976807094E-16 ) ) ;
#719 = EDGE_LOOP ( 'NONE', ( #1001, #754, #135, #35 ) ) ;
#720 = CARTESIAN_POINT ( 'NONE',  ( -4.950000000000002842, -0.2999999999999999889, -6.600000000000001421 ) ) ;
#721 = DIRECTION ( 'NONE',  ( -0.0000000000000000000, 1.000000000000000000, -0.0000000000000000000 ) ) ;
#722 = EDGE_CURVE ( 'NONE', #367, #65, #965, .T. ) ;
#723 = AXIS2_PLACEMENT_3D ( 'NONE', #80, #701, #245 ) ;
#724 = DIRECTION ( 'NONE',  ( 0.0000000000000000000, 0.0000000000000000000, 1.000000000000000000 ) ) ;
#725 = EDGE_LOOP ( 'NONE', ( #1114, #1131, #966, #202 ) ) ;
#726 =( NAMED_UNIT ( * ) SI_UNIT ( $, .STERADIAN. ) SOLID_ANGLE_UNIT ( ) );
#727 = VERTEX_POINT ( 'NONE', #409 ) ;
#728 = FACE_OUTER_BOUND ( 'NONE', #1126, .T. ) ;
#729 = LINE ( 'NONE', #1124, #4 ) ;
#730 = VERTEX_POINT ( 'NONE', #769 ) ;
#731 = CIRCLE ( 'NONE', #456, 1.000000000000000000 ) ;
#732 = ORIENTED_EDGE ( 'NONE', *, *, #161, .T. ) ;
#733 = CARTESIAN_POINT ( 'NONE',  ( -4.950000000000003730, 0.0000000000000000000, 7.400000000000000355 ) ) ;
#734 = AXIS2_PLACEMENT_3D ( 'NONE', #808, #799, #358 ) ;
#735 = DIRECTION ( 'NONE',  ( -0.0000000000000000000, -0.0000000000000000000, 1.000000000000000000 ) ) ;
#736 = CARTESIAN_POINT ( 'NONE',  ( 4.949999999999999289, -1.000000000000000000, -6.600000000000001421 ) ) ;
#737 = CARTESIAN_POINT ( 'NONE',  ( -4.950000000000002842, -0.2999999999999999334, -6.600000000000001421 ) ) ;
#738 = AXIS2_PLACEMENT_3D ( 'NONE', #818, #718, #185 ) ;
#739 = PERSON_AND_ORGANIZATION_ROLE ( 'creator' ) ;
#740 = CARTESIAN_POINT ( 'NONE',  ( 4.949999999999999289, 0.0000000000000000000, -8.400000000000000355 ) ) ;
#741 = PLANE ( 'NONE',  #1071 ) ;
#742 = COORDINATED_UNIVERSAL_TIME_OFFSET ( 2, 0, .AHEAD. ) ;
#743 = FACE_OUTER_BOUND ( 'NONE', #102, .T. ) ;
#744 = ORIENTED_EDGE ( 'NONE', *, *, #150, .F. ) ;
#745 = PERSON_AND_ORGANIZATION_ROLE ( 'creator' ) ;
#746 = CYLINDRICAL_SURFACE ( 'NONE', #788, 1.499999999999997780 ) ;
#747 = VERTEX_POINT ( 'NONE', #665 ) ;
#748 = EDGE_CURVE ( 'NONE', #844, #565, #368, .T. ) ;
#749 = PLANE ( 'NONE',  #381 ) ;
#750 = ORIENTED_EDGE ( 'NONE', *, *, #424, .F. ) ;
#751 = APPROVAL ( #398, 'UNSPECIFIED' ) ;
#752 = PLANE ( 'NONE',  #437 ) ;
#753 = DIRECTION ( 'NONE',  ( 1.000000000000000000, 0.0000000000000000000, 2.168404344971007685E-15 ) ) ;
#754 = ORIENTED_EDGE ( 'NONE', *, *, #406, .T. ) ;
#755 = ORIENTED_EDGE ( 'NONE', *, *, #830, .T. ) ;
#756 = AXIS2_PLACEMENT_3D ( 'NONE', #798, #1064, #1155 ) ;
#757 = ORIENTED_EDGE ( 'NONE', *, *, #468, .T. ) ;
#758 = VECTOR ( 'NONE', #661, 1000.000000000000000 ) ;
#759 = PLANE ( 'NONE',  #670 ) ;
#760 = DIRECTION ( 'NONE',  ( 0.0000000000000000000, 0.0000000000000000000, 1.000000000000000000 ) ) ;
#761 = FACE_OUTER_BOUND ( 'NONE', #462, .T. ) ;
#762 = LINE ( 'NONE', #373, #508 ) ;
#763 = VERTEX_POINT ( 'NONE', #39 ) ;
#764 = EDGE_CURVE ( 'NONE', #592, #367, #126, .T. ) ;
#765 = DIRECTION ( 'NONE',  ( 0.0000000000000000000, 0.0000000000000000000, 1.000000000000000000 ) ) ;
#766 = CARTESIAN_POINT ( 'NONE',  ( -6.749999999999999112, 0.0000000000000000000, 6.600000000000002309 ) ) ;
#767 = EDGE_CURVE ( 'NONE', #763, #543, #1005, .T. ) ;
#768 = ORIENTED_EDGE ( 'NONE', *, *, #636, .T. ) ;
#769 = CARTESIAN_POINT ( 'NONE',  ( -6.750000000000000888, -0.9999999999999997780, -6.600000000000000533 ) ) ;
#770 = DIRECTION ( 'NONE',  ( 0.0000000000000000000, 1.734723475976807094E-16, -1.000000000000000000 ) ) ;
#771 = ORIENTED_EDGE ( 'NONE', *, *, #817, .F. ) ;
#772 = ORIENTED_EDGE ( 'NONE', *, *, #954, .T. ) ;
#773 = ORIENTED_EDGE ( 'NONE', *, *, #327, .F. ) ;
#774 = AXIS2_PLACEMENT_3D ( 'NONE', #1143, #1062, #588 ) ;
#775 = LINE ( 'NONE', #147, #174 ) ;
#776 = ORIENTED_EDGE ( 'NONE', *, *, #150, .T. ) ;
#777 = CARTESIAN_POINT ( 'NONE',  ( 4.949999999999998401, -0.2999999999999999334, 7.400000000000002132 ) ) ;
#778 = FACE_OUTER_BOUND ( 'NONE', #210, .T. ) ;
#779 = ORIENTED_EDGE ( 'NONE', *, *, #1030, .T. ) ;
#780 = EDGE_CURVE ( 'NONE', #128, #727, #309, .T. ) ;
#781 = ORIENTED_EDGE ( 'NONE', *, *, #1070, .F. ) ;
#782 = CARTESIAN_POINT ( 'NONE',  ( -4.950000000000002842, -1.000000000000000000, 6.600000000000001421 ) ) ;
#783 = AXIS2_PLACEMENT_3D ( 'NONE', #366, #1163, #604 ) ;
#784 = ORIENTED_EDGE ( 'NONE', *, *, #780, .T. ) ;
#785 = EDGE_CURVE ( 'NONE', #84, #90, #187, .T. ) ;
#786 = ORIENTED_EDGE ( 'NONE', *, *, #829, .F. ) ;
#787 = DIRECTION ( 'NONE',  ( -0.0000000000000000000, 1.000000000000000000, -0.0000000000000000000 ) ) ;
#788 = AXIS2_PLACEMENT_3D ( 'NONE', #313, #303, #760 ) ;
#789 = DIRECTION ( 'NONE',  ( 1.000000000000000000, -0.0000000000000000000, -0.0000000000000000000 ) ) ;
#790 = EDGE_LOOP ( 'NONE', ( #57, #88, #449, #447 ) ) ;
#791 = VECTOR ( 'NONE', #414, 1000.000000000000000 ) ;
#792 = ORIENTED_EDGE ( 'NONE', *, *, #1097, .T. ) ;
#793 = CIRCLE ( 'NONE', #971, 0.8000000000000003775 ) ;
#794 = VERTEX_POINT ( 'NONE', #306 ) ;
#795 = LINE ( 'NONE', #1085, #252 ) ;
#796 = ADVANCED_FACE ( 'NONE', ( #743 ), #582, .T. ) ;
#797 = CARTESIAN_POINT ( 'NONE',  ( 6.450000000000000178, -5.000000000000000000, 6.600000000000001421 ) ) ;
#798 = CARTESIAN_POINT ( 'NONE',  ( -4.950000000000002842, -0.9999999999999997780, -6.600000000000001421 ) ) ;
#799 = DIRECTION ( 'NONE',  ( -0.0000000000000000000, -0.0000000000000000000, -1.000000000000000000 ) ) ;
#800 = DIRECTION ( 'NONE',  ( 0.0000000000000000000, 0.0000000000000000000, 1.000000000000000000 ) ) ;
#801 = PLANE ( 'NONE',  #649 ) ;
#802 = APPROVAL ( #568, 'UNSPECIFIED' ) ;
#803 = DIRECTION ( 'NONE',  ( 0.0000000000000000000, 0.0000000000000000000, 1.000000000000000000 ) ) ;
#804 = CARTESIAN_POINT ( 'NONE',  ( 4.950000000000000178, -0.2999999999999999334, -7.400000000000002132 ) ) ;
#805 = PLANE ( 'NONE',  #401 ) ;
#806 = DIRECTION ( 'NONE',  ( -1.000000000000000000, -8.673617379884035472E-16, 0.0000000000000000000 ) ) ;
#807 = ORIENTED_EDGE ( 'NONE', *, *, #868, .T. ) ;
#808 = CARTESIAN_POINT ( 'NONE',  ( 5.750000000000000000, -1.000000000000000000, 6.600000000000001421 ) ) ;
#809 = VECTOR ( 'NONE', #162, 1000.000000000000000 ) ;
#810 = AXIS2_PLACEMENT_3D ( 'NONE', #1171, #990, #12 ) ;
#811 = DIRECTION ( 'NONE',  ( 0.0000000000000000000, -1.000000000000000000, 1.734723475976807094E-16 ) ) ;
#812 = VERTEX_POINT ( 'NONE', #42 ) ;
#813 = DIRECTION ( 'NONE',  ( 1.000000000000000000, 0.0000000000000000000, -0.0000000000000000000 ) ) ;
#814 = DIRECTION ( 'NONE',  ( 6.570922257487903830E-17, -0.0000000000000000000, -1.000000000000000000 ) ) ;
#815 = DIRECTION ( 'NONE',  ( 1.000000000000000000, 0.0000000000000000000, -0.0000000000000000000 ) ) ;
#816 = ADVANCED_FACE ( 'NONE', ( #60 ), #759, .T. ) ;
#817 = EDGE_CURVE ( 'NONE', #625, #342, #1120, .T. ) ;
#818 = CARTESIAN_POINT ( 'NONE',  ( 4.949999999999999289, -5.000000000000000000, -8.400000000000002132 ) ) ;
#819 = DIRECTION ( 'NONE',  ( -1.000000000000000000, -0.0000000000000000000, 6.570922257487905063E-17 ) ) ;
#820 = ORIENTED_EDGE ( 'NONE', *, *, #1099, .T. ) ;
#821 = ORIENTED_EDGE ( 'NONE', *, *, #420, .T. ) ;
#822 = FACE_OUTER_BOUND ( 'NONE', #913, .T. ) ;
#823 = ORIENTED_EDGE ( 'NONE', *, *, #868, .F. ) ;
#824 = AXIS2_PLACEMENT_3D ( 'NONE', #233, #686, #866 ) ;
#825 = CARTESIAN_POINT ( 'NONE',  ( 4.949999999999999289, 0.0000000000000000000, -8.400000000000000355 ) ) ;
#826 = FACE_OUTER_BOUND ( 'NONE', #953, .T. ) ;
#827 = DIRECTION ( 'NONE',  ( 1.000000000000000000, 0.0000000000000000000, 0.0000000000000000000 ) ) ;
#828 = DIRECTION ( 'NONE',  ( -1.000000000000000000, -0.0000000000000000000, -0.0000000000000000000 ) ) ;
#829 = EDGE_CURVE ( 'NONE', #65, #1162, #1019, .T. ) ;
#830 = EDGE_CURVE ( 'NONE', #565, #812, #937, .T. ) ;
#831 = ORIENTED_EDGE ( 'NONE', *, *, #276, .F. ) ;
#832 = VECTOR ( 'NONE', #265, 1000.000000000000000 ) ;
#833 = EDGE_CURVE ( 'NONE', #1074, #659, #1107, .T. ) ;
#834 = VECTOR ( 'NONE', #488, 1000.000000000000000 ) ;
#835 = ORIENTED_EDGE ( 'NONE', *, *, #833, .T. ) ;
#836 = DIRECTION ( 'NONE',  ( -1.000000000000000000, -0.0000000000000000000, 6.570922257487903830E-17 ) ) ;
#837 = VECTOR ( 'NONE', #896, 1000.000000000000000 ) ;
#838 = AXIS2_PLACEMENT_3D ( 'NONE', #959, #75, #349 ) ;
#839 = DIRECTION ( 'NONE',  ( -1.734723475976807094E-16, 1.000000000000000000, 0.0000000000000000000 ) ) ;
#840 = AXIS2_PLACEMENT_3D ( 'NONE', #286, #1022, #289 ) ;
#841 = CARTESIAN_POINT ( 'NONE',  ( 4.949999999999999289, -5.000000000000000000, 8.400000000000002132 ) ) ;
#842 = EDGE_LOOP ( 'NONE', ( #297, #1156, #807, #852 ) ) ;
#843 = LINE ( 'NONE', #1158, #1 ) ;
#844 = VERTEX_POINT ( 'NONE', #777 ) ;
#845 = DATE_TIME_ROLE ( 'creation_date' ) ;
#846 = VECTOR ( 'NONE', #828, 1000.000000000000000 ) ;
#847 = ORIENTED_EDGE ( 'NONE', *, *, #1016, .T. ) ;
#848 = EDGE_CURVE ( 'NONE', #397, #1137, #712, .T. ) ;
#849 = PLANE ( 'NONE',  #201 ) ;
#850 = LINE ( 'NONE', #275, #421 ) ;
#851 = AXIS2_PLACEMENT_3D ( 'NONE', #72, #1069, #423 ) ;
#852 = ORIENTED_EDGE ( 'NONE', *, *, #785, .T. ) ;
#853 = DIRECTION ( 'NONE',  ( -1.000000000000000000, 0.0000000000000000000, 0.0000000000000000000 ) ) ;
#854 = DIRECTION ( 'NONE',  ( 0.0000000000000000000, -1.000000000000000000, 0.0000000000000000000 ) ) ;
#855 = DIRECTION ( 'NONE',  ( 1.734723475976807094E-16, -1.000000000000000000, 0.0000000000000000000 ) ) ;
#856 = CARTESIAN_POINT ( 'NONE',  ( 6.449999999999999289, -0.2999999999999999889, 6.600000000000001421 ) ) ;
#857 = EDGE_LOOP ( 'NONE', ( #771, #469, #776, #792 ) ) ;
#858 = AXIS2_PLACEMENT_3D ( 'NONE', #413, #158, #329 ) ;
#859 = ORIENTED_EDGE ( 'NONE', *, *, #997, .F. ) ;
#860 = CALENDAR_DATE ( 2020, 13, 10 ) ;
#861 = CARTESIAN_POINT ( 'NONE',  ( -6.449999999999999289, -5.204170427930421283E-17, -6.600000000000000533 ) ) ;
#862 = CARTESIAN_POINT ( 'NONE',  ( -6.749999999999999112, 0.0000000000000000000, -6.600000000000000533 ) ) ;
#863 = VECTOR ( 'NONE', #133, 1000.000000000000000 ) ;
#864 = VECTOR ( 'NONE', #1083, 1000.000000000000000 ) ;
#865 = ORIENTED_EDGE ( 'NONE', *, *, #301, .F. ) ;
#866 = DIRECTION ( 'NONE',  ( 0.0000000000000000000, 0.0000000000000000000, 1.000000000000000000 ) ) ;
#867 = AXIS2_PLACEMENT_3D ( 'NONE', #363, #364, #1087 ) ;
#868 = EDGE_CURVE ( 'NONE', #62, #84, #555, .T. ) ;
#869 = DIRECTION ( 'NONE',  ( -0.0000000000000000000, 1.000000000000000000, -0.0000000000000000000 ) ) ;
#870 = LOCAL_TIME ( 12, 45, 49.00000000000000000, #904 ) ;
#871 = ORIENTED_EDGE ( 'NONE', *, *, #406, .F. ) ;
#872 = LINE ( 'NONE', #59, #70 ) ;
#873 = ORIENTED_EDGE ( 'NONE', *, *, #1012, .T. ) ;
#874 = DIRECTION ( 'NONE',  ( -1.000000000000000000, 0.0000000000000000000, 0.0000000000000000000 ) ) ;
#875 = CIRCLE ( 'NONE', #584, 1.000000000000000000 ) ;
#876 = CIRCLE ( 'NONE', #723, 0.8000000000000003775 ) ;
#877 = VERTEX_POINT ( 'NONE', #586 ) ;
#878 = DIRECTION ( 'NONE',  ( -1.000000000000000000, -1.734723475976807094E-16, -6.570922257487903830E-17 ) ) ;
#879 = DIRECTION ( 'NONE',  ( 0.0000000000000000000, -1.000000000000000000, 0.0000000000000000000 ) ) ;
#880 = AXIS2_PLACEMENT_3D ( 'NONE', #1067, #442, #995 ) ;
#881 = ADVANCED_FACE ( 'NONE', ( #611 ), #103, .T. ) ;
#882 = DIRECTION ( 'NONE',  ( 1.000000000000000000, 0.0000000000000000000, 9.637352644315596722E-16 ) ) ;
#883 = CARTESIAN_POINT ( 'NONE',  ( 6.750000000000000000, -5.000000000000000000, 6.600000000000001421 ) ) ;
#884 = EDGE_LOOP ( 'NONE', ( #487, #432, #772, #291 ) ) ;
#885 = ADVANCED_FACE ( 'NONE', ( #1145 ), #380, .F. ) ;
#886 = LOCAL_TIME ( 12, 45, 49.00000000000000000, #605 ) ;
#887 = CARTESIAN_POINT ( 'NONE',  ( -4.950000000000003730, -0.2999999999999999334, 7.400000000000002132 ) ) ;
#888 = AXIS2_PLACEMENT_3D ( 'NONE', #1101, #461, #110 ) ;
#889 = ORIENTED_EDGE ( 'NONE', *, *, #589, .T. ) ;
#890 = CYLINDRICAL_SURFACE ( 'NONE', #1142, 1.799999999999999600 ) ;
#891 = LINE ( 'NONE', #50, #20 ) ;
#892 = ORIENTED_EDGE ( 'NONE', *, *, #86, .F. ) ;
#893 = LINE ( 'NONE', #112, #1047 ) ;
#894 = EDGE_LOOP ( 'NONE', ( #626, #241, #847, #956 ) ) ;
#895 = CARTESIAN_POINT ( 'NONE',  ( -4.950000000000002842, 0.0000000000000000000, -6.600000000000001421 ) ) ;
#896 = DIRECTION ( 'NONE',  ( -0.0000000000000000000, -1.734723475976807094E-16, -1.000000000000000000 ) ) ;
#897 = ADVANCED_FACE ( 'NONE', ( #407 ), #335, .T. ) ;
#898 = EDGE_CURVE ( 'NONE', #625, #659, #775, .T. ) ;
#899 = DIRECTION ( 'NONE',  ( 0.0000000000000000000, 0.0000000000000000000, 1.000000000000000000 ) ) ;
#900 = DIRECTION ( 'NONE',  ( 0.0000000000000000000, 0.0000000000000000000, 1.000000000000000000 ) ) ;
#901 = ADVANCED_FACE ( 'NONE', ( #141 ), #492, .F. ) ;
#902 = DIRECTION ( 'NONE',  ( -0.0000000000000000000, 1.000000000000000000, -0.0000000000000000000 ) ) ;
#903 = EDGE_CURVE ( 'NONE', #336, #1162, #872, .T. ) ;
#904 = COORDINATED_UNIVERSAL_TIME_OFFSET ( 2, 0, .AHEAD. ) ;
#905 = CARTESIAN_POINT ( 'NONE',  ( 4.949999999999999289, -5.000000000000000000, -6.600000000000001421 ) ) ;
#906 = CYLINDRICAL_SURFACE ( 'NONE', #880, 1.499999999999999556 ) ;
#907 = AXIS2_PLACEMENT_3D ( 'NONE', #1102, #114, #1023 ) ;
#908 = ORIENTED_EDGE ( 'NONE', *, *, #1127, .F. ) ;
#909 = CARTESIAN_POINT ( 'NONE',  ( -4.950000000000002842, -1.000000000000000000, -6.600000000000001421 ) ) ;
#910 = VECTOR ( 'NONE', #83, 1000.000000000000000 ) ;
#911 = CARTESIAN_POINT ( 'NONE',  ( -6.449999999999999289, -0.9999999999999997780, 6.600000000000002309 ) ) ;
#912 = VERTEX_POINT ( 'NONE', #323 ) ;
#913 = EDGE_LOOP ( 'NONE', ( #1089, #192, #273, #142 ) ) ;
#914 = CARTESIAN_POINT ( 'NONE',  ( -4.950000000000002842, -1.000000000000000000, 6.600000000000001421 ) ) ;
#915 = DIRECTION ( 'NONE',  ( -1.734723475976807094E-16, -1.000000000000000000, 0.0000000000000000000 ) ) ;
#916 = EDGE_CURVE ( 'NONE', #1165, #1137, #624, .T. ) ;
#917 = APPLICATION_PROTOCOL_DEFINITION ( 'international standard', 'config_control_design', 1994, #1013 ) ;
#918 = ORIENTED_EDGE ( 'NONE', *, *, #41, .T. ) ;
#919 = APPROVAL_PERSON_ORGANIZATION ( #478, #751, #946 ) ;
#920 = DIRECTION ( 'NONE',  ( 0.0000000000000000000, -8.673617379884043361E-16, -1.000000000000000000 ) ) ;
#921 = ORIENTED_EDGE ( 'NONE', *, *, #652, .T. ) ;
#922 = APPROVAL_DATE_TIME ( #1160, #802 ) ;
#923 = CIRCLE ( 'NONE', #574, 0.7999999999999986011 ) ;
#924 = ORIENTED_EDGE ( 'NONE', *, *, #898, .F. ) ;
#925 = CARTESIAN_POINT ( 'NONE',  ( -6.750000000000000888, -5.000000000000000000, -6.600000000000000533 ) ) ;
#926 = AXIS2_PLACEMENT_3D ( 'NONE', #436, #91, #77 ) ;
#927 = CIRCLE ( 'NONE', #61, 0.7999999999999986011 ) ;
#928 = DIRECTION ( 'NONE',  ( -0.0000000000000000000, 1.000000000000000000, -0.0000000000000000000 ) ) ;
#929 = ORIENTED_EDGE ( 'NONE', *, *, #936, .F. ) ;
#930 = APPLICATION_PROTOCOL_DEFINITION ( 'international standard', 'config_control_design', 1994, #203 ) ;
#931 = CARTESIAN_POINT ( 'NONE',  ( 5.750000000000000000, -1.000000000000000000, 6.600000000000001421 ) ) ;
#932 = AXIS2_PLACEMENT_3D ( 'NONE', #444, #164, #1072 ) ;
#933 = CARTESIAN_POINT ( 'NONE',  ( -4.950000000000002842, -1.000000000000000000, -7.400000000000002132 ) ) ;
#934 = ORIENTED_EDGE ( 'NONE', *, *, #28, .T. ) ;
#935 = SECURITY_CLASSIFICATION_LEVEL ( 'unclassified' ) ;
#936 = EDGE_CURVE ( 'NONE', #45, #969, #1077, .T. ) ;
#937 = LINE ( 'NONE', #242, #1046 ) ;
#938 = ORIENTED_EDGE ( 'NONE', *, *, #205, .F. ) ;
#939 = CARTESIAN_POINT ( 'NONE',  ( 6.750000000000000000, -5.000000000000000000, 6.600000000000001421 ) ) ;
#940 = LINE ( 'NONE', #939, #338 ) ;
#941 = CARTESIAN_POINT ( 'NONE',  ( 4.949999999999999289, -5.000000000000000000, 6.600000000000001421 ) ) ;
#942 = PERSON_AND_ORGANIZATION_ROLE ( 'design_supplier' ) ;
#943 = ORIENTED_EDGE ( 'NONE', *, *, #415, .F. ) ;
#944 = DIRECTION ( 'NONE',  ( -1.000000000000000000, -0.0000000000000000000, -0.0000000000000000000 ) ) ;
#945 = DIRECTION ( 'NONE',  ( -0.0000000000000000000, 1.000000000000000000, -0.0000000000000000000 ) ) ;
#946 = APPROVAL_ROLE ( '' ) ;
#947 = CARTESIAN_POINT ( 'NONE',  ( 4.949999999999999289, -5.000000000000000000, 8.400000000000002132 ) ) ;
#948 = AXIS2_PLACEMENT_3D ( 'NONE', #534, #721, #630 ) ;
#949 = CARTESIAN_POINT ( 'NONE',  ( -6.749999999999999112, 0.0000000000000000000, -6.600000000000000533 ) ) ;
#950 = ORIENTED_EDGE ( 'NONE', *, *, #954, .F. ) ;
#951 = CALENDAR_DATE ( 2020, 13, 10 ) ;
#952 = FACE_OUTER_BOUND ( 'NONE', #578, .T. ) ;
#953 = EDGE_LOOP ( 'NONE', ( #970, #251, #52, #1150 ) ) ;
#954 = EDGE_CURVE ( 'NONE', #1033, #1135, #152, .T. ) ;
#955 = DIRECTION ( 'NONE',  ( 0.0000000000000000000, 0.0000000000000000000, 1.000000000000000000 ) ) ;
#956 = ORIENTED_EDGE ( 'NONE', *, *, #848, .T. ) ;
#957 = AXIS2_PLACEMENT_3D ( 'NONE', #736, #377, #1109 ) ;
#958 = ADVANCED_FACE ( 'NONE', ( #293 ), #681, .T. ) ;
#959 = CARTESIAN_POINT ( 'NONE',  ( -5.750000000000001776, -1.000000000000000000, -6.600000000000001421 ) ) ;
#960 = EDGE_CURVE ( 'NONE', #67, #1119, #467, .T. ) ;
#961 = ORIENTED_EDGE ( 'NONE', *, *, #660, .F. ) ;
#962 = AXIS2_PLACEMENT_3D ( 'NONE', #600, #425, #525 ) ;
#963 = LINE ( 'NONE', #259, #490 ) ;
#964 = DIRECTION ( 'NONE',  ( 0.0000000000000000000, 0.0000000000000000000, 1.000000000000000000 ) ) ;
#965 = LINE ( 'NONE', #856, #266 ) ;
#966 = ORIENTED_EDGE ( 'NONE', *, *, #205, .T. ) ;
#967 = EDGE_CURVE ( 'NONE', #1096, #763, #324, .T. ) ;
#968 = VECTOR ( 'NONE', #400, 1000.000000000000000 ) ;
#969 = VERTEX_POINT ( 'NONE', #493 ) ;
#970 = ORIENTED_EDGE ( 'NONE', *, *, #916, .F. ) ;
#971 = AXIS2_PLACEMENT_3D ( 'NONE', #577, #54, #753 ) ;
#972 = EDGE_CURVE ( 'NONE', #1119, #912, #1090, .T. ) ;
#973 = ORIENTED_EDGE ( 'NONE', *, *, #997, .T. ) ;
#974 = ADVANCED_FACE ( 'NONE', ( #526 ), #1056, .T. ) ;
#975 = DIRECTION ( 'NONE',  ( 0.0000000000000000000, -1.000000000000000000, 0.0000000000000000000 ) ) ;
#976 = AXIS2_PLACEMENT_3D ( 'NONE', #986, #258, #806 ) ;
#977 = CARTESIAN_POINT ( 'NONE',  ( -6.450000000000001954, -0.9999999999999997780, -6.600000000000001421 ) ) ;
#978 = EDGE_LOOP ( 'NONE', ( #685, #74, #609, #509 ) ) ;
#979 = CIRCLE ( 'NONE', #1084, 0.7000000000000000666 ) ;
#980 = CARTESIAN_POINT ( 'NONE',  ( 4.949999999999999289, -0.9999999999999997780, -8.100000000000001421 ) ) ;
#981 = CIRCLE ( 'NONE', #1112, 0.7000000000000000666 ) ;
#982 = VECTOR ( 'NONE', #915, 1000.000000000000000 ) ;
#983 = ADVANCED_FACE ( 'NONE', ( #237 ), #906, .F. ) ;
#984 = ORIENTED_EDGE ( 'NONE', *, *, #86, .T. ) ;
#985 = DIRECTION ( 'NONE',  ( 0.0000000000000000000, -1.000000000000000000, 0.0000000000000000000 ) ) ;
#986 = CARTESIAN_POINT ( 'NONE',  ( -5.750000000000000000, -1.000000000000000000, -6.600000000000001421 ) ) ;
#987 = AXIS2_PLACEMENT_3D ( 'NONE', #79, #168, #705 ) ;
#988 = ADVANCED_FACE ( 'NONE', ( #446 ), #209, .T. ) ;
#989 = EDGE_CURVE ( 'NONE', #62, #1162, #843, .T. ) ;
#990 = DIRECTION ( 'NONE',  ( 1.000000000000000000, -0.0000000000000000000, -6.570922257487903830E-17 ) ) ;
#991 = ADVANCED_FACE ( 'NONE', ( #1032 ), #1076, .F. ) ;
#992 = FACE_OUTER_BOUND ( 'NONE', #790, .T. ) ;
#993 = ORIENTED_EDGE ( 'NONE', *, *, #507, .F. ) ;
#994 = CIRCLE ( 'NONE', #888, 1.499999999999998668 ) ;
#995 = DIRECTION ( 'NONE',  ( 0.0000000000000000000, 0.0000000000000000000, 1.000000000000000000 ) ) ;
#996 = CARTESIAN_POINT ( 'NONE',  ( 6.450000000000000178, -0.9999999999999997780, -6.600000000000001421 ) ) ;
#997 = EDGE_CURVE ( 'NONE', #969, #844, #682, .T. ) ;
#998 = CARTESIAN_POINT ( 'NONE',  ( 5.750000000000000000, 0.0000000000000000000, 6.600000000000001421 ) ) ;
#999 = CARTESIAN_POINT ( 'NONE',  ( -5.750000000000000000, -1.000000000000000000, 6.600000000000001421 ) ) ;
#1000 =( LENGTH_UNIT ( ) NAMED_UNIT ( * ) SI_UNIT ( .MILLI., .METRE. ) );
#1001 = ORIENTED_EDGE ( 'NONE', *, *, #678, .F. ) ;
#1002 = CARTESIAN_POINT ( 'NONE',  ( -6.449999999999999289, -5.204170427930421283E-17, 6.600000000000002309 ) ) ;
#1003 = CARTESIAN_POINT ( 'NONE',  ( 0.0000000000000000000, 0.0000000000000000000, 0.0000000000000000000 ) ) ;
#1004 = ORIENTED_EDGE ( 'NONE', *, *, #589, .F. ) ;
#1005 = LINE ( 'NONE', #1026, #834 ) ;
#1006 = AXIS2_PLACEMENT_3D ( 'NONE', #502, #975, #417 ) ;
#1007 = CYLINDRICAL_SURFACE ( 'NONE', #907, 1.000000000000000000 ) ;
#1008 = LINE ( 'NONE', #704, #612 ) ;
#1009 = VERTEX_POINT ( 'NONE', #1166 ) ;
#1010 = CARTESIAN_POINT ( 'NONE',  ( 4.949999999999999289, -0.9999999999999997780, -8.400000000000000355 ) ) ;
#1011 = DIRECTION ( 'NONE',  ( 0.0000000000000000000, 1.734723475976807094E-16, 1.000000000000000000 ) ) ;
#1012 = EDGE_CURVE ( 'NONE', #715, #812, #278, .T. ) ;
#1013 = APPLICATION_CONTEXT ( 'configuration controlled 3d designs of mechanical parts and assemblies' ) ;
#1014 = DIRECTION ( 'NONE',  ( -0.0000000000000000000, 1.000000000000000000, -0.0000000000000000000 ) ) ;
#1015 = DIRECTION ( 'NONE',  ( -1.000000000000000000, 0.0000000000000000000, 0.0000000000000000000 ) ) ;
#1016 = EDGE_CURVE ( 'NONE', #84, #397, #46, .T. ) ;
#1017 = CARTESIAN_POINT ( 'NONE',  ( -4.950000000000002842, -5.204170427930421283E-17, 8.100000000000001421 ) ) ;
#1018 = ORIENTED_EDGE ( 'NONE', *, *, #1051, .T. ) ;
#1019 = LINE ( 'NONE', #1039, #863 ) ;
#1020 = AXIS2_PLACEMENT_3D ( 'NONE', #1086, #985, #430 ) ;
#1021 = TOROIDAL_SURFACE ( 'NONE', #1154, 0.7999999999999986011, 0.7000000000000000666 ) ;
#1022 = DIRECTION ( 'NONE',  ( -0.0000000000000000000, 1.000000000000000000, -0.0000000000000000000 ) ) ;
#1023 = DIRECTION ( 'NONE',  ( 0.0000000000000000000, 0.0000000000000000000, -1.000000000000000000 ) ) ;
#1024 = AXIS2_PLACEMENT_3D ( 'NONE', #1117, #475, #471 ) ;
#1025 = APPROVAL_STATUS ( 'not_yet_approved' ) ;
#1026 = CARTESIAN_POINT ( 'NONE',  ( 6.749999999999999112, -0.9999999999999997780, 6.600000000000001421 ) ) ;
#1027 = DIRECTION ( 'NONE',  ( -1.000000000000000000, 1.734723475976807094E-16, 0.0000000000000000000 ) ) ;
#1028 = ORIENTED_EDGE ( 'NONE', *, *, #235, .F. ) ;
#1029 = EDGE_LOOP ( 'NONE', ( #404, #859, #929, #744, #350, #950, #585, #892 ) ) ;
#1030 = EDGE_CURVE ( 'NONE', #1033, #84, #710, .T. ) ;
#1031 = ORIENTED_EDGE ( 'NONE', *, *, #498, .T. ) ;
#1032 = FACE_OUTER_BOUND ( 'NONE', #894, .T. ) ;
#1033 = VERTEX_POINT ( 'NONE', #804 ) ;
#1034 = CARTESIAN_POINT ( 'NONE',  ( 4.949999999999998401, 0.0000000000000000000, 7.400000000000002132 ) ) ;
#1035 = CIRCLE ( 'NONE', #756, 1.499999999999998668 ) ;
#1036 = EDGE_CURVE ( 'NONE', #543, #128, #610, .T. ) ;
#1037 = TOROIDAL_SURFACE ( 'NONE', #510, 0.8000000000000003775, 1.000000000000000000 ) ;
#1038 = EDGE_LOOP ( 'NONE', ( #786, #321, #597, #393 ) ) ;
#1039 = CARTESIAN_POINT ( 'NONE',  ( 6.450000000000000178, -5.000000000000000000, 6.600000000000001421 ) ) ;
#1040 = DIRECTION ( 'NONE',  ( -0.0000000000000000000, 1.000000000000000000, -0.0000000000000000000 ) ) ;
#1041 = ADVANCED_FACE ( 'NONE', ( #669 ), #348, .T. ) ;
#1042 = CARTESIAN_POINT ( 'NONE',  ( 5.750000000000000888, -0.2999999999999999334, -6.600000000000001421 ) ) ;
#1043 = AXIS2_PLACEMENT_3D ( 'NONE', #361, #253, #519 ) ;
#1044 = EDGE_LOOP ( 'NONE', ( #139, #773, #267, #32 ) ) ;
#1045 = ORIENTED_EDGE ( 'NONE', *, *, #767, .F. ) ;
#1046 = VECTOR ( 'NONE', #489, 1000.000000000000000 ) ;
#1047 = VECTOR ( 'NONE', #735, 1000.000000000000000 ) ;
#1048 = ORIENTED_EDGE ( 'NONE', *, *, #301, .T. ) ;
#1049 = AXIS2_PLACEMENT_3D ( 'NONE', #218, #227, #564 ) ;
#1050 = CARTESIAN_POINT ( 'NONE',  ( -4.950000000000002842, -5.000000000000000000, -8.400000000000002132 ) ) ;
#1051 = EDGE_CURVE ( 'NONE', #305, #691, #322, .T. ) ;
#1052 = UNCERTAINTY_MEASURE_WITH_UNIT (LENGTH_MEASURE( 1.000000000000000082E-05 ), #1000, 'distance_accuracy_value', 'NONE');
#1053 = CC_DESIGN_PERSON_AND_ORGANIZATION_ASSIGNMENT ( #524, #942, ( #603 ) ) ;
#1054 = DIRECTION ( 'NONE',  ( 0.0000000000000000000, 0.0000000000000000000, 1.000000000000000000 ) ) ;
#1055 = ORIENTED_EDGE ( 'NONE', *, *, #972, .F. ) ;
#1056 = CYLINDRICAL_SURFACE ( 'NONE', #962, 1.799999999999998712 ) ;
#1057 = EDGE_LOOP ( 'NONE', ( #781, #702, #835, #889 ) ) ;
#1058 = ADVANCED_FACE ( 'NONE', ( #728 ), #606, .T. ) ;
#1059 = CIRCLE ( 'NONE', #395, 0.8000000000000003775 ) ;
#1060 = ORIENTED_EDGE ( 'NONE', *, *, #440, .T. ) ;
#1061 = CIRCLE ( 'NONE', #223, 1.800000000000001155 ) ;
#1062 = DIRECTION ( 'NONE',  ( -0.0000000000000000000, 1.000000000000000000, -0.0000000000000000000 ) ) ;
#1063 = ORIENTED_EDGE ( 'NONE', *, *, #399, .T. ) ;
#1064 = DIRECTION ( 'NONE',  ( -0.0000000000000000000, 1.000000000000000000, -0.0000000000000000000 ) ) ;
#1065 =( GEOMETRIC_REPRESENTATION_CONTEXT ( 3 ) GLOBAL_UNCERTAINTY_ASSIGNED_CONTEXT ( ( #1052 ) ) GLOBAL_UNIT_ASSIGNED_CONTEXT ( ( #1000, #545, #726 ) ) REPRESENTATION_CONTEXT ( 'NONE', 'WORKASPACE' ) );
#1066 = DIRECTION ( 'NONE',  ( -1.000000000000000000, -0.0000000000000000000, -0.0000000000000000000 ) ) ;
#1067 = CARTESIAN_POINT ( 'NONE',  ( 4.949999999999999289, -0.2999999999999999889, -6.600000000000001421 ) ) ;
#1068 = DIRECTION ( 'NONE',  ( 0.0000000000000000000, -1.000000000000000000, 0.0000000000000000000 ) ) ;
#1069 = DIRECTION ( 'NONE',  ( -0.0000000000000000000, 1.000000000000000000, -0.0000000000000000000 ) ) ;
#1070 = EDGE_CURVE ( 'NONE', #794, #690, #963, .T. ) ;
#1071 = AXIS2_PLACEMENT_3D ( 'NONE', #300, #547, #641 ) ;
#1072 = DIRECTION ( 'NONE',  ( -1.000000000000000000, 0.0000000000000000000, 4.818676322157803291E-16 ) ) ;
#1073 = DIRECTION ( 'NONE',  ( 0.0000000000000000000, -0.0000000000000000000, -1.000000000000000000 ) ) ;
#1074 = VERTEX_POINT ( 'NONE', #622 ) ;
#1075 = DATE_AND_TIME ( #860, #140 ) ;
#1076 = PLANE ( 'NONE',  #1088 ) ;
#1077 = CIRCLE ( 'NONE', #774, 0.7999999999999986011 ) ;
#1078 = VERTEX_POINT ( 'NONE', #194 ) ;
#1079 = DIRECTION ( 'NONE',  ( 0.0000000000000000000, 0.0000000000000000000, 1.000000000000000000 ) ) ;
#1080 = CIRCLE ( 'NONE', #783, 1.499999999999997780 ) ;
#1081 = ADVANCED_FACE ( 'NONE', ( #236 ), #680, .T. ) ;
#1082 = DIRECTION ( 'NONE',  ( 1.000000000000000000, -1.734723475976807094E-16, -0.0000000000000000000 ) ) ;
#1083 = DIRECTION ( 'NONE',  ( 1.734723475976807094E-16, -1.000000000000000000, 0.0000000000000000000 ) ) ;
#1084 = AXIS2_PLACEMENT_3D ( 'NONE', #271, #115, #634 ) ;
#1085 = CARTESIAN_POINT ( 'NONE',  ( -4.950000000000003730, 0.0000000000000000000, 7.400000000000002132 ) ) ;
#1086 = CARTESIAN_POINT ( 'NONE',  ( 4.949999999999999289, -5.000000000000000000, 6.600000000000001421 ) ) ;
#1087 = DIRECTION ( 'NONE',  ( 0.0000000000000000000, 0.0000000000000000000, 1.000000000000000000 ) ) ;
#1088 = AXIS2_PLACEMENT_3D ( 'NONE', #439, #1177, #183 ) ;
#1089 = ORIENTED_EDGE ( 'NONE', *, *, #146, .F. ) ;
#1090 = CIRCLE ( 'NONE', #500, 1.000000000000000888 ) ;
#1091 = VERTEX_POINT ( 'NONE', #22 ) ;
#1092 = SECURITY_CLASSIFICATION ( '', '', #935 ) ;
#1093 = LINE ( 'NONE', #653, #494 ) ;
#1094 = DIRECTION ( 'NONE',  ( -0.0000000000000000000, 1.000000000000000000, -0.0000000000000000000 ) ) ;
#1095 = LINE ( 'NONE', #520, #864 ) ;
#1096 = VERTEX_POINT ( 'NONE', #998 ) ;
#1097 = EDGE_CURVE ( 'NONE', #45, #342, #979, .T. ) ;
#1098 = ADVANCED_BREP_SHAPE_REPRESENTATION ( 'MS168-10S', ( #515, #148 ), #1065 ) ;
#1099 = EDGE_CURVE ( 'NONE', #1091, #128, #1132, .T. ) ;
#1100 = DIRECTION ( 'NONE',  ( -0.0000000000000000000, -0.0000000000000000000, -1.000000000000000000 ) ) ;
#1101 = CARTESIAN_POINT ( 'NONE',  ( -4.950000000000002842, -5.000000000000000000, -6.600000000000001421 ) ) ;
#1102 = CARTESIAN_POINT ( 'NONE',  ( -4.950000000000003730, -1.000000000000000000, 7.400000000000002132 ) ) ;
#1103 = DIRECTION ( 'NONE',  ( 1.000000000000000000, 0.0000000000000000000, 9.637352644315592778E-16 ) ) ;
#1104 = ORIENTED_EDGE ( 'NONE', *, *, #491, .T. ) ;
#1105 = SHAPE_DEFINITION_REPRESENTATION ( #359, #1098 ) ;
#1106 = AXIS2_PLACEMENT_3D ( 'NONE', #422, #590, #1054 ) ;
#1107 = LINE ( 'NONE', #332, #809 ) ;
#1108 = ORIENTED_EDGE ( 'NONE', *, *, #1115, .T. ) ;
#1109 = DIRECTION ( 'NONE',  ( 0.0000000000000000000, 0.0000000000000000000, 1.000000000000000000 ) ) ;
#1110 = EDGE_LOOP ( 'NONE', ( #197, #34, #1045, #1060 ) ) ;
#1111 = CARTESIAN_POINT ( 'NONE',  ( -5.750000000000001776, -0.2999999999999999334, -6.600000000000001421 ) ) ;
#1112 = AXIS2_PLACEMENT_3D ( 'NONE', #134, #124, #663 ) ;
#1113 = CARTESIAN_POINT ( 'NONE',  ( -4.950000000000002842, -0.9999999999999997780, -8.100000000000001421 ) ) ;
#1114 = ORIENTED_EDGE ( 'NONE', *, *, #387, .F. ) ;
#1115 = EDGE_CURVE ( 'NONE', #336, #290, #405, .T. ) ;
#1116 = ORIENTED_EDGE ( 'NONE', *, *, #916, .T. ) ;
#1117 = CARTESIAN_POINT ( 'NONE',  ( -4.950000000000003730, -1.000000000000000000, 7.400000000000000355 ) ) ;
#1118 = ORGANIZATION ( 'UNSPECIFIED', 'UNSPECIFIED', '' ) ;
#1119 = VERTEX_POINT ( 'NONE', #733 ) ;
#1120 = LINE ( 'NONE', #316, #644 ) ;
#1121 = EDGE_LOOP ( 'NONE', ( #476, #993, #973, #25 ) ) ;
#1122 = CIRCLE ( 'NONE', #838, 0.7000000000000000666 ) ;
#1123 = CARTESIAN_POINT ( 'NONE',  ( -6.450000000000001066, -5.000000000000000000, 6.600000000000001421 ) ) ;
#1124 = CARTESIAN_POINT ( 'NONE',  ( -4.950000000000002842, 0.0000000000000000000, 8.400000000000000355 ) ) ;
#1125 = CYLINDRICAL_SURFACE ( 'NONE', #26, 1.000000000000000000 ) ;
#1126 = EDGE_LOOP ( 'NONE', ( #14, #479, #1116, #821 ) ) ;
#1127 = EDGE_CURVE ( 'NONE', #290, #90, #579, .T. ) ;
#1128 = DIRECTION ( 'NONE',  ( 0.0000000000000000000, 0.0000000000000000000, 1.000000000000000000 ) ) ;
#1129 = AXIS2_PLACEMENT_3D ( 'NONE', #392, #563, #53 ) ;
#1130 = DIRECTION ( 'NONE',  ( 0.0000000000000000000, -1.000000000000000000, 1.734723475976807094E-16 ) ) ;
#1131 = ORIENTED_EDGE ( 'NONE', *, *, #163, .F. ) ;
#1132 = CIRCLE ( 'NONE', #689, 0.9999999999999991118 ) ;
#1133 = FACE_OUTER_BOUND ( 'NONE', #1110, .T. ) ;
#1134 = AXIS2_PLACEMENT_3D ( 'NONE', #317, #1040, #562 ) ;
#1135 = VERTEX_POINT ( 'NONE', #10 ) ;
#1136 = LINE ( 'NONE', #698, #372 ) ;
#1137 = VERTEX_POINT ( 'NONE', #97 ) ;
#1138 = ORIENTED_EDGE ( 'NONE', *, *, #44, .T. ) ;
#1139 = DIRECTION ( 'NONE',  ( 0.0000000000000000000, 0.0000000000000000000, -1.000000000000000000 ) ) ;
#1140 = DIRECTION ( 'NONE',  ( -0.0000000000000000000, 1.000000000000000000, -0.0000000000000000000 ) ) ;
#1141 = EDGE_CURVE ( 'NONE', #812, #65, #119, .T. ) ;
#1142 = AXIS2_PLACEMENT_3D ( 'NONE', #281, #27, #274 ) ;
#1143 = CARTESIAN_POINT ( 'NONE',  ( -4.950000000000002842, -0.2999999999999999334, 6.600000000000001421 ) ) ;
#1144 = APPROVAL_PERSON_ORGANIZATION ( #208, #375, #216 ) ;
#1145 = FACE_OUTER_BOUND ( 'NONE', #553, .T. ) ;
#1146 = DIRECTION ( 'NONE',  ( 0.0000000000000000000, -1.000000000000000000, 0.0000000000000000000 ) ) ;
#1147 = LINE ( 'NONE', #608, #910 ) ;
#1148 = ORIENTED_EDGE ( 'NONE', *, *, #107, .F. ) ;
#1149 = AXIS2_PLACEMENT_3D ( 'NONE', #581, #707, #521 ) ;
#1150 = ORIENTED_EDGE ( 'NONE', *, *, #5, .T. ) ;
#1151 = CARTESIAN_POINT ( 'NONE',  ( -4.950000000000002842, 0.0000000000000000000, 6.600000000000001421 ) ) ;
#1152 = EDGE_CURVE ( 'NONE', #727, #1165, #621, .T. ) ;
#1153 = DIRECTION ( 'NONE',  ( -0.0000000000000000000, 1.000000000000000000, -0.0000000000000000000 ) ) ;
#1154 = AXIS2_PLACEMENT_3D ( 'NONE', #909, #1014, #8 ) ;
#1155 = DIRECTION ( 'NONE',  ( 0.0000000000000000000, 0.0000000000000000000, 1.000000000000000000 ) ) ;
#1156 = ORIENTED_EDGE ( 'NONE', *, *, #989, .F. ) ;
#1157 = ORIENTED_EDGE ( 'NONE', *, *, #186, .T. ) ;
#1158 = CARTESIAN_POINT ( 'NONE',  ( 6.450000000000000178, -5.204170427930405876E-17, -6.600000000000001421 ) ) ;
#1159 = ORIENTED_EDGE ( 'NONE', *, *, #263, .T. ) ;
#1160 = DATE_AND_TIME ( #459, #870 ) ;
#1161 = VECTOR ( 'NONE', #129, 1000.000000000000000 ) ;
#1162 = VERTEX_POINT ( 'NONE', #111 ) ;
#1163 = DIRECTION ( 'NONE',  ( -0.0000000000000000000, 1.000000000000000000, -0.0000000000000000000 ) ) ;
#1164 = CIRCLE ( 'NONE', #932, 1.799999999999997824 ) ;
#1165 = VERTEX_POINT ( 'NONE', #374 ) ;
#1166 = CARTESIAN_POINT ( 'NONE',  ( -6.749999999999999112, -0.9999999999999997780, 6.600000000000002309 ) ) ;
#1167 = CARTESIAN_POINT ( 'NONE',  ( 4.949999999999999289, -0.9999999999999997780, -8.100000000000001421 ) ) ;
#1168 = CARTESIAN_POINT ( 'NONE',  ( -4.950000000000002842, -5.000000000000000000, 8.400000000000002132 ) ) ;
#1169 = DIRECTION ( 'NONE',  ( 1.000000000000000000, -0.0000000000000000000, -0.0000000000000000000 ) ) ;
#1170 = CARTESIAN_POINT ( 'NONE',  ( 4.949999999999999289, -0.9999999999999997780, 8.100000000000001421 ) ) ;
#1171 = CARTESIAN_POINT ( 'NONE',  ( 4.949999999999999289, -1.000000000000000000, 7.400000000000002132 ) ) ;
#1172 = ADVANCED_FACE ( 'NONE', ( #643 ), #890, .T. ) ;
#1173 = DIRECTION ( 'NONE',  ( 1.000000000000000000, -0.0000000000000000000, -6.570922257487903830E-17 ) ) ;
#1174 = CARTESIAN_POINT ( 'NONE',  ( -5.750000000000000000, -0.2999999999999999334, 6.600000000000001421 ) ) ;
#1175 = LOCAL_TIME ( 12, 45, 49.00000000000000000, #466 ) ;
#1176 = ADVANCED_FACE ( 'NONE', ( #445 ), #15, .T. ) ;
#1177 = DIRECTION ( 'NONE',  ( 0.0000000000000000000, 1.734723475976807094E-16, -1.000000000000000000 ) ) ;
ENDSEC;
END-ISO-10303-21;
