ISO-10303-21;
HEADER;
FILE_DESCRIPTION (( 'STEP AP203' ),
    '1' );
FILE_NAME ('MS110-20S.step',
    '2020-10-06T07:08:34',
    ( '' ),
    ( '' ),
    'SwSTEP 2.0',
    'SolidWorks 2018',
    '' );
FILE_SCHEMA (( 'CONFIG_CONTROL_DESIGN' ));
ENDSEC;

DATA;
#1 = FACE_OUTER_BOUND ( 'NONE', #1048, .T. ) ;
#2 = CARTESIAN_POINT ( 'NONE',  ( -4.699999999999999289, -0.2999999999999999334, -3.999999999999997335 ) ) ;
#3 = DIRECTION ( 'NONE',  ( -1.000000000000000000, 0.0000000000000000000, 1.239088197126293627E-15 ) ) ;
#4 = FACE_OUTER_BOUND ( 'NONE', #738, .T. ) ;
#5 = LOCAL_TIME ( 10, 8, 34.00000000000000000, #766 ) ;
#6 = AXIS2_PLACEMENT_3D ( 'NONE', #443, #274, #794 ) ;
#7 = FACE_OUTER_BOUND ( 'NONE', #507, .T. ) ;
#8 = ORIENTED_EDGE ( 'NONE', *, *, #337, .T. ) ;
#9 = CARTESIAN_POINT ( 'NONE',  ( 3.999999999999999112, -0.7999999999999999334, 4.699999999999997513 ) ) ;
#10 = ORIENTED_EDGE ( 'NONE', *, *, #245, .F. ) ;
#11 = DIRECTION ( 'NONE',  ( -0.0000000000000000000, 1.000000000000000000, -0.0000000000000000000 ) ) ;
#12 = AXIS2_PLACEMENT_3D ( 'NONE', #499, #1057, #955 ) ;
#13 = DIRECTION ( 'NONE',  ( 0.0000000000000000000, 0.0000000000000000000, 1.000000000000000000 ) ) ;
#14 = CIRCLE ( 'NONE', #349, 0.5000000000000004441 ) ;
#15 = PERSON_AND_ORGANIZATION ( #126, #355 ) ;
#16 = LINE ( 'NONE', #776, #396 ) ;
#17 = ADVANCED_FACE ( 'NONE', ( #194 ), #546, .T. ) ;
#18 = APPLICATION_CONTEXT ( 'configuration controlled 3d designs of mechanical parts and assemblies' ) ;
#19 = EDGE_CURVE ( 'NONE', #158, #37, #304, .T. ) ;
#20 = ORIENTED_EDGE ( 'NONE', *, *, #325, .T. ) ;
#21 = AXIS2_PLACEMENT_3D ( 'NONE', #910, #352, #993 ) ;
#22 = PERSON_AND_ORGANIZATION_ROLE ( 'creator' ) ;
#23 = DIRECTION ( 'NONE',  ( 0.0000000000000000000, -0.0000000000000000000, -1.000000000000000000 ) ) ;
#24 = VERTEX_POINT ( 'NONE', #831 ) ;
#25 = ADVANCED_FACE ( 'NONE', ( #748 ), #354, .F. ) ;
#26 = SECURITY_CLASSIFICATION_LEVEL ( 'unclassified' ) ;
#27 = CARTESIAN_POINT ( 'NONE',  ( 4.700000000000000178, 0.0000000000000000000, -4.000000000000000000 ) ) ;
#28 = CARTESIAN_POINT ( 'NONE',  ( -4.000000000000000000, -6.000000000000000000, 3.999999999999998224 ) ) ;
#29 = DIRECTION ( 'NONE',  ( -0.0000000000000000000, 1.000000000000000000, -0.0000000000000000000 ) ) ;
#30 = ADVANCED_FACE ( 'NONE', ( #4 ), #745, .T. ) ;
#31 = FACE_OUTER_BOUND ( 'NONE', #203, .T. ) ;
#32 = DIRECTION ( 'NONE',  ( -0.0000000000000000000, 1.000000000000000000, -0.0000000000000000000 ) ) ;
#33 = FACE_OUTER_BOUND ( 'NONE', #753, .T. ) ;
#34 = FACE_OUTER_BOUND ( 'NONE', #1035, .T. ) ;
#35 = CARTESIAN_POINT ( 'NONE',  ( -4.000000000000000000, -0.2999999999999999889, -4.000000000000000000 ) ) ;
#36 = EDGE_CURVE ( 'NONE', #226, #795, #445, .T. ) ;
#37 = VERTEX_POINT ( 'NONE', #557 ) ;
#38 = CARTESIAN_POINT ( 'NONE',  ( 4.700000000000000178, -0.2999999999999999334, -4.000000000000000000 ) ) ;
#39 = ORIENTED_EDGE ( 'NONE', *, *, #716, .F. ) ;
#40 = ADVANCED_FACE ( 'NONE', ( #805 ), #1083, .F. ) ;
#41 = VERTEX_POINT ( 'NONE', #27 ) ;
#42 = CC_DESIGN_APPROVAL ( #1140, ( #111 ) ) ;
#43 = DIRECTION ( 'NONE',  ( -0.0000000000000000000, 1.000000000000000000, -0.0000000000000000000 ) ) ;
#44 = DIRECTION ( 'NONE',  ( 0.0000000000000000000, 0.0000000000000000000, 1.000000000000000000 ) ) ;
#45 = DIRECTION ( 'NONE',  ( 0.0000000000000000000, 0.0000000000000000000, 1.000000000000000000 ) ) ;
#46 = DIRECTION ( 'NONE',  ( -0.0000000000000000000, -0.0000000000000000000, -1.000000000000000000 ) ) ;
#47 = APPROVAL ( #1011, 'UNSPECIFIED' ) ;
#48 = VECTOR ( 'NONE', #347, 1000.000000000000000 ) ;
#49 = FACE_OUTER_BOUND ( 'NONE', #978, .T. ) ;
#50 = PLANE ( 'NONE',  #771 ) ;
#51 = EDGE_LOOP ( 'NONE', ( #1016, #310, #1100, #99, #686, #1113, #146, #568 ) ) ;
#52 = AXIS2_PLACEMENT_3D ( 'NONE', #28, #662, #863 ) ;
#53 = ORIENTED_EDGE ( 'NONE', *, *, #797, .F. ) ;
#54 = CARTESIAN_POINT ( 'NONE',  ( -4.000000000000000000, -0.2999999999999999889, 3.999999999999998224 ) ) ;
#55 = ORIENTED_EDGE ( 'NONE', *, *, #486, .F. ) ;
#56 = EDGE_CURVE ( 'NONE', #807, #125, #182, .T. ) ;
#57 = DIRECTION ( 'NONE',  ( -0.0000000000000000000, 1.000000000000000000, -0.0000000000000000000 ) ) ;
#58 = VECTOR ( 'NONE', #383, 1000.000000000000000 ) ;
#59 = DIRECTION ( 'NONE',  ( 0.0000000000000000000, 0.0000000000000000000, 1.000000000000000000 ) ) ;
#60 = FACE_OUTER_BOUND ( 'NONE', #597, .T. ) ;
#61 = AXIS2_PLACEMENT_3D ( 'NONE', #417, #601, #504 ) ;
#62 = CALENDAR_DATE ( 2020, 6, 10 ) ;
#63 = EDGE_CURVE ( 'NONE', #810, #1060, #503, .T. ) ;
#64 = ORIENTED_EDGE ( 'NONE', *, *, #700, .F. ) ;
#65 = DIRECTION ( 'NONE',  ( 1.000000000000000000, -0.0000000000000000000, -0.0000000000000000000 ) ) ;
#66 = EDGE_LOOP ( 'NONE', ( #645, #639, #570, #964 ) ) ;
#67 = ORIENTED_EDGE ( 'NONE', *, *, #552, .T. ) ;
#68 = AXIS2_PLACEMENT_3D ( 'NONE', #923, #98, #363 ) ;
#69 = ORIENTED_EDGE ( 'NONE', *, *, #734, .T. ) ;
#70 = DIRECTION ( 'NONE',  ( -1.000000000000000000, -1.734723475976805517E-15, 1.734723475976805517E-15 ) ) ;
#71 = DIRECTION ( 'NONE',  ( -1.000000000000000000, 1.445602896647339163E-16, 0.0000000000000000000 ) ) ;
#72 = EDGE_CURVE ( 'NONE', #640, #839, #366, .T. ) ;
#73 = DIRECTION ( 'NONE',  ( 1.000000000000000000, -1.445602896647339163E-16, -0.0000000000000000000 ) ) ;
#74 = DIRECTION ( 'NONE',  ( -1.000000000000000000, -1.445602896647339163E-16, -1.084202172485504681E-16 ) ) ;
#75 = DIRECTION ( 'NONE',  ( 1.084202172485504681E-16, -0.0000000000000000000, -1.000000000000000000 ) ) ;
#76 = LINE ( 'NONE', #997, #984 ) ;
#77 = COORDINATED_UNIVERSAL_TIME_OFFSET ( 2, 0, .AHEAD. ) ;
#78 = DIRECTION ( 'NONE',  ( 1.000000000000000000, -0.0000000000000000000, -0.0000000000000000000 ) ) ;
#79 = DIRECTION ( 'NONE',  ( 0.0000000000000000000, 0.0000000000000000000, 1.000000000000000000 ) ) ;
#80 = LINE ( 'NONE', #958, #434 ) ;
#81 = VERTEX_POINT ( 'NONE', #465 ) ;
#82 = EDGE_LOOP ( 'NONE', ( #1033, #618, #296, #511 ) ) ;
#83 = CARTESIAN_POINT ( 'NONE',  ( 4.699999999999999289, -0.2999999999999999889, 3.999999999999998224 ) ) ;
#84 = EDGE_CURVE ( 'NONE', #839, #398, #563, .T. ) ;
#85 = ORIENTED_EDGE ( 'NONE', *, *, #1136, .T. ) ;
#86 = CARTESIAN_POINT ( 'NONE',  ( 3.999999999999997335, -0.7999999999999999334, -4.699999999999999289 ) ) ;
#87 = PLANE ( 'NONE',  #1121 ) ;
#88 = AXIS2_PLACEMENT_3D ( 'NONE', #830, #726, #201 ) ;
#89 = CARTESIAN_POINT ( 'NONE',  ( -5.200000000000001066, -6.000000000000000000, -3.999999999999997335 ) ) ;
#90 = DIRECTION ( 'NONE',  ( 0.0000000000000000000, 1.000000000000000000, 1.445602896647339163E-16 ) ) ;
#91 = FACE_OUTER_BOUND ( 'NONE', #631, .T. ) ;
#92 = AXIS2_PLACEMENT_3D ( 'NONE', #547, #454, #376 ) ;
#93 = CIRCLE ( 'NONE', #833, 0.5000000000000004441 ) ;
#94 = PERSON_AND_ORGANIZATION ( #126, #355 ) ;
#95 = CARTESIAN_POINT ( 'NONE',  ( 3.999999999999997335, -0.2999999999999999334, -4.699999999999999289 ) ) ;
#96 = ORIENTED_EDGE ( 'NONE', *, *, #224, .T. ) ;
#97 = ORIENTED_EDGE ( 'NONE', *, *, #1114, .F. ) ;
#98 = DIRECTION ( 'NONE',  ( -0.0000000000000000000, -0.0000000000000000000, 1.000000000000000000 ) ) ;
#99 = ORIENTED_EDGE ( 'NONE', *, *, #1106, .F. ) ;
#100 = EDGE_CURVE ( 'NONE', #24, #657, #532, .T. ) ;
#101 = PERSON_AND_ORGANIZATION_ROLE ( 'design_supplier' ) ;
#102 = CARTESIAN_POINT ( 'NONE',  ( 5.500000000000001776, -6.000000000000000000, -4.000000000000000000 ) ) ;
#103 = DIRECTION ( 'NONE',  ( -0.0000000000000000000, 1.000000000000000000, -0.0000000000000000000 ) ) ;
#104 = CC_DESIGN_PERSON_AND_ORGANIZATION_ASSIGNMENT ( #279, #101, ( #111 ) ) ;
#105 = EDGE_CURVE ( 'NONE', #600, #228, #433, .T. ) ;
#106 = CARTESIAN_POINT ( 'NONE',  ( -5.500000000000000000, 0.0000000000000000000, -3.999999999999997335 ) ) ;
#107 = TOROIDAL_SURFACE ( 'NONE', #690, 0.6999999999999992895, 0.5000000000000000000 ) ;
#108 = CALENDAR_DATE ( 2020, 6, 10 ) ;
#109 = CIRCLE ( 'NONE', #1177, 0.8000000000000003775 ) ;
#110 = VERTEX_POINT ( 'NONE', #309 ) ;
#111 = PRODUCT_DEFINITION_FORMATION_WITH_SPECIFIED_SOURCE ( 'ANY', '', #837, .NOT_KNOWN. ) ;
#112 = ORIENTED_EDGE ( 'NONE', *, *, #744, .T. ) ;
#113 = ADVANCED_FACE ( 'NONE', ( #209 ), #393, .T. ) ;
#114 = ORIENTED_EDGE ( 'NONE', *, *, #865, .T. ) ;
#115 = DIRECTION ( 'NONE',  ( -1.000000000000000000, -0.0000000000000000000, -0.0000000000000000000 ) ) ;
#116 = CARTESIAN_POINT ( 'NONE',  ( -4.000000000000000000, 0.0000000000000000000, -4.000000000000000000 ) ) ;
#117 = AXIS2_PLACEMENT_3D ( 'NONE', #1176, #177, #79 ) ;
#118 = ADVANCED_FACE ( 'NONE', ( #33 ), #1119, .T. ) ;
#119 = CARTESIAN_POINT ( 'NONE',  ( 4.700000000000000178, -0.7999999999999999334, -4.000000000000000000 ) ) ;
#120 = FACE_OUTER_BOUND ( 'NONE', #1161, .T. ) ;
#121 = CYLINDRICAL_SURFACE ( 'NONE', #569, 1.199999999999999734 ) ;
#122 = CALENDAR_DATE ( 2020, 6, 10 ) ;
#123 = CARTESIAN_POINT ( 'NONE',  ( 3.999999999999997335, -0.7999999999999998224, -5.500000000000000000 ) ) ;
#124 = ADVANCED_FACE ( 'NONE', ( #973 ), #223, .T. ) ;
#125 = VERTEX_POINT ( 'NONE', #857 ) ;
#126 = PERSON ( 'UNSPECIFIED', 'UNSPECIFIED', 'UNSPECIFIED', ('UNSPECIFIED'), ('UNSPECIFIED'), ('UNSPECIFIED') ) ;
#127 = AXIS2_PLACEMENT_3D ( 'NONE', #721, #281, #204 ) ;
#128 = ORIENTED_EDGE ( 'NONE', *, *, #105, .T. ) ;
#129 = DIRECTION ( 'NONE',  ( -1.000000000000000000, 1.761828530288943916E-15, 0.0000000000000000000 ) ) ;
#130 = CARTESIAN_POINT ( 'NONE',  ( 3.999999999999997335, -0.7999999999999999334, -4.699999999999999289 ) ) ;
#131 = VERTEX_POINT ( 'NONE', #665 ) ;
#132 = ADVANCED_FACE ( 'NONE', ( #60 ), #121, .F. ) ;
#133 = DIRECTION ( 'NONE',  ( 0.0000000000000000000, 0.0000000000000000000, 1.000000000000000000 ) ) ;
#134 = CARTESIAN_POINT ( 'NONE',  ( 3.999999999999999112, -0.2999999999999999334, 4.699999999999999289 ) ) ;
#135 = DIRECTION ( 'NONE',  ( 0.0000000000000000000, 0.0000000000000000000, 1.000000000000000000 ) ) ;
#136 = DIRECTION ( 'NONE',  ( 1.734723475976808672E-15, -1.734723475976808672E-15, 1.000000000000000000 ) ) ;
#137 = FACE_OUTER_BOUND ( 'NONE', #147, .T. ) ;
#138 = DIRECTION ( 'NONE',  ( -0.0000000000000000000, 1.000000000000000000, -0.0000000000000000000 ) ) ;
#139 = LINE ( 'NONE', #1037, #1152 ) ;
#140 = DIRECTION ( 'NONE',  ( -0.0000000000000000000, -0.0000000000000000000, 1.000000000000000000 ) ) ;
#141 = DATE_AND_TIME ( #472, #816 ) ;
#142 = CIRCLE ( 'NONE', #234, 0.6999999999999992895 ) ;
#143 = AXIS2_PLACEMENT_3D ( 'NONE', #582, #57, #1051 ) ;
#144 = ORIENTED_EDGE ( 'NONE', *, *, #1005, .T. ) ;
#145 = DIRECTION ( 'NONE',  ( -0.0000000000000000000, 1.000000000000000000, -0.0000000000000000000 ) ) ;
#146 = ORIENTED_EDGE ( 'NONE', *, *, #63, .F. ) ;
#147 = EDGE_LOOP ( 'NONE', ( #368, #283, #114, #1157 ) ) ;
#148 = EDGE_CURVE ( 'NONE', #795, #556, #139, .T. ) ;
#149 = ORIENTED_EDGE ( 'NONE', *, *, #960, .T. ) ;
#150 = DIRECTION ( 'NONE',  ( 1.000000000000000000, -0.0000000000000000000, -0.0000000000000000000 ) ) ;
#151 = PLANE ( 'NONE',  #431 ) ;
#152 = FACE_OUTER_BOUND ( 'NONE', #312, .T. ) ;
#153 = CIRCLE ( 'NONE', #294, 0.8000000000000003775 ) ;
#154 = CIRCLE ( 'NONE', #1117, 0.6999999999999992895 ) ;
#155 = CARTESIAN_POINT ( 'NONE',  ( -5.199999999999998401, -0.2999999999999999889, -3.999999999999998224 ) ) ;
#156 = ORIENTED_EDGE ( 'NONE', *, *, #56, .F. ) ;
#157 = AXIS2_PLACEMENT_3D ( 'NONE', #106, #728, #202 ) ;
#158 = VERTEX_POINT ( 'NONE', #957 ) ;
#159 = VERTEX_POINT ( 'NONE', #576 ) ;
#160 = CARTESIAN_POINT ( 'NONE',  ( -3.999999999999997335, 0.0000000000000000000, 4.699999999999999289 ) ) ;
#161 = EDGE_CURVE ( 'NONE', #1060, #159, #93, .T. ) ;
#162 = CARTESIAN_POINT ( 'NONE',  ( -4.000000000000000000, -0.7999999999999999334, -4.000000000000000000 ) ) ;
#163 = VECTOR ( 'NONE', #481, 1000.000000000000000 ) ;
#164 = CARTESIAN_POINT ( 'NONE',  ( -4.699999999999997513, -0.2999999999999999334, -3.999999999999997335 ) ) ;
#165 = LINE ( 'NONE', #155, #1097 ) ;
#166 = APPROVAL_DATE_TIME ( #533, #47 ) ;
#167 = LINE ( 'NONE', #420, #1099 ) ;
#168 = DIRECTION ( 'NONE',  ( 1.567325801096383526E-32, -1.000000000000000000, 1.445602896647339163E-16 ) ) ;
#169 = DIRECTION ( 'NONE',  ( 0.0000000000000000000, -1.000000000000000000, 0.0000000000000000000 ) ) ;
#170 = VERTEX_POINT ( 'NONE', #1124 ) ;
#171 = ORIENTED_EDGE ( 'NONE', *, *, #224, .F. ) ;
#172 = DIRECTION ( 'NONE',  ( -1.000000000000000000, 0.0000000000000000000, 0.0000000000000000000 ) ) ;
#173 = DIRECTION ( 'NONE',  ( 0.0000000000000000000, 0.0000000000000000000, 1.000000000000000000 ) ) ;
#174 = ORIENTED_EDGE ( 'NONE', *, *, #435, .F. ) ;
#175 = CC_DESIGN_SECURITY_CLASSIFICATION ( #471, ( #111 ) ) ;
#176 = CARTESIAN_POINT ( 'NONE',  ( 4.000000000000000000, -0.2999999999999999889, 3.999999999999998224 ) ) ;
#177 = DIRECTION ( 'NONE',  ( -0.0000000000000000000, 1.000000000000000000, -0.0000000000000000000 ) ) ;
#178 = AXIS2_PLACEMENT_3D ( 'NONE', #218, #138, #474 ) ;
#179 = LINE ( 'NONE', #418, #972 ) ;
#180 = EDGE_CURVE ( 'NONE', #640, #1073, #1125, .T. ) ;
#181 = ADVANCED_FACE ( 'NONE', ( #667 ), #815, .T. ) ;
#182 = CIRCLE ( 'NONE', #845, 1.200000000000000178 ) ;
#183 = FACE_OUTER_BOUND ( 'NONE', #1120, .T. ) ;
#184 = EDGE_LOOP ( 'NONE', ( #1002, #821, #992, #784 ) ) ;
#185 = EDGE_CURVE ( 'NONE', #698, #241, #331, .T. ) ;
#186 = VERTEX_POINT ( 'NONE', #564 ) ;
#187 = DIRECTION ( 'NONE',  ( -1.445602896647339163E-16, -1.000000000000000000, 1.567325801096383526E-32 ) ) ;
#188 = AXIS2_PLACEMENT_3D ( 'NONE', #162, #1066, #430 ) ;
#189 = EDGE_CURVE ( 'NONE', #398, #615, #945, .T. ) ;
#190 = CARTESIAN_POINT ( 'NONE',  ( 4.000000000000000000, -0.2999999999999999889, 3.999999999999998224 ) ) ;
#191 = CARTESIAN_POINT ( 'NONE',  ( -3.999999999999997335, -0.2999999999999999334, 4.699999999999999289 ) ) ;
#192 = VECTOR ( 'NONE', #231, 1000.000000000000000 ) ;
#193 = AXIS2_PLACEMENT_3D ( 'NONE', #119, #299, #311 ) ;
#194 = FACE_OUTER_BOUND ( 'NONE', #374, .T. ) ;
#195 = VECTOR ( 'NONE', #763, 1000.000000000000000 ) ;
#196 = ORIENTED_EDGE ( 'NONE', *, *, #577, .T. ) ;
#197 = APPROVAL_STATUS ( 'not_yet_approved' ) ;
#198 = CARTESIAN_POINT ( 'NONE',  ( -4.000000000000000000, 0.0000000000000000000, 3.999999999999998224 ) ) ;
#199 = ORIENTED_EDGE ( 'NONE', *, *, #1065, .T. ) ;
#200 = ORIENTED_EDGE ( 'NONE', *, *, #894, .T. ) ;
#201 = DIRECTION ( 'NONE',  ( 0.0000000000000000000, 0.0000000000000000000, 1.000000000000000000 ) ) ;
#202 = DIRECTION ( 'NONE',  ( -1.445602896647339163E-16, -1.000000000000000000, 0.0000000000000000000 ) ) ;
#203 = EDGE_LOOP ( 'NONE', ( #451, #229, #144, #238 ) ) ;
#204 = DIRECTION ( 'NONE',  ( 0.0000000000000000000, 0.0000000000000000000, -1.000000000000000000 ) ) ;
#205 = CARTESIAN_POINT ( 'NONE',  ( 3.999999999999997335, 0.0000000000000000000, -4.699999999999999289 ) ) ;
#206 = CARTESIAN_POINT ( 'NONE',  ( 3.999999999999997335, -0.7999999999999999334, -4.699999999999999289 ) ) ;
#207 = EDGE_CURVE ( 'NONE', #186, #1020, #718, .T. ) ;
#208 = VECTOR ( 'NONE', #210, 1000.000000000000000 ) ;
#209 = FACE_OUTER_BOUND ( 'NONE', #215, .T. ) ;
#210 = DIRECTION ( 'NONE',  ( -1.000000000000000000, -0.0000000000000000000, -0.0000000000000000000 ) ) ;
#211 = CC_DESIGN_APPROVAL ( #47, ( #627 ) ) ;
#212 = PERSON_AND_ORGANIZATION_ROLE ( 'classification_officer' ) ;
#213 = ORIENTED_EDGE ( 'NONE', *, *, #1167, .T. ) ;
#214 = DIRECTION ( 'NONE',  ( -0.0000000000000000000, -1.445602896647339163E-16, -1.000000000000000000 ) ) ;
#215 = EDGE_LOOP ( 'NONE', ( #1087, #1068, #385, #571 ) ) ;
#216 = ADVANCED_FACE ( 'NONE', ( #608 ), #694, .F. ) ;
#217 = AXIS2_PLACEMENT_3D ( 'NONE', #422, #882, #1149 ) ;
#218 = CARTESIAN_POINT ( 'NONE',  ( -4.000000000000000000, -0.7999999999999997113, 3.999999999999998224 ) ) ;
#219 = CARTESIAN_POINT ( 'NONE',  ( 4.000000000000000000, -0.2999999999999999889, -4.000000000000000000 ) ) ;
#220 = DIRECTION ( 'NONE',  ( 0.0000000000000000000, 0.0000000000000000000, 1.000000000000000000 ) ) ;
#221 = CARTESIAN_POINT ( 'NONE',  ( 3.999999999999997335, 0.0000000000000000000, -4.699999999999999289 ) ) ;
#222 = CIRCLE ( 'NONE', #318, 1.199999999999999734 ) ;
#223 = CYLINDRICAL_SURFACE ( 'NONE', #525, 1.500000000000000000 ) ;
#224 = EDGE_CURVE ( 'NONE', #920, #41, #780, .T. ) ;
#225 = CIRCLE ( 'NONE', #896, 0.5000000000000004441 ) ;
#226 = VERTEX_POINT ( 'NONE', #490 ) ;
#227 = DIRECTION ( 'NONE',  ( 1.000000000000000000, -9.486769009248169714E-16, 0.0000000000000000000 ) ) ;
#228 = VERTEX_POINT ( 'NONE', #394 ) ;
#229 = ORIENTED_EDGE ( 'NONE', *, *, #1034, .T. ) ;
#230 = DIRECTION ( 'NONE',  ( 1.445602896647339163E-16, -1.000000000000000000, 0.0000000000000000000 ) ) ;
#231 = DIRECTION ( 'NONE',  ( 1.000000000000000000, -0.0000000000000000000, -0.0000000000000000000 ) ) ;
#232 = ADVANCED_FACE ( 'NONE', ( #459 ), #151, .F. ) ;
#233 = CLOSED_SHELL ( 'NONE', ( #232, #118, #17, #463, #30, #467, #901, #756, #842, #1118, #932, #914, #952, #132, #1127, #308, #216, #25, #1134, #480, #40, #1027, #566, #829, #447, #401, #847, #939, #1044, #390, #761, #650, #573, #113, #925, #539, #750, #124, #578, #475, #181, #1089 ) ) ;
#234 = AXIS2_PLACEMENT_3D ( 'NONE', #522, #803, #915 ) ;
#235 = DIRECTION ( 'NONE',  ( 1.084202172485504681E-16, -0.0000000000000000000, -1.000000000000000000 ) ) ;
#236 = LINE ( 'NONE', #371, #622 ) ;
#237 = CARTESIAN_POINT ( 'NONE',  ( -4.000000000000000000, -0.2999999999999999334, 3.999999999999998224 ) ) ;
#238 = ORIENTED_EDGE ( 'NONE', *, *, #148, .F. ) ;
#239 = VECTOR ( 'NONE', #495, 1000.000000000000000 ) ;
#240 = CARTESIAN_POINT ( 'NONE',  ( -3.999999999999997335, -0.7999999999999998224, 5.500000000000000000 ) ) ;
#241 = VERTEX_POINT ( 'NONE', #1038 ) ;
#242 = EDGE_CURVE ( 'NONE', #360, #640, #1139, .T. ) ;
#243 = EDGE_LOOP ( 'NONE', ( #199, #772, #254, #213 ) ) ;
#244 = DIRECTION ( 'NONE',  ( -1.000000000000000000, 0.0000000000000000000, 0.0000000000000000000 ) ) ;
#245 = EDGE_CURVE ( 'NONE', #615, #1004, #680, .T. ) ;
#246 = DIRECTION ( 'NONE',  ( -0.0000000000000000000, 1.000000000000000000, -0.0000000000000000000 ) ) ;
#247 = DIRECTION ( 'NONE',  ( -0.0000000000000000000, -0.0000000000000000000, 1.000000000000000000 ) ) ;
#248 = CC_DESIGN_PERSON_AND_ORGANIZATION_ASSIGNMENT ( #1098, #22, ( #627 ) ) ;
#249 = EDGE_CURVE ( 'NONE', #924, #657, #851, .T. ) ;
#250 = VECTOR ( 'NONE', #1074, 1000.000000000000000 ) ;
#251 = PLANE ( 'NONE',  #588 ) ;
#252 = DIRECTION ( 'NONE',  ( -0.0000000000000000000, 1.000000000000000000, -0.0000000000000000000 ) ) ;
#253 = LINE ( 'NONE', #320, #638 ) ;
#254 = ORIENTED_EDGE ( 'NONE', *, *, #713, .F. ) ;
#255 = ORIENTED_EDGE ( 'NONE', *, *, #700, .T. ) ;
#256 = CARTESIAN_POINT ( 'NONE',  ( -3.999999999999999112, 0.0000000000000000000, -5.499999999999998224 ) ) ;
#257 = CARTESIAN_POINT ( 'NONE',  ( -3.999999999999997335, -6.000000000000000000, 5.500000000000000888 ) ) ;
#258 = DIRECTION ( 'NONE',  ( 0.0000000000000000000, 0.0000000000000000000, -1.000000000000000000 ) ) ;
#259 = CARTESIAN_POINT ( 'NONE',  ( -3.999999999999999112, -0.7999999999999999334, -4.699999999999997513 ) ) ;
#260 = AXIS2_PLACEMENT_3D ( 'NONE', #1064, #1067, #59 ) ;
#261 = CARTESIAN_POINT ( 'NONE',  ( -4.000000000000000000, -6.000000000000000000, -4.000000000000000000 ) ) ;
#262 = CIRCLE ( 'NONE', #752, 0.6999999999999984013 ) ;
#263 = CALENDAR_DATE ( 2020, 6, 10 ) ;
#264 = CYLINDRICAL_SURFACE ( 'NONE', #1059, 0.7999999999999999334 ) ;
#265 = CARTESIAN_POINT ( 'NONE',  ( -4.000000000000000000, -0.7999999999999999334, 3.999999999999998224 ) ) ;
#266 = CARTESIAN_POINT ( 'NONE',  ( 3.999999999999997335, 0.0000000000000000000, -5.500000000000000000 ) ) ;
#267 = EDGE_CURVE ( 'NONE', #920, #795, #423, .T. ) ;
#268 = EDGE_LOOP ( 'NONE', ( #282, #614, #69, #670 ) ) ;
#269 = CARTESIAN_POINT ( 'NONE',  ( 3.999999999999999112, -0.7999999999999999334, -4.699999999999999289 ) ) ;
#270 = DIRECTION ( 'NONE',  ( 0.0000000000000000000, -1.000000000000000000, 0.0000000000000000000 ) ) ;
#271 = ORIENTED_EDGE ( 'NONE', *, *, #391, .T. ) ;
#272 = CC_DESIGN_APPROVAL ( #687, ( #471 ) ) ;
#273 = ORIENTED_EDGE ( 'NONE', *, *, #827, .F. ) ;
#274 = DIRECTION ( 'NONE',  ( 1.000000000000000000, 1.445602896647339163E-16, 1.084202172485504681E-16 ) ) ;
#275 = FACE_OUTER_BOUND ( 'NONE', #372, .T. ) ;
#276 = DIRECTION ( 'NONE',  ( 1.000000000000000000, -0.0000000000000000000, -1.084202172485504681E-16 ) ) ;
#277 = CARTESIAN_POINT ( 'NONE',  ( -3.999999999999997335, -0.7999999999999999334, 4.699999999999999289 ) ) ;
#278 = VECTOR ( 'NONE', #554, 1000.000000000000000 ) ;
#279 = PERSON_AND_ORGANIZATION ( #126, #355 ) ;
#280 = ORIENTED_EDGE ( 'NONE', *, *, #351, .T. ) ;
#281 = DIRECTION ( 'NONE',  ( 1.000000000000000000, -0.0000000000000000000, -0.0000000000000000000 ) ) ;
#282 = ORIENTED_EDGE ( 'NONE', *, *, #906, .F. ) ;
#283 = ORIENTED_EDGE ( 'NONE', *, *, #872, .T. ) ;
#284 = DIRECTION ( 'NONE',  ( -0.0000000000000000000, 1.000000000000000000, -0.0000000000000000000 ) ) ;
#285 = MECHANICAL_CONTEXT ( 'NONE', #934, 'mechanical' ) ;
#286 = CARTESIAN_POINT ( 'NONE',  ( 4.000000000000000000, -0.7999999999999997113, 3.999999999999998224 ) ) ;
#287 = DIRECTION ( 'NONE',  ( 0.0000000000000000000, 0.0000000000000000000, 1.000000000000000000 ) ) ;
#288 = CYLINDRICAL_SURFACE ( 'NONE', #502, 0.5000000000000004441 ) ;
#289 = TOROIDAL_SURFACE ( 'NONE', #21, 0.6999999999999975131, 0.5000000000000000000 ) ;
#290 = ORIENTED_EDGE ( 'NONE', *, *, #506, .F. ) ;
#291 = ORIENTED_EDGE ( 'NONE', *, *, #185, .T. ) ;
#292 = ORIENTED_EDGE ( 'NONE', *, *, #912, .F. ) ;
#293 = DIRECTION ( 'NONE',  ( 0.0000000000000000000, 0.0000000000000000000, 1.000000000000000000 ) ) ;
#294 = AXIS2_PLACEMENT_3D ( 'NONE', #330, #592, #969 ) ;
#295 = DIRECTION ( 'NONE',  ( 1.084202172485504681E-16, -0.0000000000000000000, -1.000000000000000000 ) ) ;
#296 = ORIENTED_EDGE ( 'NONE', *, *, #84, .T. ) ;
#297 =( NAMED_UNIT ( * ) PLANE_ANGLE_UNIT ( ) SI_UNIT ( $, .RADIAN. ) );
#298 = CARTESIAN_POINT ( 'NONE',  ( -4.000000000000000000, -0.2999999999999999889, -4.000000000000000000 ) ) ;
#299 = DIRECTION ( 'NONE',  ( 1.084202172485504681E-16, -0.0000000000000000000, -1.000000000000000000 ) ) ;
#300 = CARTESIAN_POINT ( 'NONE',  ( -4.000000000000000000, -0.2999999999999999889, 3.999999999999998224 ) ) ;
#301 = AXIS2_PLACEMENT_3D ( 'NONE', #206, #1108, #741 ) ;
#302 = DIRECTION ( 'NONE',  ( 1.000000000000000000, -0.0000000000000000000, -2.055870410350637176E-15 ) ) ;
#303 = LINE ( 'NONE', #671, #58 ) ;
#304 = LINE ( 'NONE', #375, #278 ) ;
#305 = COORDINATED_UNIVERSAL_TIME_OFFSET ( 2, 0, .AHEAD. ) ;
#306 = ORIENTED_EDGE ( 'NONE', *, *, #267, .T. ) ;
#307 = CC_DESIGN_PERSON_AND_ORGANIZATION_ASSIGNMENT ( #515, #1009, ( #111 ) ) ;
#308 = ADVANCED_FACE ( 'NONE', ( #883 ), #315, .F. ) ;
#309 = CARTESIAN_POINT ( 'NONE',  ( 3.999999999999997335, -6.000000000000000000, -5.500000000000000888 ) ) ;
#310 = ORIENTED_EDGE ( 'NONE', *, *, #613, .F. ) ;
#311 = DIRECTION ( 'NONE',  ( -1.000000000000000000, 0.0000000000000000000, 0.0000000000000000000 ) ) ;
#312 = EDGE_LOOP ( 'NONE', ( #887, #808, #594, #476 ) ) ;
#313 = ORIENTED_EDGE ( 'NONE', *, *, #36, .T. ) ;
#314 = DIRECTION ( 'NONE',  ( -1.734723475976807489E-15, -0.0000000000000000000, -1.000000000000000000 ) ) ;
#315 = PLANE ( 'NONE',  #617 ) ;
#316 = LINE ( 'NONE', #123, #208 ) ;
#317 = DATE_AND_TIME ( #108, #1000 ) ;
#318 = AXIS2_PLACEMENT_3D ( 'NONE', #941, #32, #220 ) ;
#319 = LINE ( 'NONE', #811, #516 ) ;
#320 = CARTESIAN_POINT ( 'NONE',  ( -3.999999999999997335, -6.000000000000000000, 5.499999999999998224 ) ) ;
#321 = VERTEX_POINT ( 'NONE', #606 ) ;
#322 = ORIENTED_EDGE ( 'NONE', *, *, #1150, .T. ) ;
#323 = DIRECTION ( 'NONE',  ( 0.0000000000000000000, -1.000000000000000000, 1.445602896647339163E-16 ) ) ;
#324 = ORIENTED_EDGE ( 'NONE', *, *, #1034, .F. ) ;
#325 = EDGE_CURVE ( 'NONE', #241, #924, #899, .T. ) ;
#326 = CARTESIAN_POINT ( 'NONE',  ( 4.000000000000000000, -0.7999999999999999334, 3.999999999999998224 ) ) ;
#327 = EDGE_LOOP ( 'NONE', ( #39, #292, #551, #67 ) ) ;
#328 = PRODUCT_RELATED_PRODUCT_CATEGORY ( 'detail', '', ( #837 ) ) ;
#329 = VECTOR ( 'NONE', #824, 1000.000000000000000 ) ;
#330 = CARTESIAN_POINT ( 'NONE',  ( -4.699999999999997513, -0.7999999999999999334, 3.999999999999999112 ) ) ;
#331 = LINE ( 'NONE', #221, #1029 ) ;
#332 = APPROVAL_PERSON_ORGANIZATION ( #15, #687, #647 ) ;
#333 = VERTEX_POINT ( 'NONE', #1143 ) ;
#334 = ORIENTED_EDGE ( 'NONE', *, *, #1092, .F. ) ;
#335 = ORIENTED_EDGE ( 'NONE', *, *, #534, .T. ) ;
#336 = CARTESIAN_POINT ( 'NONE',  ( -3.999999999999997335, 0.0000000000000000000, 5.500000000000000000 ) ) ;
#337 = EDGE_CURVE ( 'NONE', #585, #333, #153, .T. ) ;
#338 = DIRECTION ( 'NONE',  ( 0.0000000000000000000, 0.0000000000000000000, -1.000000000000000000 ) ) ;
#339 = DIRECTION ( 'NONE',  ( 1.000000000000000000, 0.0000000000000000000, 0.0000000000000000000 ) ) ;
#340 = TOROIDAL_SURFACE ( 'NONE', #1025, 0.6999999999999984013, 0.7999999999999999334 ) ;
#341 = CIRCLE ( 'NONE', #88, 1.199999999999998401 ) ;
#342 = CARTESIAN_POINT ( 'NONE',  ( -3.999999999999997335, -0.7999999999999999334, 4.699999999999999289 ) ) ;
#343 = LINE ( 'NONE', #986, #446 ) ;
#344 = ORIENTED_EDGE ( 'NONE', *, *, #72, .T. ) ;
#345 = ORIENTED_EDGE ( 'NONE', *, *, #693, .F. ) ;
#346 = CARTESIAN_POINT ( 'NONE',  ( -3.999999999999997335, -0.7999999999999999334, 4.699999999999999289 ) ) ;
#347 = DIRECTION ( 'NONE',  ( 0.0000000000000000000, -1.000000000000000000, 0.0000000000000000000 ) ) ;
#348 = VERTEX_POINT ( 'NONE', #134 ) ;
#349 = AXIS2_PLACEMENT_3D ( 'NONE', #1159, #247, #339 ) ;
#350 = ORIENTED_EDGE ( 'NONE', *, *, #492, .T. ) ;
#351 = EDGE_CURVE ( 'NONE', #839, #1129, #165, .T. ) ;
#352 = DIRECTION ( 'NONE',  ( -0.0000000000000000000, 1.000000000000000000, -0.0000000000000000000 ) ) ;
#353 = VECTOR ( 'NONE', #74, 1000.000000000000000 ) ;
#354 = CYLINDRICAL_SURFACE ( 'NONE', #682, 1.199999999999998401 ) ;
#355 = ORGANIZATION ( 'UNSPECIFIED', 'UNSPECIFIED', '' ) ;
#356 = DIRECTION ( 'NONE',  ( 0.0000000000000000000, -1.761828530288943916E-15, 1.000000000000000000 ) ) ;
#357 = DIRECTION ( 'NONE',  ( -0.0000000000000000000, -0.0000000000000000000, 1.000000000000000000 ) ) ;
#358 = EDGE_CURVE ( 'NONE', #398, #81, #635, .T. ) ;
#359 = ORIENTED_EDGE ( 'NONE', *, *, #758, .T. ) ;
#360 = VERTEX_POINT ( 'NONE', #505 ) ;
#361 = PLANE ( 'NONE',  #462 ) ;
#362 = ORIENTED_EDGE ( 'NONE', *, *, #598, .F. ) ;
#363 = DIRECTION ( 'NONE',  ( 1.000000000000000000, 0.0000000000000000000, 0.0000000000000000000 ) ) ;
#364 = CIRCLE ( 'NONE', #711, 0.7999999999999994893 ) ;
#365 = CARTESIAN_POINT ( 'NONE',  ( 5.200000000000001066, -4.336808689942004794E-17, -4.000000000000000000 ) ) ;
#366 = CIRCLE ( 'NONE', #661, 1.199999999999998401 ) ;
#367 = VECTOR ( 'NONE', #703, 1000.000000000000000 ) ;
#368 = ORIENTED_EDGE ( 'NONE', *, *, #391, .F. ) ;
#369 = PERSON_AND_ORGANIZATION_ROLE ( 'design_owner' ) ;
#370 = DIRECTION ( 'NONE',  ( -0.0000000000000000000, 1.000000000000000000, -0.0000000000000000000 ) ) ;
#371 = CARTESIAN_POINT ( 'NONE',  ( 3.999999999999997335, -6.000000000000000000, -5.200000000000001066 ) ) ;
#372 = EDGE_LOOP ( 'NONE', ( #1050, #951, #1172, #628 ) ) ;
#373 = AXIS2_PLACEMENT_3D ( 'NONE', #677, #140, #406 ) ;
#374 = EDGE_LOOP ( 'NONE', ( #415, #290, #710, #875 ) ) ;
#375 = CARTESIAN_POINT ( 'NONE',  ( 5.500000000000000888, 0.0000000000000000000, -4.000000000000000000 ) ) ;
#376 = DIRECTION ( 'NONE',  ( 0.0000000000000000000, 0.0000000000000000000, 1.000000000000000000 ) ) ;
#377 = LINE ( 'NONE', #489, #195 ) ;
#378 = EDGE_CURVE ( 'NONE', #657, #333, #1165, .T. ) ;
#379 = CARTESIAN_POINT ( 'NONE',  ( 5.200000000000001066, -6.000000000000000000, 3.999999999999998224 ) ) ;
#380 = LINE ( 'NONE', #1030, #691 ) ;
#381 = AXIS2_PLACEMENT_3D ( 'NONE', #176, #1077, #1081 ) ;
#382 = CYLINDRICAL_SURFACE ( 'NONE', #603, 1.200000000000000178 ) ;
#383 = DIRECTION ( 'NONE',  ( 0.0000000000000000000, -1.000000000000000000, 0.0000000000000000000 ) ) ;
#384 = ORIENTED_EDGE ( 'NONE', *, *, #1053, .T. ) ;
#385 = ORIENTED_EDGE ( 'NONE', *, *, #249, .F. ) ;
#386 = AXIS2_PLACEMENT_3D ( 'NONE', #523, #270, #804 ) ;
#387 = DIRECTION ( 'NONE',  ( -1.000000000000000000, -0.0000000000000000000, -0.0000000000000000000 ) ) ;
#388 = ORIENTED_EDGE ( 'NONE', *, *, #1150, .F. ) ;
#389 = DIRECTION ( 'NONE',  ( -1.000000000000000000, -0.0000000000000000000, -0.0000000000000000000 ) ) ;
#390 = ADVANCED_FACE ( 'NONE', ( #929 ), #792, .T. ) ;
#391 = EDGE_CURVE ( 'NONE', #321, #427, #409, .T. ) ;
#392 = FACE_OUTER_BOUND ( 'NONE', #1116, .T. ) ;
#393 = CYLINDRICAL_SURFACE ( 'NONE', #905, 1.499999999999998224 ) ;
#394 = CARTESIAN_POINT ( 'NONE',  ( 5.200000000000001066, -0.7999999999999998224, -4.000000000000000000 ) ) ;
#395 = VECTOR ( 'NONE', #448, 1000.000000000000000 ) ;
#396 = VECTOR ( 'NONE', #1040, 1000.000000000000000 ) ;
#397 = ORIENTED_EDGE ( 'NONE', *, *, #189, .T. ) ;
#398 = VERTEX_POINT ( 'NONE', #685 ) ;
#399 = PLANE ( 'NONE',  #1145 ) ;
#400 = VERTEX_POINT ( 'NONE', #1062 ) ;
#401 = ADVANCED_FACE ( 'NONE', ( #31 ), #679, .T. ) ;
#402 = ORIENTED_EDGE ( 'NONE', *, *, #242, .T. ) ;
#403 = ORIENTED_EDGE ( 'NONE', *, *, #797, .T. ) ;
#404 = DIRECTION ( 'NONE',  ( -1.000000000000000000, -0.0000000000000000000, -0.0000000000000000000 ) ) ;
#405 = DIRECTION ( 'NONE',  ( 0.0000000000000000000, -1.000000000000000000, 0.0000000000000000000 ) ) ;
#406 = DIRECTION ( 'NONE',  ( 1.000000000000000000, 0.0000000000000000000, 0.0000000000000000000 ) ) ;
#407 = VECTOR ( 'NONE', #729, 1000.000000000000000 ) ;
#408 = AXIS2_PLACEMENT_3D ( 'NONE', #702, #169, #1071 ) ;
#409 = LINE ( 'NONE', #257, #834 ) ;
#410 = VECTOR ( 'NONE', #73, 1000.000000000000000 ) ;
#411 = CARTESIAN_POINT ( 'NONE',  ( -3.999999999999999112, -0.7999999999999999334, -4.699999999999999289 ) ) ;
#412 = ORIENTED_EDGE ( 'NONE', *, *, #1021, .T. ) ;
#413 = DIRECTION ( 'NONE',  ( -1.445602896647339163E-16, 1.000000000000000000, 0.0000000000000000000 ) ) ;
#414 = CARTESIAN_POINT ( 'NONE',  ( -3.999999999999999112, -6.000000000000000000, -5.500000000000000888 ) ) ;
#415 = ORIENTED_EDGE ( 'NONE', *, *, #960, .F. ) ;
#416 = EDGE_CURVE ( 'NONE', #549, #600, #717, .T. ) ;
#417 = CARTESIAN_POINT ( 'NONE',  ( 4.000000000000000000, -6.000000000000000000, 3.999999999999998224 ) ) ;
#418 = CARTESIAN_POINT ( 'NONE',  ( -5.200000000000001066, -6.000000000000000000, -3.999999999999997335 ) ) ;
#419 = AXIS2_PLACEMENT_3D ( 'NONE', #1024, #921, #553 ) ;
#420 = CARTESIAN_POINT ( 'NONE',  ( 3.999999999999999112, 0.0000000000000000000, 5.499999999999998224 ) ) ;
#421 = CIRCLE ( 'NONE', #12, 1.199999999999999734 ) ;
#422 = CARTESIAN_POINT ( 'NONE',  ( 4.699999999999999289, -0.7999999999999999334, 3.999999999999998224 ) ) ;
#423 = CIRCLE ( 'NONE', #809, 0.8000000000000003775 ) ;
#424 = FACE_OUTER_BOUND ( 'NONE', #919, .T. ) ;
#425 = ORIENTED_EDGE ( 'NONE', *, *, #865, .F. ) ;
#426 = CARTESIAN_POINT ( 'NONE',  ( 4.000000000000000000, -0.2999999999999999889, -4.000000000000000000 ) ) ;
#427 = VERTEX_POINT ( 'NONE', #781 ) ;
#428 = EDGE_LOOP ( 'NONE', ( #856, #1045, #344, #280 ) ) ;
#429 = MANIFOLD_SOLID_BREP ( 'Swept Flange1', #233 ) ;
#430 = DIRECTION ( 'NONE',  ( 0.0000000000000000000, 0.0000000000000000000, 1.000000000000000000 ) ) ;
#431 = AXIS2_PLACEMENT_3D ( 'NONE', #479, #765, #774 ) ;
#432 = VECTOR ( 'NONE', #457, 1000.000000000000000 ) ;
#433 = LINE ( 'NONE', #1039, #1110 ) ;
#434 = VECTOR ( 'NONE', #404, 1000.000000000000000 ) ;
#435 = EDGE_CURVE ( 'NONE', #186, #398, #14, .T. ) ;
#436 = ORIENTED_EDGE ( 'NONE', *, *, #817, .T. ) ;
#437 = PLANE ( 'NONE',  #381 ) ;
#438 = CC_DESIGN_DATE_AND_TIME_ASSIGNMENT ( #141, #453, ( #627 ) ) ;
#439 = DIRECTION ( 'NONE',  ( -1.734723475976805517E-15, -1.734723475976805517E-15, -1.000000000000000000 ) ) ;
#440 = ORIENTED_EDGE ( 'NONE', *, *, #621, .F. ) ;
#441 = DIRECTION ( 'NONE',  ( -0.0000000000000000000, 1.000000000000000000, -0.0000000000000000000 ) ) ;
#442 = DIRECTION ( 'NONE',  ( 0.0000000000000000000, -9.486769009248159853E-16, 1.000000000000000000 ) ) ;
#443 = CARTESIAN_POINT ( 'NONE',  ( 5.500000000000000000, 0.0000000000000000000, 3.999999999999998224 ) ) ;
#444 = LINE ( 'NONE', #240, #192 ) ;
#445 = CIRCLE ( 'NONE', #1018, 1.499999999999999556 ) ;
#446 = VECTOR ( 'NONE', #509, 1000.000000000000000 ) ;
#447 = ADVANCED_FACE ( 'NONE', ( #91 ), #288, .F. ) ;
#448 = DIRECTION ( 'NONE',  ( -1.567325801096383526E-32, -1.000000000000000000, -1.445602896647339163E-16 ) ) ;
#449 = CARTESIAN_POINT ( 'NONE',  ( -3.999999999999997335, -0.7999999999999997113, 5.499999999999997335 ) ) ;
#450 = EDGE_CURVE ( 'NONE', #1129, #81, #179, .T. ) ;
#451 = ORIENTED_EDGE ( 'NONE', *, *, #36, .F. ) ;
#452 = VERTEX_POINT ( 'NONE', #164 ) ;
#453 = DATE_TIME_ROLE ( 'creation_date' ) ;
#454 = DIRECTION ( 'NONE',  ( -0.0000000000000000000, 1.000000000000000000, -0.0000000000000000000 ) ) ;
#455 = ADVANCED_BREP_SHAPE_REPRESENTATION ( 'MS110-20S', ( #429, #419 ), #664 ) ;
#456 = APPROVAL_ROLE ( '' ) ;
#457 = DIRECTION ( 'NONE',  ( 1.000000000000000000, -0.0000000000000000000, -0.0000000000000000000 ) ) ;
#458 = LINE ( 'NONE', #365, #329 ) ;
#459 = FACE_OUTER_BOUND ( 'NONE', #1008, .T. ) ;
#460 = TOROIDAL_SURFACE ( 'NONE', #876, 0.6999999999999984013, 0.5000000000000000000 ) ;
#461 = VERTEX_POINT ( 'NONE', #414 ) ;
#462 = AXIS2_PLACEMENT_3D ( 'NONE', #266, #644, #1006 ) ;
#463 = ADVANCED_FACE ( 'NONE', ( #897 ), #611, .T. ) ;
#464 = EDGE_LOOP ( 'NONE', ( #800, #877, #841, #1103 ) ) ;
#465 = CARTESIAN_POINT ( 'NONE',  ( -5.200000000000000178, -6.000000000000000000, 3.999999999999998224 ) ) ;
#466 = CARTESIAN_POINT ( 'NONE',  ( 5.500000000000000000, -0.7999999999999998224, 3.999999999999998224 ) ) ;
#467 = ADVANCED_FACE ( 'NONE', ( #543 ), #982, .T. ) ;
#468 = EDGE_CURVE ( 'NONE', #461, #725, #998, .T. ) ;
#469 = LINE ( 'NONE', #987, #250 ) ;
#470 = VECTOR ( 'NONE', #782, 1000.000000000000000 ) ;
#471 = SECURITY_CLASSIFICATION ( '', '', #26 ) ;
#472 = CALENDAR_DATE ( 2020, 6, 10 ) ;
#473 = DIRECTION ( 'NONE',  ( 1.084202172485504681E-16, 1.567325801096383526E-32, -1.000000000000000000 ) ) ;
#474 = DIRECTION ( 'NONE',  ( -1.000000000000000000, -7.228014483236703211E-17, 5.782411586589362569E-16 ) ) ;
#475 = ADVANCED_FACE ( 'NONE', ( #1109 ), #1169, .T. ) ;
#476 = ORIENTED_EDGE ( 'NONE', *, *, #180, .T. ) ;
#477 = VERTEX_POINT ( 'NONE', #903 ) ;
#478 = ORIENTED_EDGE ( 'NONE', *, *, #621, .T. ) ;
#479 = CARTESIAN_POINT ( 'NONE',  ( 4.000000000000000000, 0.0000000000000000000, 3.999999999999998224 ) ) ;
#480 = ADVANCED_FACE ( 'NONE', ( #152 ), #87, .F. ) ;
#481 = DIRECTION ( 'NONE',  ( 1.567325801096383526E-32, -1.000000000000000000, 1.445602896647339163E-16 ) ) ;
#482 = CARTESIAN_POINT ( 'NONE',  ( 4.699999999999999289, -0.7999999999999999334, 3.999999999999998224 ) ) ;
#483 = AXIS2_PLACEMENT_3D ( 'NONE', #536, #302, #136 ) ;
#484 = LINE ( 'NONE', #379, #514 ) ;
#485 = APPROVAL_PERSON_ORGANIZATION ( #731, #1140, #1107 ) ;
#486 = EDGE_CURVE ( 'NONE', #615, #860, #469, .T. ) ;
#487 = CYLINDRICAL_SURFACE ( 'NONE', #707, 0.5000000000000004441 ) ;
#488 = ORIENTED_EDGE ( 'NONE', *, *, #468, .F. ) ;
#489 = CARTESIAN_POINT ( 'NONE',  ( -3.999999999999997335, -6.000000000000000000, 5.200000000000001066 ) ) ;
#490 = CARTESIAN_POINT ( 'NONE',  ( 3.999999999999999112, -0.7999999999999998224, 5.500000000000000000 ) ) ;
#491 = EDGE_LOOP ( 'NONE', ( #866, #878, #672, #983 ) ) ;
#492 = EDGE_CURVE ( 'NONE', #600, #400, #1163, .T. ) ;
#493 = ORIENTED_EDGE ( 'NONE', *, *, #783, .F. ) ;
#494 = ORIENTED_EDGE ( 'NONE', *, *, #1010, .F. ) ;
#495 = DIRECTION ( 'NONE',  ( -1.000000000000000000, -0.0000000000000000000, -0.0000000000000000000 ) ) ;
#496 = DIRECTION ( 'NONE',  ( -1.000000000000000000, -0.0000000000000000000, -0.0000000000000000000 ) ) ;
#497 = CC_DESIGN_PERSON_AND_ORGANIZATION_ASSIGNMENT ( #580, #212, ( #471 ) ) ;
#498 = ORIENTED_EDGE ( 'NONE', *, *, #189, .F. ) ;
#499 = CARTESIAN_POINT ( 'NONE',  ( 4.000000000000000000, -6.000000000000000000, 3.999999999999998224 ) ) ;
#500 = DIRECTION ( 'NONE',  ( -0.0000000000000000000, -0.0000000000000000000, 1.000000000000000000 ) ) ;
#501 = LINE ( 'NONE', #828, #633 ) ;
#502 = AXIS2_PLACEMENT_3D ( 'NONE', #602, #880, #244 ) ;
#503 = CIRCLE ( 'NONE', #935, 0.6999999999999992895 ) ;
#504 = DIRECTION ( 'NONE',  ( -5.782411586589355667E-16, 0.0000000000000000000, 1.000000000000000000 ) ) ;
#505 = CARTESIAN_POINT ( 'NONE',  ( -3.999999999999999112, -0.2999999999999999334, -4.699999999999999289 ) ) ;
#506 = EDGE_CURVE ( 'NONE', #725, #170, #562, .T. ) ;
#507 = EDGE_LOOP ( 'NONE', ( #604, #843, #440, #20 ) ) ;
#508 = ORIENTED_EDGE ( 'NONE', *, *, #783, .T. ) ;
#509 = DIRECTION ( 'NONE',  ( 1.084202172485504681E-16, -0.0000000000000000000, -1.000000000000000000 ) ) ;
#510 = DIRECTION ( 'NONE',  ( -1.445602896647339163E-16, -1.000000000000000000, 0.0000000000000000000 ) ) ;
#511 = ORIENTED_EDGE ( 'NONE', *, *, #358, .T. ) ;
#512 = AXIS2_PLACEMENT_3D ( 'NONE', #542, #812, #115 ) ;
#513 = CARTESIAN_POINT ( 'NONE',  ( -3.999999999999999112, -0.7999999999999998224, -5.500000000000000000 ) ) ;
#514 = VECTOR ( 'NONE', #916, 1000.000000000000000 ) ;
#515 = PERSON_AND_ORGANIZATION ( #126, #355 ) ;
#516 = VECTOR ( 'NONE', #705, 1000.000000000000000 ) ;
#517 = EDGE_LOOP ( 'NONE', ( #1032, #559, #128, #550 ) ) ;
#518 = DIRECTION ( 'NONE',  ( 0.0000000000000000000, -1.000000000000000000, 1.445602896647339163E-16 ) ) ;
#519 = ORIENTED_EDGE ( 'NONE', *, *, #777, .T. ) ;
#520 = EDGE_LOOP ( 'NONE', ( #403, #350, #1144, #1170 ) ) ;
#521 = EDGE_LOOP ( 'NONE', ( #820, #488, #1007, #948 ) ) ;
#522 = CARTESIAN_POINT ( 'NONE',  ( 4.000000000000000000, 0.0000000000000000000, 3.999999999999998224 ) ) ;
#523 = CARTESIAN_POINT ( 'NONE',  ( 4.000000000000000000, -6.000000000000000000, -4.000000000000000000 ) ) ;
#524 = EDGE_LOOP ( 'NONE', ( #909, #917, #273, #1131 ) ) ;
#525 = AXIS2_PLACEMENT_3D ( 'NONE', #219, #947, #942 ) ;
#526 = EDGE_CURVE ( 'NONE', #785, #584, #1014, .T. ) ;
#527 = DIRECTION ( 'NONE',  ( -1.000000000000000000, -0.0000000000000000000, -0.0000000000000000000 ) ) ;
#528 = CARTESIAN_POINT ( 'NONE',  ( 4.699999999999999289, -0.7999999999999999334, 3.999999999999998224 ) ) ;
#529 = FACE_OUTER_BOUND ( 'NONE', #491, .T. ) ;
#530 = DIRECTION ( 'NONE',  ( 0.0000000000000000000, 0.0000000000000000000, 1.000000000000000000 ) ) ;
#531 = DIRECTION ( 'NONE',  ( -0.0000000000000000000, -0.0000000000000000000, 1.000000000000000000 ) ) ;
#532 = CIRCLE ( 'NONE', #974, 0.8000000000000003775 ) ;
#533 = DATE_AND_TIME ( #122, #719 ) ;
#534 = EDGE_CURVE ( 'NONE', #24, #585, #76, .T. ) ;
#535 = ORIENTED_EDGE ( 'NONE', *, *, #72, .F. ) ;
#536 = CARTESIAN_POINT ( 'NONE',  ( -3.999999999999998224, -0.7999999999999999334, 4.699999999999996625 ) ) ;
#537 = ORIENTED_EDGE ( 'NONE', *, *, #161, .F. ) ;
#538 = EDGE_CURVE ( 'NONE', #360, #452, #730, .T. ) ;
#539 = ADVANCED_FACE ( 'NONE', ( #764 ), #361, .T. ) ;
#540 = ORIENTED_EDGE ( 'NONE', *, *, #538, .T. ) ;
#541 = CARTESIAN_POINT ( 'NONE',  ( 5.200000000000000178, -0.7999999999999998224, 3.999999999999998224 ) ) ;
#542 = CARTESIAN_POINT ( 'NONE',  ( 3.999999999999997335, -6.000000000000000000, -5.500000000000000888 ) ) ;
#543 = FACE_OUTER_BOUND ( 'NONE', #66, .T. ) ;
#544 = VECTOR ( 'NONE', #1171, 1000.000000000000000 ) ;
#545 =( LENGTH_UNIT ( ) NAMED_UNIT ( * ) SI_UNIT ( .MILLI., .METRE. ) );
#546 = PLANE ( 'NONE',  #742 ) ;
#547 = CARTESIAN_POINT ( 'NONE',  ( 4.000000000000000000, -0.7999999999999999334, -4.000000000000000000 ) ) ;
#548 = AXIS2_PLACEMENT_3D ( 'NONE', #411, #496, #574 ) ;
#549 = VERTEX_POINT ( 'NONE', #83 ) ;
#550 = ORIENTED_EDGE ( 'NONE', *, *, #598, .T. ) ;
#551 = ORIENTED_EDGE ( 'NONE', *, *, #906, .T. ) ;
#552 = EDGE_CURVE ( 'NONE', #400, #807, #484, .T. ) ;
#553 = DIRECTION ( 'NONE',  ( 1.000000000000000000, 0.0000000000000000000, 0.0000000000000000000 ) ) ;
#554 = DIRECTION ( 'NONE',  ( 1.445602896647339163E-16, -1.000000000000000000, 0.0000000000000000000 ) ) ;
#555 = CARTESIAN_POINT ( 'NONE',  ( -3.999999999999998224, -0.7999999999999997113, 5.199999999999998401 ) ) ;
#556 = VERTEX_POINT ( 'NONE', #1094 ) ;
#557 = CARTESIAN_POINT ( 'NONE',  ( 5.500000000000001776, -6.000000000000000000, -4.000000000000000000 ) ) ;
#558 = CARTESIAN_POINT ( 'NONE',  ( 4.000000000000000000, -6.000000000000000000, 3.999999999999998224 ) ) ;
#559 = ORIENTED_EDGE ( 'NONE', *, *, #492, .F. ) ;
#560 = CC_DESIGN_DATE_AND_TIME_ASSIGNMENT ( #609, #735, ( #471 ) ) ;
#561 = APPLICATION_PROTOCOL_DEFINITION ( 'international standard', 'config_control_design', 1994, #18 ) ;
#562 = LINE ( 'NONE', #626, #1028 ) ;
#563 = LINE ( 'NONE', #567, #1055 ) ;
#564 = CARTESIAN_POINT ( 'NONE',  ( -4.699999999999999289, -0.2999999999999999334, 3.999999999999999112 ) ) ;
#565 = COORDINATED_UNIVERSAL_TIME_OFFSET ( 2, 0, .AHEAD. ) ;
#566 = ADVANCED_FACE ( 'NONE', ( #275 ), #107, .F. ) ;
#567 = CARTESIAN_POINT ( 'NONE',  ( -5.200000000000000178, -0.7999999999999997113, -3.999999999999997335 ) ) ;
#568 = ORIENTED_EDGE ( 'NONE', *, *, #1053, .F. ) ;
#569 = AXIS2_PLACEMENT_3D ( 'NONE', #300, #940, #133 ) ;
#570 = ORIENTED_EDGE ( 'NONE', *, *, #716, .T. ) ;
#571 = ORIENTED_EDGE ( 'NONE', *, *, #954, .T. ) ;
#572 = ORIENTED_EDGE ( 'NONE', *, *, #245, .T. ) ;
#573 = ADVANCED_FACE ( 'NONE', ( #1 ), #961, .T. ) ;
#574 = DIRECTION ( 'NONE',  ( 0.0000000000000000000, 0.0000000000000000000, 1.000000000000000000 ) ) ;
#575 = EDGE_LOOP ( 'NONE', ( #1017, #892, #977, #255 ) ) ;
#576 = CARTESIAN_POINT ( 'NONE',  ( 3.999999999999998224, -0.7999999999999997113, -5.200000000000000178 ) ) ;
#577 = EDGE_CURVE ( 'NONE', #585, #785, #262, .T. ) ;
#578 = ADVANCED_FACE ( 'NONE', ( #943 ), #704, .T. ) ;
#579 = CIRCLE ( 'NONE', #52, 1.499999999999999556 ) ;
#580 = PERSON_AND_ORGANIZATION ( #126, #355 ) ;
#581 = LINE ( 'NONE', #1174, #695 ) ;
#582 = CARTESIAN_POINT ( 'NONE',  ( 4.000000000000000000, -0.7999999999999997113, -4.000000000000000000 ) ) ;
#583 = DIRECTION ( 'NONE',  ( 5.782411586589365527E-16, -7.228014483236706909E-17, -1.000000000000000000 ) ) ;
#584 = VERTEX_POINT ( 'NONE', #449 ) ;
#585 = VERTEX_POINT ( 'NONE', #722 ) ;
#586 = DIRECTION ( 'NONE',  ( -0.0000000000000000000, 1.000000000000000000, -0.0000000000000000000 ) ) ;
#587 = EDGE_LOOP ( 'NONE', ( #494, #537, #200, #402 ) ) ;
#588 = AXIS2_PLACEMENT_3D ( 'NONE', #336, #616, #790 ) ;
#589 = CARTESIAN_POINT ( 'NONE',  ( 5.500000000000000888, -6.000000000000000000, 3.999999999999998224 ) ) ;
#590 = AXIS2_PLACEMENT_3D ( 'NONE', #130, #387, #840 ) ;
#591 = LINE ( 'NONE', #102, #353 ) ;
#592 = DIRECTION ( 'NONE',  ( 1.084202172485504681E-16, -0.0000000000000000000, 1.000000000000000000 ) ) ;
#593 = PRODUCT_DEFINITION_SHAPE ( 'NONE', 'NONE',  #627 ) ;
#594 = ORIENTED_EDGE ( 'NONE', *, *, #1010, .T. ) ;
#595 = CARTESIAN_POINT ( 'NONE',  ( 5.200000000000000178, -4.336808689942017120E-17, 3.999999999999998224 ) ) ;
#596 = ORIENTED_EDGE ( 'NONE', *, *, #827, .T. ) ;
#597 = EDGE_LOOP ( 'NONE', ( #737, #904, #397, #572 ) ) ;
#598 = EDGE_CURVE ( 'NONE', #228, #807, #458, .T. ) ;
#599 = DIRECTION ( 'NONE',  ( -0.0000000000000000000, 1.000000000000000000, -0.0000000000000000000 ) ) ;
#600 = VERTEX_POINT ( 'NONE', #541 ) ;
#601 = DIRECTION ( 'NONE',  ( -0.0000000000000000000, 1.000000000000000000, -0.0000000000000000000 ) ) ;
#602 = CARTESIAN_POINT ( 'NONE',  ( 4.699999999999999289, -0.7999999999999999334, 3.999999999999998224 ) ) ;
#603 = AXIS2_PLACEMENT_3D ( 'NONE', #426, #610, #173 ) ;
#604 = ORIENTED_EDGE ( 'NONE', *, *, #249, .T. ) ;
#605 = CARTESIAN_POINT ( 'NONE',  ( 4.000000000000000000, -0.7999999999999999334, 3.999999999999998224 ) ) ;
#606 = CARTESIAN_POINT ( 'NONE',  ( -3.999999999999997335, -6.000000000000000000, 5.499999999999998224 ) ) ;
#607 = FACE_OUTER_BOUND ( 'NONE', #517, .T. ) ;
#608 = FACE_OUTER_BOUND ( 'NONE', #464, .T. ) ;
#609 = DATE_AND_TIME ( #62, #1084 ) ;
#610 = DIRECTION ( 'NONE',  ( -0.0000000000000000000, 1.000000000000000000, -0.0000000000000000000 ) ) ;
#611 = PLANE ( 'NONE',  #408 ) ;
#612 = FACE_OUTER_BOUND ( 'NONE', #825, .T. ) ;
#613 = EDGE_CURVE ( 'NONE', #1020, #348, #928, .T. ) ;
#614 = ORIENTED_EDGE ( 'NONE', *, *, #1005, .F. ) ;
#615 = VERTEX_POINT ( 'NONE', #555 ) ;
#616 = DIRECTION ( 'NONE',  ( 0.0000000000000000000, 1.445602896647339163E-16, 1.000000000000000000 ) ) ;
#617 = AXIS2_PLACEMENT_3D ( 'NONE', #956, #71, #697 ) ;
#618 = ORIENTED_EDGE ( 'NONE', *, *, #351, .F. ) ;
#619 = EDGE_CURVE ( 'NONE', #81, #1004, #1137, .T. ) ;
#620 = DIRECTION ( 'NONE',  ( -0.0000000000000000000, 1.000000000000000000, -0.0000000000000000000 ) ) ;
#621 = EDGE_CURVE ( 'NONE', #241, #24, #1041, .T. ) ;
#622 = VECTOR ( 'NONE', #632, 1000.000000000000000 ) ;
#623 = VECTOR ( 'NONE', #510, 1000.000000000000000 ) ;
#624 = FACE_OUTER_BOUND ( 'NONE', #520, .T. ) ;
#625 = UNCERTAINTY_MEASURE_WITH_UNIT (LENGTH_MEASURE( 1.000000000000000082E-05 ), #545, 'distance_accuracy_value', 'NONE');
#626 = CARTESIAN_POINT ( 'NONE',  ( -5.500000000000000888, -6.000000000000000000, -3.999999999999997335 ) ) ;
#627 = PRODUCT_DEFINITION ( 'UNKNOWN', '', #111, #1112 ) ;
#628 = ORIENTED_EDGE ( 'NONE', *, *, #161, .T. ) ;
#629 = ORIENTED_EDGE ( 'NONE', *, *, #1076, .T. ) ;
#630 = DIRECTION ( 'NONE',  ( 0.0000000000000000000, 0.0000000000000000000, 1.000000000000000000 ) ) ;
#631 = EDGE_LOOP ( 'NONE', ( #990, #996, #384, #519 ) ) ;
#632 = DIRECTION ( 'NONE',  ( -1.000000000000000000, 0.0000000000000000000, -0.0000000000000000000 ) ) ;
#633 = VECTOR ( 'NONE', #295, 1000.000000000000000 ) ;
#634 = CARTESIAN_POINT ( 'NONE',  ( 4.000000000000000000, -0.2999999999999999334, 3.999999999999998224 ) ) ;
#635 = LINE ( 'NONE', #692, #623 ) ;
#636 = APPROVAL_PERSON_ORGANIZATION ( #985, #47, #456 ) ;
#637 = EDGE_CURVE ( 'NONE', #125, #1073, #236, .T. ) ;
#638 = VECTOR ( 'NONE', #314, 1000.000000000000000 ) ;
#639 = ORIENTED_EDGE ( 'NONE', *, *, #823, .F. ) ;
#640 = VERTEX_POINT ( 'NONE', #649 ) ;
#641 = PLANE ( 'NONE',  #157 ) ;
#642 = ORIENTED_EDGE ( 'NONE', *, *, #995, .T. ) ;
#643 = ORIENTED_EDGE ( 'NONE', *, *, #888, .F. ) ;
#644 = DIRECTION ( 'NONE',  ( 0.0000000000000000000, 1.445602896647339163E-16, -1.000000000000000000 ) ) ;
#645 = ORIENTED_EDGE ( 'NONE', *, *, #658, .F. ) ;
#646 = AXIS2_PLACEMENT_3D ( 'NONE', #873, #786, #518 ) ;
#647 = APPROVAL_ROLE ( '' ) ;
#648 = DIRECTION ( 'NONE',  ( -0.0000000000000000000, 1.000000000000000000, -0.0000000000000000000 ) ) ;
#649 = CARTESIAN_POINT ( 'NONE',  ( -3.999999999999999112, -0.7999999999999998224, -5.200000000000000178 ) ) ;
#650 = ADVANCED_FACE ( 'NONE', ( #120 ), #641, .T. ) ;
#651 = CIRCLE ( 'NONE', #483, 0.4999999999999995559 ) ;
#652 = VECTOR ( 'NONE', #500, 1000.000000000000000 ) ;
#653 = LINE ( 'NONE', #256, #1166 ) ;
#654 = DIRECTION ( 'NONE',  ( -0.0000000000000000000, -0.0000000000000000000, 1.000000000000000000 ) ) ;
#655 = AXIS2_PLACEMENT_3D ( 'NONE', #558, #1031, #23 ) ;
#656 = CARTESIAN_POINT ( 'NONE',  ( -4.000000000000000000, -0.7999999999999999334, 3.999999999999998224 ) ) ;
#657 = VERTEX_POINT ( 'NONE', #1013 ) ;
#658 = EDGE_CURVE ( 'NONE', #110, #125, #1080, .T. ) ;
#659 = CARTESIAN_POINT ( 'NONE',  ( 5.200000000000000178, -6.000000000000000000, -4.000000000000000000 ) ) ;
#660 = ORIENTED_EDGE ( 'NONE', *, *, #658, .T. ) ;
#661 = AXIS2_PLACEMENT_3D ( 'NONE', #669, #599, #757 ) ;
#662 = DIRECTION ( 'NONE',  ( -0.0000000000000000000, 1.000000000000000000, -0.0000000000000000000 ) ) ;
#663 = DIRECTION ( 'NONE',  ( -0.0000000000000000000, -0.0000000000000000000, -1.000000000000000000 ) ) ;
#664 =( GEOMETRIC_REPRESENTATION_CONTEXT ( 3 ) GLOBAL_UNCERTAINTY_ASSIGNED_CONTEXT ( ( #625 ) ) GLOBAL_UNIT_ASSIGNED_CONTEXT ( ( #545, #297, #822 ) ) REPRESENTATION_CONTEXT ( 'NONE', 'WORKASPACE' ) );
#665 = CARTESIAN_POINT ( 'NONE',  ( 3.999999999999999112, 0.0000000000000000000, 4.699999999999999289 ) ) ;
#666 = CIRCLE ( 'NONE', #193, 0.4999999999999995559 ) ;
#667 = FACE_OUTER_BOUND ( 'NONE', #1075, .T. ) ;
#668 = VECTOR ( 'NONE', #527, 1000.000000000000000 ) ;
#669 = CARTESIAN_POINT ( 'NONE',  ( -4.000000000000000000, -0.7999999999999997113, -4.000000000000000000 ) ) ;
#670 = ORIENTED_EDGE ( 'NONE', *, *, #814, .T. ) ;
#671 = CARTESIAN_POINT ( 'NONE',  ( 3.999999999999998224, -0.2999999999999999889, -5.200000000000000178 ) ) ;
#672 = ORIENTED_EDGE ( 'NONE', *, *, #185, .F. ) ;
#673 = DIRECTION ( 'NONE',  ( -0.0000000000000000000, 1.000000000000000000, -0.0000000000000000000 ) ) ;
#674 = DIRECTION ( 'NONE',  ( 1.000000000000000000, 0.0000000000000000000, 2.478176394252584099E-15 ) ) ;
#675 = CARTESIAN_POINT ( 'NONE',  ( -4.000000000000000000, -0.7999999999999997113, 3.999999999999998224 ) ) ;
#676 = AXIS2_PLACEMENT_3D ( 'NONE', #237, #869, #1047 ) ;
#677 = CARTESIAN_POINT ( 'NONE',  ( -4.699999999999999289, -0.7999999999999999334, -3.999999999999997335 ) ) ;
#678 = EDGE_CURVE ( 'NONE', #1020, #615, #651, .T. ) ;
#679 = CYLINDRICAL_SURFACE ( 'NONE', #260, 1.499999999999999556 ) ;
#680 = LINE ( 'NONE', #849, #999 ) ;
#681 = FACE_OUTER_BOUND ( 'NONE', #1130, .T. ) ;
#682 = AXIS2_PLACEMENT_3D ( 'NONE', #298, #648, #1022 ) ;
#683 = ORIENTED_EDGE ( 'NONE', *, *, #486, .T. ) ;
#684 = CARTESIAN_POINT ( 'NONE',  ( 4.699999999999999289, 0.0000000000000000000, 3.999999999999998224 ) ) ;
#685 = CARTESIAN_POINT ( 'NONE',  ( -5.200000000000000178, -0.7999999999999998224, 3.999999999999999112 ) ) ;
#686 = ORIENTED_EDGE ( 'NONE', *, *, #538, .F. ) ;
#687 = APPROVAL ( #197, 'UNSPECIFIED' ) ;
#688 = CARTESIAN_POINT ( 'NONE',  ( -3.999999999999997335, -6.000000000000000000, 5.500000000000000888 ) ) ;
#689 = DIRECTION ( 'NONE',  ( 0.0000000000000000000, 0.0000000000000000000, 1.000000000000000000 ) ) ;
#690 = AXIS2_PLACEMENT_3D ( 'NONE', #1104, #103, #287 ) ;
#691 = VECTOR ( 'NONE', #1175, 1000.000000000000000 ) ;
#692 = CARTESIAN_POINT ( 'NONE',  ( -5.200000000000000178, -4.336808689942017120E-17, 3.999999999999999112 ) ) ;
#693 = EDGE_CURVE ( 'NONE', #170, #321, #579, .T. ) ;
#694 = CYLINDRICAL_SURFACE ( 'NONE', #373, 0.5000000000000004441 ) ;
#695 = VECTOR ( 'NONE', #187, 1000.000000000000000 ) ;
#696 = CARTESIAN_POINT ( 'NONE',  ( 4.000000000000000000, -0.7999999999999997113, -4.000000000000000000 ) ) ;
#697 = DIRECTION ( 'NONE',  ( -1.445602896647339163E-16, -1.000000000000000000, 0.0000000000000000000 ) ) ;
#698 = VERTEX_POINT ( 'NONE', #205 ) ;
#699 = ORIENTED_EDGE ( 'NONE', *, *, #678, .T. ) ;
#700 = EDGE_CURVE ( 'NONE', #333, #170, #380, .T. ) ;
#701 = DIRECTION ( 'NONE',  ( 1.000000000000000000, -0.0000000000000000000, -0.0000000000000000000 ) ) ;
#702 = CARTESIAN_POINT ( 'NONE',  ( -4.000000000000000000, -6.000000000000000000, -4.000000000000000000 ) ) ;
#703 = DIRECTION ( 'NONE',  ( -1.000000000000000000, 0.0000000000000000000, -0.0000000000000000000 ) ) ;
#704 = TOROIDAL_SURFACE ( 'NONE', #92, 0.6999999999999992895, 0.7999999999999999334 ) ;
#705 = DIRECTION ( 'NONE',  ( 1.000000000000000000, -0.0000000000000000000, -1.734723475976808475E-15 ) ) ;
#706 = ORIENTED_EDGE ( 'NONE', *, *, #801, .F. ) ;
#707 = AXIS2_PLACEMENT_3D ( 'NONE', #342, #65, #338 ) ;
#708 = VECTOR ( 'NONE', #714, 1000.000000000000000 ) ;
#709 = ORIENTED_EDGE ( 'NONE', *, *, #760, .T. ) ;
#710 = ORIENTED_EDGE ( 'NONE', *, *, #1123, .T. ) ;
#711 = AXIS2_PLACEMENT_3D ( 'NONE', #1026, #663, #227 ) ;
#712 = ORIENTED_EDGE ( 'NONE', *, *, #970, .T. ) ;
#713 = EDGE_CURVE ( 'NONE', #1019, #924, #316, .T. ) ;
#714 = DIRECTION ( 'NONE',  ( 0.0000000000000000000, -1.000000000000000000, 1.445602896647339163E-16 ) ) ;
#715 = CARTESIAN_POINT ( 'NONE',  ( 5.200000000000000178, -0.2999999999999999889, 3.999999999999998224 ) ) ;
#716 = EDGE_CURVE ( 'NONE', #37, #807, #591, .T. ) ;
#717 = CIRCLE ( 'NONE', #217, 0.5000000000000004441 ) ;
#718 = CIRCLE ( 'NONE', #676, 0.6999999999999984013 ) ;
#719 = LOCAL_TIME ( 10, 8, 34.00000000000000000, #835 ) ;
#720 = FACE_OUTER_BOUND ( 'NONE', #327, .T. ) ;
#721 = CARTESIAN_POINT ( 'NONE',  ( 3.999999999999999112, -0.7999999999999999334, 4.699999999999999289 ) ) ;
#722 = CARTESIAN_POINT ( 'NONE',  ( -4.699999999999999289, 0.0000000000000000000, 3.999999999999999112 ) ) ;
#723 = ORIENTED_EDGE ( 'NONE', *, *, #526, .F. ) ;
#724 = ORIENTED_EDGE ( 'NONE', *, *, #577, .F. ) ;
#725 = VERTEX_POINT ( 'NONE', #743 ) ;
#726 = DIRECTION ( 'NONE',  ( -0.0000000000000000000, 1.000000000000000000, -0.0000000000000000000 ) ) ;
#727 = CARTESIAN_POINT ( 'NONE',  ( -5.500000000000000888, -6.000000000000000000, -3.999999999999997335 ) ) ;
#728 = DIRECTION ( 'NONE',  ( -1.000000000000000000, 1.445602896647339163E-16, 0.0000000000000000000 ) ) ;
#729 = DIRECTION ( 'NONE',  ( 1.734723475976806700E-15, -0.0000000000000000000, 1.000000000000000000 ) ) ;
#730 = CIRCLE ( 'NONE', #117, 0.6999999999999975131 ) ;
#731 = PERSON_AND_ORGANIZATION ( #126, #355 ) ;
#732 = AXIS2_PLACEMENT_3D ( 'NONE', #259, #787, #976 ) ;
#733 = LINE ( 'NONE', #965, #946 ) ;
#734 = EDGE_CURVE ( 'NONE', #427, #477, #1054, .T. ) ;
#735 = DATE_TIME_ROLE ( 'classification_date' ) ;
#736 = DIRECTION ( 'NONE',  ( -0.0000000000000000000, 1.000000000000000000, -0.0000000000000000000 ) ) ;
#737 = ORIENTED_EDGE ( 'NONE', *, *, #619, .F. ) ;
#738 = EDGE_LOOP ( 'NONE', ( #643, #966, #660, #1146 ) ) ;
#739 = EDGE_LOOP ( 'NONE', ( #596, #97, #706, #508 ) ) ;
#740 = APPROVAL_STATUS ( 'not_yet_approved' ) ;
#741 = DIRECTION ( 'NONE',  ( 0.0000000000000000000, 0.0000000000000000000, 1.000000000000000000 ) ) ;
#742 = AXIS2_PLACEMENT_3D ( 'NONE', #727, #926, #654 ) ;
#743 = CARTESIAN_POINT ( 'NONE',  ( -5.499999999999999112, -6.000000000000000000, -3.999999999999997335 ) ) ;
#744 = EDGE_CURVE ( 'NONE', #333, #584, #832, .T. ) ;
#745 = PLANE ( 'NONE',  #512 ) ;
#746 = CARTESIAN_POINT ( 'NONE',  ( 4.000000000000000000, 0.0000000000000000000, -4.000000000000000000 ) ) ;
#747 = CYLINDRICAL_SURFACE ( 'NONE', #590, 0.7999999999999999334 ) ;
#748 = FACE_OUTER_BOUND ( 'NONE', #428, .T. ) ;
#749 = APPROVAL_DATE_TIME ( #317, #687 ) ;
#750 = ADVANCED_FACE ( 'NONE', ( #529 ), #747, .T. ) ;
#751 = CARTESIAN_POINT ( 'NONE',  ( -4.699999999999999289, -0.7999999999999999334, -3.999999999999997335 ) ) ;
#752 = AXIS2_PLACEMENT_3D ( 'NONE', #198, #813, #3 ) ;
#753 = EDGE_LOOP ( 'NONE', ( #933, #345, #149, #770 ) ) ;
#754 = ORIENTED_EDGE ( 'NONE', *, *, #526, .T. ) ;
#755 = ORIENTED_EDGE ( 'NONE', *, *, #995, .F. ) ;
#756 = ADVANCED_FACE ( 'NONE', ( #779 ), #846, .T. ) ;
#757 = DIRECTION ( 'NONE',  ( 0.0000000000000000000, 0.0000000000000000000, 1.000000000000000000 ) ) ;
#758 = EDGE_CURVE ( 'NONE', #159, #125, #303, .T. ) ;
#759 = CARTESIAN_POINT ( 'NONE',  ( 3.999999999999999112, -0.7999999999999998224, 5.200000000000000178 ) ) ;
#760 = EDGE_CURVE ( 'NONE', #795, #158, #501, .T. ) ;
#761 = ADVANCED_FACE ( 'NONE', ( #392 ), #340, .T. ) ;
#762 = DIRECTION ( 'NONE',  ( 0.0000000000000000000, -0.0000000000000000000, -1.000000000000000000 ) ) ;
#763 = DIRECTION ( 'NONE',  ( 1.000000000000000000, 0.0000000000000000000, -0.0000000000000000000 ) ) ;
#764 = FACE_OUTER_BOUND ( 'NONE', #243, .T. ) ;
#765 = DIRECTION ( 'NONE',  ( 0.0000000000000000000, -1.000000000000000000, 0.0000000000000000000 ) ) ;
#766 = COORDINATED_UNIVERSAL_TIME_OFFSET ( 2, 0, .AHEAD. ) ;
#767 = CYLINDRICAL_SURFACE ( 'NONE', #1095, 1.199999999999999734 ) ;
#768 = ORIENTED_EDGE ( 'NONE', *, *, #678, .F. ) ;
#769 = DIRECTION ( 'NONE',  ( 1.445602896647339163E-16, -1.000000000000000000, 1.567325801096383526E-32 ) ) ;
#770 = ORIENTED_EDGE ( 'NONE', *, *, #619, .T. ) ;
#771 = AXIS2_PLACEMENT_3D ( 'NONE', #1133, #769, #235 ) ;
#772 = ORIENTED_EDGE ( 'NONE', *, *, #954, .F. ) ;
#773 = ORIENTED_EDGE ( 'NONE', *, *, #506, .T. ) ;
#774 = DIRECTION ( 'NONE',  ( 0.0000000000000000000, -0.0000000000000000000, -1.000000000000000000 ) ) ;
#775 = AXIS2_PLACEMENT_3D ( 'NONE', #746, #43, #674 ) ;
#776 = CARTESIAN_POINT ( 'NONE',  ( -3.999999999999999112, -6.000000000000000000, -5.500000000000000888 ) ) ;
#777 = EDGE_CURVE ( 'NONE', #810, #228, #666, .T. ) ;
#778 = CARTESIAN_POINT ( 'NONE',  ( -3.999999999999999112, -4.336808689942017120E-17, -5.200000000000000178 ) ) ;
#779 = FACE_OUTER_BOUND ( 'NONE', #268, .T. ) ;
#780 = LINE ( 'NONE', #1138, #870 ) ;
#781 = CARTESIAN_POINT ( 'NONE',  ( 3.999999999999999112, -6.000000000000000000, 5.500000000000000888 ) ) ;
#782 = DIRECTION ( 'NONE',  ( -0.0000000000000000000, -1.000000000000000000, -1.445602896647339163E-16 ) ) ;
#783 = EDGE_CURVE ( 'NONE', #41, #158, #364, .T. ) ;
#784 = ORIENTED_EDGE ( 'NONE', *, *, #148, .T. ) ;
#785 = VERTEX_POINT ( 'NONE', #936 ) ;
#786 = DIRECTION ( 'NONE',  ( 0.0000000000000000000, 1.445602896647339163E-16, 1.000000000000000000 ) ) ;
#787 = DIRECTION ( 'NONE',  ( -1.000000000000000000, -0.0000000000000000000, 1.084202172485504681E-16 ) ) ;
#788 = ORIENTED_EDGE ( 'NONE', *, *, #1069, .T. ) ;
#789 = ORIENTED_EDGE ( 'NONE', *, *, #836, .F. ) ;
#790 = DIRECTION ( 'NONE',  ( 0.0000000000000000000, -1.000000000000000000, 1.445602896647339163E-16 ) ) ;
#791 = DIRECTION ( 'NONE',  ( 0.0000000000000000000, 0.0000000000000000000, 1.000000000000000000 ) ) ;
#792 = CYLINDRICAL_SURFACE ( 'NONE', #1049, 1.499999999999999556 ) ;
#793 = LINE ( 'NONE', #893, #367 ) ;
#794 = DIRECTION ( 'NONE',  ( -1.445602896647339163E-16, 1.000000000000000000, 0.0000000000000000000 ) ) ;
#795 = VERTEX_POINT ( 'NONE', #466 ) ;
#796 = ORIENTED_EDGE ( 'NONE', *, *, #416, .T. ) ;
#797 = EDGE_CURVE ( 'NONE', #860, #600, #222, .T. ) ;
#798 = ORIENTED_EDGE ( 'NONE', *, *, #801, .T. ) ;
#799 = DIRECTION ( 'NONE',  ( -0.0000000000000000000, 1.000000000000000000, -0.0000000000000000000 ) ) ;
#800 = ORIENTED_EDGE ( 'NONE', *, *, #84, .F. ) ;
#801 = EDGE_CURVE ( 'NONE', #41, #698, #1096, .T. ) ;
#802 = VECTOR ( 'NONE', #214, 1000.000000000000000 ) ;
#803 = DIRECTION ( 'NONE',  ( -0.0000000000000000000, 1.000000000000000000, -0.0000000000000000000 ) ) ;
#804 = DIRECTION ( 'NONE',  ( 0.0000000000000000000, -0.0000000000000000000, -1.000000000000000000 ) ) ;
#805 = FACE_OUTER_BOUND ( 'NONE', #587, .T. ) ;
#806 = APPROVAL_DATE_TIME ( #1056, #1140 ) ;
#807 = VERTEX_POINT ( 'NONE', #659 ) ;
#808 = ORIENTED_EDGE ( 'NONE', *, *, #758, .F. ) ;
#809 = AXIS2_PLACEMENT_3D ( 'NONE', #482, #46, #874 ) ;
#810 = VERTEX_POINT ( 'NONE', #38 ) ;
#811 = CARTESIAN_POINT ( 'NONE',  ( -5.499999999999999112, -6.000000000000000000, -3.999999999999997335 ) ) ;
#812 = DIRECTION ( 'NONE',  ( 0.0000000000000000000, -1.000000000000000000, -1.445602896647339163E-16 ) ) ;
#813 = DIRECTION ( 'NONE',  ( -0.0000000000000000000, 1.000000000000000000, -0.0000000000000000000 ) ) ;
#814 = EDGE_CURVE ( 'NONE', #477, #400, #421, .T. ) ;
#815 = CYLINDRICAL_SURFACE ( 'NONE', #989, 0.7999999999999999334 ) ;
#816 = LOCAL_TIME ( 10, 8, 34.00000000000000000, #305 ) ;
#817 = EDGE_CURVE ( 'NONE', #584, #321, #913, .T. ) ;
#818 = CIRCLE ( 'NONE', #1079, 0.8000000000000003775 ) ;
#819 = APPLICATION_PROTOCOL_DEFINITION ( 'international standard', 'config_control_design', 1994, #934 ) ;
#820 = ORIENTED_EDGE ( 'NONE', *, *, #1123, .F. ) ;
#821 = ORIENTED_EDGE ( 'NONE', *, *, #19, .F. ) ;
#822 =( NAMED_UNIT ( * ) SI_UNIT ( $, .STERADIAN. ) SOLID_ANGLE_UNIT ( ) );
#823 = EDGE_CURVE ( 'NONE', #37, #110, #850, .T. ) ;
#824 = DIRECTION ( 'NONE',  ( 1.445602896647339163E-16, -1.000000000000000000, -0.0000000000000000000 ) ) ;
#825 = EDGE_LOOP ( 'NONE', ( #425, #10, #683, #629 ) ) ;
#826 = AXIS2_PLACEMENT_3D ( 'NONE', #696, #246, #879 ) ;
#827 = EDGE_CURVE ( 'NONE', #158, #1019, #1122, .T. ) ;
#828 = CARTESIAN_POINT ( 'NONE',  ( 5.500000000000000000, -0.7999999999999998224, 3.999999999999998224 ) ) ;
#829 = ADVANCED_FACE ( 'NONE', ( #607 ), #399, .F. ) ;
#830 = CARTESIAN_POINT ( 'NONE',  ( -4.000000000000000000, -6.000000000000000000, -4.000000000000000000 ) ) ;
#831 = CARTESIAN_POINT ( 'NONE',  ( -4.699999999999997513, 0.0000000000000000000, -3.999999999999997335 ) ) ;
#832 = CIRCLE ( 'NONE', #178, 1.499999999999998668 ) ;
#833 = AXIS2_PLACEMENT_3D ( 'NONE', #269, #898, #439 ) ;
#834 = VECTOR ( 'NONE', #885, 1000.000000000000000 ) ;
#835 = COORDINATED_UNIVERSAL_TIME_OFFSET ( 2, 0, .AHEAD. ) ;
#836 = EDGE_CURVE ( 'NONE', #584, #226, #444, .T. ) ;
#837 = PRODUCT ( 'MS110-20S', 'MS110-20S', '', ( #285 ) ) ;
#838 = DIRECTION ( 'NONE',  ( 0.0000000000000000000, 0.0000000000000000000, 1.000000000000000000 ) ) ;
#839 = VERTEX_POINT ( 'NONE', #858 ) ;
#840 = DIRECTION ( 'NONE',  ( 0.0000000000000000000, 0.0000000000000000000, 1.000000000000000000 ) ) ;
#841 = ORIENTED_EDGE ( 'NONE', *, *, #1106, .T. ) ;
#842 = ADVANCED_FACE ( 'NONE', ( #137 ), #963, .T. ) ;
#843 = ORIENTED_EDGE ( 'NONE', *, *, #100, .F. ) ;
#844 = CARTESIAN_POINT ( 'NONE',  ( -4.000000000000000000, -6.000000000000000000, 3.999999999999998224 ) ) ;
#845 = AXIS2_PLACEMENT_3D ( 'NONE', #922, #370, #13 ) ;
#846 = PLANE ( 'NONE',  #655 ) ;
#847 = ADVANCED_FACE ( 'NONE', ( #1151 ), #868, .T. ) ;
#848 = DIRECTION ( 'NONE',  ( 0.0000000000000000000, -1.000000000000000000, 0.0000000000000000000 ) ) ;
#849 = CARTESIAN_POINT ( 'NONE',  ( -3.999999999999998224, -0.2999999999999999889, 5.199999999999998401 ) ) ;
#850 = CIRCLE ( 'NONE', #967, 1.500000000000000444 ) ;
#851 = CIRCLE ( 'NONE', #944, 1.499999999999997780 ) ;
#852 = CARTESIAN_POINT ( 'NONE',  ( 4.000000000000000000, -0.2999999999999999334, -4.000000000000000000 ) ) ;
#853 = FACE_OUTER_BOUND ( 'NONE', #1001, .T. ) ;
#854 = DIRECTION ( 'NONE',  ( -0.0000000000000000000, 1.000000000000000000, -0.0000000000000000000 ) ) ;
#855 = EDGE_LOOP ( 'NONE', ( #55, #768, #1088, #322 ) ) ;
#856 = ORIENTED_EDGE ( 'NONE', *, *, #1173, .F. ) ;
#857 = CARTESIAN_POINT ( 'NONE',  ( 3.999999999999997335, -6.000000000000000000, -5.200000000000001066 ) ) ;
#858 = CARTESIAN_POINT ( 'NONE',  ( -5.199999999999998401, -0.7999999999999997113, -3.999999999999998224 ) ) ;
#859 = DIRECTION ( 'NONE',  ( 0.0000000000000000000, 0.0000000000000000000, 1.000000000000000000 ) ) ;
#860 = VERTEX_POINT ( 'NONE', #759 ) ;
#861 = ORIENTED_EDGE ( 'NONE', *, *, #1132, .F. ) ;
#862 = AXIS2_PLACEMENT_3D ( 'NONE', #277, #1082, #442 ) ;
#863 = DIRECTION ( 'NONE',  ( -1.000000000000000000, 0.0000000000000000000, 5.782411586589358625E-16 ) ) ;
#864 = DIRECTION ( 'NONE',  ( 1.000000000000000000, 1.445602896647339163E-16, 1.084202172485504681E-16 ) ) ;
#865 = EDGE_CURVE ( 'NONE', #1004, #477, #377, .T. ) ;
#866 = ORIENTED_EDGE ( 'NONE', *, *, #713, .T. ) ;
#867 = PLANE ( 'NONE',  #646 ) ;
#868 = TOROIDAL_SURFACE ( 'NONE', #1036, 0.6999999999999992895, 0.7999999999999999334 ) ;
#869 = DIRECTION ( 'NONE',  ( -0.0000000000000000000, 1.000000000000000000, -0.0000000000000000000 ) ) ;
#870 = VECTOR ( 'NONE', #959, 1000.000000000000000 ) ;
#871 = TOROIDAL_SURFACE ( 'NONE', #1160, 0.6999999999999992895, 0.5000000000000000000 ) ;
#872 = EDGE_CURVE ( 'NONE', #321, #1004, #253, .T. ) ;
#873 = CARTESIAN_POINT ( 'NONE',  ( -3.999999999999997335, -4.336808689942017120E-17, 5.200000000000000178 ) ) ;
#874 = DIRECTION ( 'NONE',  ( 1.000000000000000000, -9.486769009248159853E-16, 0.0000000000000000000 ) ) ;
#875 = ORIENTED_EDGE ( 'NONE', *, *, #450, .T. ) ;
#876 = AXIS2_PLACEMENT_3D ( 'NONE', #265, #895, #530 ) ;
#877 = ORIENTED_EDGE ( 'NONE', *, *, #1021, .F. ) ;
#878 = ORIENTED_EDGE ( 'NONE', *, *, #325, .F. ) ;
#879 = DIRECTION ( 'NONE',  ( 0.0000000000000000000, 0.0000000000000000000, 1.000000000000000000 ) ) ;
#880 = DIRECTION ( 'NONE',  ( 1.084202172485504681E-16, -0.0000000000000000000, -1.000000000000000000 ) ) ;
#881 = AXIS2_PLACEMENT_3D ( 'NONE', #116, #284, #1102 ) ;
#882 = DIRECTION ( 'NONE',  ( 6.123233995736766036E-17, -0.0000000000000000000, -1.000000000000000000 ) ) ;
#883 = FACE_OUTER_BOUND ( 'NONE', #82, .T. ) ;
#884 = CARTESIAN_POINT ( 'NONE',  ( -3.999999999999997335, -6.000000000000000000, 5.200000000000001066 ) ) ;
#885 = DIRECTION ( 'NONE',  ( 1.000000000000000000, -0.0000000000000000000, -0.0000000000000000000 ) ) ;
#886 = CIRCLE ( 'NONE', #61, 1.500000000000000444 ) ;
#887 = ORIENTED_EDGE ( 'NONE', *, *, #637, .F. ) ;
#888 = EDGE_CURVE ( 'NONE', #461, #1073, #16, .T. ) ;
#889 = ORIENTED_EDGE ( 'NONE', *, *, #207, .T. ) ;
#890 = ORIENTED_EDGE ( 'NONE', *, *, #534, .F. ) ;
#891 = DIRECTION ( 'NONE',  ( 0.0000000000000000000, 0.0000000000000000000, 1.000000000000000000 ) ) ;
#892 = ORIENTED_EDGE ( 'NONE', *, *, #817, .F. ) ;
#893 = CARTESIAN_POINT ( 'NONE',  ( 3.999999999999997335, -0.7999999999999997113, -5.200000000000000178 ) ) ;
#894 = EDGE_CURVE ( 'NONE', #1060, #360, #80, .T. ) ;
#895 = DIRECTION ( 'NONE',  ( -0.0000000000000000000, 1.000000000000000000, -0.0000000000000000000 ) ) ;
#896 = AXIS2_PLACEMENT_3D ( 'NONE', #1153, #1158, #70 ) ;
#897 = FACE_OUTER_BOUND ( 'NONE', #521, .T. ) ;
#898 = DIRECTION ( 'NONE',  ( -1.000000000000000000, -0.0000000000000000000, 1.653892159485515119E-15 ) ) ;
#899 = CIRCLE ( 'NONE', #732, 0.8000000000000003775 ) ;
#900 = LINE ( 'NONE', #907, #668 ) ;
#901 = ADVANCED_FACE ( 'NONE', ( #720 ), #50, .T. ) ;
#902 = DIRECTION ( 'NONE',  ( 0.0000000000000000000, 0.0000000000000000000, 1.000000000000000000 ) ) ;
#903 = CARTESIAN_POINT ( 'NONE',  ( 3.999999999999998224, -6.000000000000000000, 5.199999999999998401 ) ) ;
#904 = ORIENTED_EDGE ( 'NONE', *, *, #358, .F. ) ;
#905 = AXIS2_PLACEMENT_3D ( 'NONE', #35, #1147, #838 ) ;
#906 = EDGE_CURVE ( 'NONE', #556, #400, #1154, .T. ) ;
#907 = CARTESIAN_POINT ( 'NONE',  ( 3.999999999999997335, -6.000000000000000000, -5.500000000000000888 ) ) ;
#908 = DIRECTION ( 'NONE',  ( 0.0000000000000000000, 1.445602896647339163E-16, -1.000000000000000000 ) ) ;
#909 = ORIENTED_EDGE ( 'NONE', *, *, #823, .T. ) ;
#910 = CARTESIAN_POINT ( 'NONE',  ( -4.000000000000000000, -0.7999999999999999334, -4.000000000000000000 ) ) ;
#911 = DIRECTION ( 'NONE',  ( -0.0000000000000000000, 1.000000000000000000, -0.0000000000000000000 ) ) ;
#912 = EDGE_CURVE ( 'NONE', #556, #37, #733, .T. ) ;
#913 = LINE ( 'NONE', #1052, #163 ) ;
#914 = ADVANCED_FACE ( 'NONE', ( #612 ), #867, .F. ) ;
#915 = DIRECTION ( 'NONE',  ( -1.239088197126292050E-15, 0.0000000000000000000, 1.000000000000000000 ) ) ;
#916 = DIRECTION ( 'NONE',  ( 1.084202172485504681E-16, 1.567325801096383526E-32, -1.000000000000000000 ) ) ;
#917 = ORIENTED_EDGE ( 'NONE', *, *, #1167, .F. ) ;
#918 = LINE ( 'NONE', #1162, #410 ) ;
#919 = EDGE_LOOP ( 'NONE', ( #271, #324, #789, #436 ) ) ;
#920 = VERTEX_POINT ( 'NONE', #684 ) ;
#921 = DIRECTION ( 'NONE',  ( 0.0000000000000000000, 0.0000000000000000000, 1.000000000000000000 ) ) ;
#922 = CARTESIAN_POINT ( 'NONE',  ( 4.000000000000000000, -6.000000000000000000, -4.000000000000000000 ) ) ;
#923 = CARTESIAN_POINT ( 'NONE',  ( -4.699999999999999289, -0.7999999999999999334, -3.999999999999997335 ) ) ;
#924 = VERTEX_POINT ( 'NONE', #513 ) ;
#925 = ADVANCED_FACE ( 'NONE', ( #7 ), #930, .T. ) ;
#926 = DIRECTION ( 'NONE',  ( -1.445602896647339163E-16, -1.000000000000000000, -0.0000000000000000000 ) ) ;
#927 = AXIS2_PLACEMENT_3D ( 'NONE', #844, #848, #762 ) ;
#928 = LINE ( 'NONE', #191, #432 ) ;
#929 = FACE_OUTER_BOUND ( 'NONE', #575, .T. ) ;
#930 = TOROIDAL_SURFACE ( 'NONE', #188, 0.6999999999999975131, 0.7999999999999999334 ) ;
#931 = DIRECTION ( 'NONE',  ( 0.0000000000000000000, 0.0000000000000000000, 1.000000000000000000 ) ) ;
#932 = ADVANCED_FACE ( 'NONE', ( #183 ), #871, .F. ) ;
#933 = ORIENTED_EDGE ( 'NONE', *, *, #872, .F. ) ;
#934 = APPLICATION_CONTEXT ( 'configuration controlled 3d designs of mechanical parts and assemblies' ) ;
#935 = AXIS2_PLACEMENT_3D ( 'NONE', #852, #673, #135 ) ;
#936 = CARTESIAN_POINT ( 'NONE',  ( -3.999999999999997335, 0.0000000000000000000, 4.699999999999996625 ) ) ;
#937 = ORIENTED_EDGE ( 'NONE', *, *, #100, .T. ) ;
#938 = AXIS2_PLACEMENT_3D ( 'NONE', #688, #323, #150 ) ;
#939 = ADVANCED_FACE ( 'NONE', ( #424 ), #251, .T. ) ;
#940 = DIRECTION ( 'NONE',  ( -0.0000000000000000000, 1.000000000000000000, -0.0000000000000000000 ) ) ;
#941 = CARTESIAN_POINT ( 'NONE',  ( 4.000000000000000000, -0.7999999999999997113, 3.999999999999998224 ) ) ;
#942 = DIRECTION ( 'NONE',  ( 0.0000000000000000000, 0.0000000000000000000, 1.000000000000000000 ) ) ;
#943 = FACE_OUTER_BOUND ( 'NONE', #739, .T. ) ;
#944 = AXIS2_PLACEMENT_3D ( 'NONE', #950, #854, #583 ) ;
#945 = CIRCLE ( 'NONE', #1164, 1.199999999999999734 ) ;
#946 = VECTOR ( 'NONE', #1142, 1000.000000000000000 ) ;
#947 = DIRECTION ( 'NONE',  ( -0.0000000000000000000, 1.000000000000000000, -0.0000000000000000000 ) ) ;
#948 = ORIENTED_EDGE ( 'NONE', *, *, #1173, .T. ) ;
#949 = CARTESIAN_POINT ( 'NONE',  ( 3.999999999999999112, -6.000000000000000000, 5.500000000000000888 ) ) ;
#950 = CARTESIAN_POINT ( 'NONE',  ( -4.000000000000000000, -0.7999999999999997113, -4.000000000000000000 ) ) ;
#951 = ORIENTED_EDGE ( 'NONE', *, *, #777, .F. ) ;
#952 = ADVANCED_FACE ( 'NONE', ( #988 ), #487, .F. ) ;
#953 = DIRECTION ( 'NONE',  ( 1.084202172485504681E-16, -0.0000000000000000000, 1.000000000000000000 ) ) ;
#954 = EDGE_CURVE ( 'NONE', #924, #461, #653, .T. ) ;
#955 = DIRECTION ( 'NONE',  ( 0.0000000000000000000, 0.0000000000000000000, 1.000000000000000000 ) ) ;
#956 = CARTESIAN_POINT ( 'NONE',  ( -5.200000000000000178, -4.336808689942017120E-17, -3.999999999999997335 ) ) ;
#957 = CARTESIAN_POINT ( 'NONE',  ( 5.500000000000000888, -0.7999999999999998224, -4.000000000000000000 ) ) ;
#958 = CARTESIAN_POINT ( 'NONE',  ( 3.999999999999997335, -0.2999999999999999334, -4.699999999999999289 ) ) ;
#959 = DIRECTION ( 'NONE',  ( 1.084202172485504681E-16, -0.0000000000000000000, -1.000000000000000000 ) ) ;
#960 = EDGE_CURVE ( 'NONE', #170, #81, #918, .T. ) ;
#961 = CYLINDRICAL_SURFACE ( 'NONE', #68, 0.7999999999999999334 ) ;
#962 = LINE ( 'NONE', #1093, #708 ) ;
#963 = PLANE ( 'NONE',  #938 ) ;
#964 = ORIENTED_EDGE ( 'NONE', *, *, #56, .T. ) ;
#965 = CARTESIAN_POINT ( 'NONE',  ( 5.500000000000000888, -6.000000000000000000, 3.999999999999998224 ) ) ;
#966 = ORIENTED_EDGE ( 'NONE', *, *, #1065, .F. ) ;
#967 = AXIS2_PLACEMENT_3D ( 'NONE', #968, #145, #1046 ) ;
#968 = CARTESIAN_POINT ( 'NONE',  ( 4.000000000000000000, -6.000000000000000000, -4.000000000000000000 ) ) ;
#969 = DIRECTION ( 'NONE',  ( -1.000000000000000000, -1.761828530288943916E-15, 0.0000000000000000000 ) ) ;
#970 = EDGE_CURVE ( 'NONE', #228, #159, #1111, .T. ) ;
#971 = CARTESIAN_POINT ( 'NONE',  ( 3.999999999999997335, -0.7999999999999997113, -5.500000000000000000 ) ) ;
#972 = VECTOR ( 'NONE', #791, 1000.000000000000000 ) ;
#973 = FACE_OUTER_BOUND ( 'NONE', #524, .T. ) ;
#974 = AXIS2_PLACEMENT_3D ( 'NONE', #751, #953, #129 ) ;
#975 = CIRCLE ( 'NONE', #127, 0.5000000000000004441 ) ;
#976 = DIRECTION ( 'NONE',  ( 0.0000000000000000000, -1.761828530288943916E-15, -1.000000000000000000 ) ) ;
#977 = ORIENTED_EDGE ( 'NONE', *, *, #744, .F. ) ;
#978 = EDGE_LOOP ( 'NONE', ( #498, #174, #889, #699 ) ) ;
#979 = ORIENTED_EDGE ( 'NONE', *, *, #242, .F. ) ;
#980 = DIRECTION ( 'NONE',  ( 0.0000000000000000000, -1.000000000000000000, 0.0000000000000000000 ) ) ;
#981 = DIRECTION ( 'NONE',  ( -1.567325801096383526E-32, -1.000000000000000000, -1.445602896647339163E-16 ) ) ;
#982 = PLANE ( 'NONE',  #386 ) ;
#983 = ORIENTED_EDGE ( 'NONE', *, *, #1114, .T. ) ;
#984 = VECTOR ( 'NONE', #531, 1000.000000000000000 ) ;
#985 = PERSON_AND_ORGANIZATION ( #126, #355 ) ;
#986 = CARTESIAN_POINT ( 'NONE',  ( 4.699999999999999289, -0.2999999999999999334, 3.999999999999998224 ) ) ;
#987 = CARTESIAN_POINT ( 'NONE',  ( -3.999999999999997335, -0.7999999999999997113, 5.200000000000000178 ) ) ;
#988 = FACE_OUTER_BOUND ( 'NONE', #855, .T. ) ;
#989 = AXIS2_PLACEMENT_3D ( 'NONE', #528, #75, #172 ) ;
#990 = ORIENTED_EDGE ( 'NONE', *, *, #105, .F. ) ;
#991 = DIRECTION ( 'NONE',  ( -1.000000000000000000, -0.0000000000000000000, 1.084202172485504681E-16 ) ) ;
#992 = ORIENTED_EDGE ( 'NONE', *, *, #760, .F. ) ;
#993 = DIRECTION ( 'NONE',  ( 0.0000000000000000000, 0.0000000000000000000, 1.000000000000000000 ) ) ;
#994 = CARTESIAN_POINT ( 'NONE',  ( 3.999999999999997335, -4.336808689942017120E-17, -5.200000000000000178 ) ) ;
#995 = EDGE_CURVE ( 'NONE', #785, #131, #1128, .T. ) ;
#996 = ORIENTED_EDGE ( 'NONE', *, *, #416, .F. ) ;
#997 = CARTESIAN_POINT ( 'NONE',  ( -4.699999999999999289, 0.0000000000000000000, -3.999999999999997335 ) ) ;
#998 = CIRCLE ( 'NONE', #1003, 1.499999999999998668 ) ;
#999 = VECTOR ( 'NONE', #405, 1000.000000000000000 ) ;
#1000 = LOCAL_TIME ( 10, 8, 34.00000000000000000, #77 ) ;
#1001 = EDGE_LOOP ( 'NONE', ( #1063, #334, #755, #754 ) ) ;
#1002 = ORIENTED_EDGE ( 'NONE', *, *, #912, .T. ) ;
#1003 = AXIS2_PLACEMENT_3D ( 'NONE', #261, #911, #1078 ) ;
#1004 = VERTEX_POINT ( 'NONE', #884 ) ;
#1005 = EDGE_CURVE ( 'NONE', #427, #556, #886, .T. ) ;
#1006 = DIRECTION ( 'NONE',  ( 0.0000000000000000000, 1.000000000000000000, 1.445602896647339163E-16 ) ) ;
#1007 = ORIENTED_EDGE ( 'NONE', *, *, #888, .T. ) ;
#1008 = EDGE_LOOP ( 'NONE', ( #642, #1156, #96, #798, #291, #478, #335, #196 ) ) ;
#1009 = PERSON_AND_ORGANIZATION_ROLE ( 'creator' ) ;
#1010 = EDGE_CURVE ( 'NONE', #159, #640, #793, .T. ) ;
#1011 = APPROVAL_STATUS ( 'not_yet_approved' ) ;
#1012 = DIRECTION ( 'NONE',  ( -5.782411586589358625E-16, -7.228014483236698281E-17, 1.000000000000000000 ) ) ;
#1013 = CARTESIAN_POINT ( 'NONE',  ( -5.499999999999998224, -0.7999999999999997113, -3.999999999999997335 ) ) ;
#1014 = CIRCLE ( 'NONE', #862, 0.8000000000000003775 ) ;
#1015 = FACE_OUTER_BOUND ( 'NONE', #51, .T. ) ;
#1016 = ORIENTED_EDGE ( 'NONE', *, *, #1136, .F. ) ;
#1017 = ORIENTED_EDGE ( 'NONE', *, *, #693, .T. ) ;
#1018 = AXIS2_PLACEMENT_3D ( 'NONE', #286, #736, #1012 ) ;
#1019 = VERTEX_POINT ( 'NONE', #971 ) ;
#1020 = VERTEX_POINT ( 'NONE', #1148 ) ;
#1021 = EDGE_CURVE ( 'NONE', #452, #839, #225, .T. ) ;
#1022 = DIRECTION ( 'NONE',  ( 0.0000000000000000000, 0.0000000000000000000, 1.000000000000000000 ) ) ;
#1023 = CARTESIAN_POINT ( 'NONE',  ( -4.000000000000000000, -6.000000000000000000, 3.999999999999998224 ) ) ;
#1024 = CARTESIAN_POINT ( 'NONE',  ( 0.0000000000000000000, 0.0000000000000000000, 0.0000000000000000000 ) ) ;
#1025 = AXIS2_PLACEMENT_3D ( 'NONE', #656, #29, #931 ) ;
#1026 = CARTESIAN_POINT ( 'NONE',  ( 4.700000000000000178, -0.7999999999999999334, -4.000000000000000000 ) ) ;
#1027 = ADVANCED_FACE ( 'NONE', ( #681 ), #382, .F. ) ;
#1028 = VECTOR ( 'NONE', #357, 1000.000000000000000 ) ;
#1029 = VECTOR ( 'NONE', #389, 1000.000000000000000 ) ;
#1030 = CARTESIAN_POINT ( 'NONE',  ( -5.499999999999998224, 0.0000000000000000000, 3.999999999999999112 ) ) ;
#1031 = DIRECTION ( 'NONE',  ( 0.0000000000000000000, -1.000000000000000000, 0.0000000000000000000 ) ) ;
#1032 = ORIENTED_EDGE ( 'NONE', *, *, #552, .F. ) ;
#1033 = ORIENTED_EDGE ( 'NONE', *, *, #450, .F. ) ;
#1034 = EDGE_CURVE ( 'NONE', #226, #427, #167, .T. ) ;
#1035 = EDGE_LOOP ( 'NONE', ( #535, #979, #540, #412 ) ) ;
#1036 = AXIS2_PLACEMENT_3D ( 'NONE', #326, #586, #45 ) ;
#1037 = CARTESIAN_POINT ( 'NONE',  ( 5.500000000000000000, 0.0000000000000000000, 3.999999999999998224 ) ) ;
#1038 = CARTESIAN_POINT ( 'NONE',  ( -3.999999999999999112, 0.0000000000000000000, -4.699999999999999289 ) ) ;
#1039 = CARTESIAN_POINT ( 'NONE',  ( 5.200000000000000178, -0.7999999999999998224, 3.999999999999998224 ) ) ;
#1040 = DIRECTION ( 'NONE',  ( -0.0000000000000000000, -1.445602896647339163E-16, 1.000000000000000000 ) ) ;
#1041 = CIRCLE ( 'NONE', #881, 0.6999999999999975131 ) ;
#1042 = DIRECTION ( 'NONE',  ( -0.0000000000000000000, 1.000000000000000000, -0.0000000000000000000 ) ) ;
#1043 = LINE ( 'NONE', #2, #544 ) ;
#1044 = ADVANCED_FACE ( 'NONE', ( #853 ), #264, .T. ) ;
#1045 = ORIENTED_EDGE ( 'NONE', *, *, #180, .F. ) ;
#1046 = DIRECTION ( 'NONE',  ( 1.000000000000000000, 0.0000000000000000000, 1.156482317317871133E-15 ) ) ;
#1047 = DIRECTION ( 'NONE',  ( 0.0000000000000000000, 0.0000000000000000000, 1.000000000000000000 ) ) ;
#1048 = EDGE_LOOP ( 'NONE', ( #1115, #1072, #890, #937 ) ) ;
#1049 = AXIS2_PLACEMENT_3D ( 'NONE', #54, #252, #689 ) ;
#1050 = ORIENTED_EDGE ( 'NONE', *, *, #970, .F. ) ;
#1051 = DIRECTION ( 'NONE',  ( 1.000000000000000000, -7.228014483236698281E-17, 1.156482317317871725E-15 ) ) ;
#1052 = CARTESIAN_POINT ( 'NONE',  ( -3.999999999999997335, 0.0000000000000000000, 5.500000000000000000 ) ) ;
#1053 = EDGE_CURVE ( 'NONE', #549, #810, #343, .T. ) ;
#1054 = LINE ( 'NONE', #949, #802 ) ;
#1055 = VECTOR ( 'NONE', #44, 1000.000000000000000 ) ;
#1056 = DATE_AND_TIME ( #263, #5 ) ;
#1057 = DIRECTION ( 'NONE',  ( -0.0000000000000000000, 1.000000000000000000, -0.0000000000000000000 ) ) ;
#1058 = CARTESIAN_POINT ( 'NONE',  ( -5.500000000000000000, -0.7999999999999998224, -3.999999999999997335 ) ) ;
#1059 = AXIS2_PLACEMENT_3D ( 'NONE', #346, #701, #258 ) ;
#1060 = VERTEX_POINT ( 'NONE', #95 ) ;
#1061 = EDGE_LOOP ( 'NONE', ( #861, #1085, #313, #1101 ) ) ;
#1062 = CARTESIAN_POINT ( 'NONE',  ( 5.200000000000001066, -6.000000000000000000, 3.999999999999998224 ) ) ;
#1063 = ORIENTED_EDGE ( 'NONE', *, *, #836, .T. ) ;
#1064 = CARTESIAN_POINT ( 'NONE',  ( 4.000000000000000000, -0.2999999999999999889, 3.999999999999998224 ) ) ;
#1065 = EDGE_CURVE ( 'NONE', #110, #461, #900, .T. ) ;
#1066 = DIRECTION ( 'NONE',  ( -0.0000000000000000000, 1.000000000000000000, -0.0000000000000000000 ) ) ;
#1067 = DIRECTION ( 'NONE',  ( -0.0000000000000000000, 1.000000000000000000, -0.0000000000000000000 ) ) ;
#1068 = ORIENTED_EDGE ( 'NONE', *, *, #1069, .F. ) ;
#1069 = EDGE_CURVE ( 'NONE', #657, #725, #581, .T. ) ;
#1070 = VECTOR ( 'NONE', #78, 1000.000000000000000 ) ;
#1071 = DIRECTION ( 'NONE',  ( 0.0000000000000000000, -0.0000000000000000000, -1.000000000000000000 ) ) ;
#1072 = ORIENTED_EDGE ( 'NONE', *, *, #337, .F. ) ;
#1073 = VERTEX_POINT ( 'NONE', #1086 ) ;
#1074 = DIRECTION ( 'NONE',  ( 1.000000000000000000, 0.0000000000000000000, -0.0000000000000000000 ) ) ;
#1075 = EDGE_LOOP ( 'NONE', ( #709, #493, #171, #306 ) ) ;
#1076 = EDGE_CURVE ( 'NONE', #860, #477, #962, .T. ) ;
#1077 = DIRECTION ( 'NONE',  ( 0.0000000000000000000, -1.000000000000000000, 0.0000000000000000000 ) ) ;
#1078 = DIRECTION ( 'NONE',  ( 5.782411586589362569E-16, 0.0000000000000000000, -1.000000000000000000 ) ) ;
#1079 = AXIS2_PLACEMENT_3D ( 'NONE', #9, #276, #356 ) ;
#1080 = LINE ( 'NONE', #1091, #407 ) ;
#1081 = DIRECTION ( 'NONE',  ( 0.0000000000000000000, -0.0000000000000000000, -1.000000000000000000 ) ) ;
#1082 = DIRECTION ( 'NONE',  ( 1.000000000000000000, -0.0000000000000000000, -1.084202172485504681E-16 ) ) ;
#1083 = CYLINDRICAL_SURFACE ( 'NONE', #301, 0.5000000000000004441 ) ;
#1084 = LOCAL_TIME ( 10, 8, 34.00000000000000000, #565 ) ;
#1085 = ORIENTED_EDGE ( 'NONE', *, *, #1092, .T. ) ;
#1086 = CARTESIAN_POINT ( 'NONE',  ( -3.999999999999999112, -6.000000000000000000, -5.199999999999998401 ) ) ;
#1087 = ORIENTED_EDGE ( 'NONE', *, *, #468, .T. ) ;
#1088 = ORIENTED_EDGE ( 'NONE', *, *, #613, .T. ) ;
#1089 = ADVANCED_FACE ( 'NONE', ( #1015 ), #437, .T. ) ;
#1090 = CARTESIAN_POINT ( 'NONE',  ( 3.999999999999997335, 0.0000000000000000000, -5.500000000000000000 ) ) ;
#1091 = CARTESIAN_POINT ( 'NONE',  ( 3.999999999999997335, -6.000000000000000000, -5.500000000000000888 ) ) ;
#1092 = EDGE_CURVE ( 'NONE', #131, #226, #818, .T. ) ;
#1093 = CARTESIAN_POINT ( 'NONE',  ( 3.999999999999999112, -4.336808689942017120E-17, 5.200000000000000178 ) ) ;
#1094 = CARTESIAN_POINT ( 'NONE',  ( 5.500000000000000888, -6.000000000000000000, 3.999999999999998224 ) ) ;
#1095 = AXIS2_PLACEMENT_3D ( 'NONE', #190, #799, #902 ) ;
#1096 = CIRCLE ( 'NONE', #775, 0.6999999999999992895 ) ;
#1097 = VECTOR ( 'NONE', #980, 1000.000000000000000 ) ;
#1098 = PERSON_AND_ORGANIZATION ( #126, #355 ) ;
#1099 = VECTOR ( 'NONE', #168, 1000.000000000000000 ) ;
#1100 = ORIENTED_EDGE ( 'NONE', *, *, #207, .F. ) ;
#1101 = ORIENTED_EDGE ( 'NONE', *, *, #267, .F. ) ;
#1102 = DIRECTION ( 'NONE',  ( 1.239088197126295205E-15, 0.0000000000000000000, -1.000000000000000000 ) ) ;
#1103 = ORIENTED_EDGE ( 'NONE', *, *, #435, .T. ) ;
#1104 = CARTESIAN_POINT ( 'NONE',  ( 4.000000000000000000, -0.7999999999999999334, -4.000000000000000000 ) ) ;
#1105 = AXIS2_PLACEMENT_3D ( 'NONE', #1023, #11, #293 ) ;
#1106 = EDGE_CURVE ( 'NONE', #452, #186, #1043, .T. ) ;
#1107 = APPROVAL_ROLE ( '' ) ;
#1108 = DIRECTION ( 'NONE',  ( -1.000000000000000000, -0.0000000000000000000, -0.0000000000000000000 ) ) ;
#1109 = FACE_OUTER_BOUND ( 'NONE', #184, .T. ) ;
#1110 = VECTOR ( 'NONE', #473, 1000.000000000000000 ) ;
#1111 = CIRCLE ( 'NONE', #826, 1.200000000000000178 ) ;
#1112 = DESIGN_CONTEXT ( 'detailed design', #18, 'design' ) ;
#1113 = ORIENTED_EDGE ( 'NONE', *, *, #894, .F. ) ;
#1114 = EDGE_CURVE ( 'NONE', #698, #1019, #109, .T. ) ;
#1115 = ORIENTED_EDGE ( 'NONE', *, *, #378, .T. ) ;
#1116 = EDGE_LOOP ( 'NONE', ( #112, #723, #724, #8 ) ) ;
#1117 = AXIS2_PLACEMENT_3D ( 'NONE', #634, #441, #630 ) ;
#1118 = ADVANCED_FACE ( 'NONE', ( #624 ), #767, .F. ) ;
#1119 = PLANE ( 'NONE',  #927 ) ;
#1120 = EDGE_LOOP ( 'NONE', ( #85, #796, #53, #388 ) ) ;
#1121 = AXIS2_PLACEMENT_3D ( 'NONE', #994, #908, #90 ) ;
#1122 = CIRCLE ( 'NONE', #143, 1.499999999999999556 ) ;
#1123 = EDGE_CURVE ( 'NONE', #725, #1129, #319, .T. ) ;
#1124 = CARTESIAN_POINT ( 'NONE',  ( -5.500000000000000888, -6.000000000000000000, 3.999999999999999112 ) ) ;
#1125 = LINE ( 'NONE', #778, #470 ) ;
#1126 = SHAPE_DEFINITION_REPRESENTATION ( #593, #455 ) ;
#1127 = ADVANCED_FACE ( 'NONE', ( #49 ), #460, .F. ) ;
#1128 = LINE ( 'NONE', #160, #1070 ) ;
#1129 = VERTEX_POINT ( 'NONE', #89 ) ;
#1130 = EDGE_LOOP ( 'NONE', ( #156, #362, #712, #359 ) ) ;
#1131 = ORIENTED_EDGE ( 'NONE', *, *, #19, .T. ) ;
#1132 = EDGE_CURVE ( 'NONE', #131, #920, #142, .T. ) ;
#1133 = CARTESIAN_POINT ( 'NONE',  ( 5.500000000000000888, -6.000000000000000000, 3.999999999999998224 ) ) ;
#1134 = ADVANCED_FACE ( 'NONE', ( #34 ), #289, .F. ) ;
#1135 = ORIENTED_EDGE ( 'NONE', *, *, #378, .F. ) ;
#1136 = EDGE_CURVE ( 'NONE', #348, #549, #154, .T. ) ;
#1137 = CIRCLE ( 'NONE', #1105, 1.199999999999999734 ) ;
#1138 = CARTESIAN_POINT ( 'NONE',  ( 4.699999999999999289, 0.0000000000000000000, 3.999999999999998224 ) ) ;
#1139 = CIRCLE ( 'NONE', #548, 0.5000000000000004441 ) ;
#1140 = APPROVAL ( #740, 'UNSPECIFIED' ) ;
#1141 = LINE ( 'NONE', #1090, #395 ) ;
#1142 = DIRECTION ( 'NONE',  ( 1.084202172485504681E-16, -0.0000000000000000000, -1.000000000000000000 ) ) ;
#1143 = CARTESIAN_POINT ( 'NONE',  ( -5.500000000000000000, -0.7999999999999998224, 3.999999999999999112 ) ) ;
#1144 = ORIENTED_EDGE ( 'NONE', *, *, #814, .F. ) ;
#1145 = AXIS2_PLACEMENT_3D ( 'NONE', #595, #864, #413 ) ;
#1146 = ORIENTED_EDGE ( 'NONE', *, *, #637, .T. ) ;
#1147 = DIRECTION ( 'NONE',  ( -0.0000000000000000000, 1.000000000000000000, -0.0000000000000000000 ) ) ;
#1148 = CARTESIAN_POINT ( 'NONE',  ( -3.999999999999997335, -0.2999999999999999334, 4.699999999999996625 ) ) ;
#1149 = DIRECTION ( 'NONE',  ( 1.000000000000000000, -8.673617379884027583E-16, 0.0000000000000000000 ) ) ;
#1150 = EDGE_CURVE ( 'NONE', #348, #860, #975, .T. ) ;
#1151 = FACE_OUTER_BOUND ( 'NONE', #1061, .T. ) ;
#1152 = VECTOR ( 'NONE', #230, 1000.000000000000000 ) ;
#1153 = CARTESIAN_POINT ( 'NONE',  ( -4.699999999999997513, -0.7999999999999999334, -3.999999999999999112 ) ) ;
#1154 = LINE ( 'NONE', #589, #239 ) ;
#1155 = CC_DESIGN_PERSON_AND_ORGANIZATION_ASSIGNMENT ( #94, #369, ( #837 ) ) ;
#1156 = ORIENTED_EDGE ( 'NONE', *, *, #1132, .T. ) ;
#1157 = ORIENTED_EDGE ( 'NONE', *, *, #734, .F. ) ;
#1158 = DIRECTION ( 'NONE',  ( 1.592659819528147545E-15, 0.0000000000000000000, 1.000000000000000000 ) ) ;
#1159 = CARTESIAN_POINT ( 'NONE',  ( -4.699999999999999289, -0.7999999999999999334, 3.999999999999999112 ) ) ;
#1160 = AXIS2_PLACEMENT_3D ( 'NONE', #605, #620, #891 ) ;
#1161 = EDGE_LOOP ( 'NONE', ( #773, #64, #1135, #788 ) ) ;
#1162 = CARTESIAN_POINT ( 'NONE',  ( -5.500000000000000888, -6.000000000000000000, 3.999999999999999112 ) ) ;
#1163 = LINE ( 'NONE', #715, #48 ) ;
#1164 = AXIS2_PLACEMENT_3D ( 'NONE', #675, #1042, #859 ) ;
#1165 = LINE ( 'NONE', #1058, #652 ) ;
#1166 = VECTOR ( 'NONE', #981, 1000.000000000000000 ) ;
#1167 = EDGE_CURVE ( 'NONE', #1019, #110, #1141, .T. ) ;
#1168 = DIRECTION ( 'NONE',  ( 0.0000000000000000000, -9.486769009248159853E-16, -1.000000000000000000 ) ) ;
#1169 = PLANE ( 'NONE',  #6 ) ;
#1170 = ORIENTED_EDGE ( 'NONE', *, *, #1076, .F. ) ;
#1171 = DIRECTION ( 'NONE',  ( -0.0000000000000000000, -0.0000000000000000000, 1.000000000000000000 ) ) ;
#1172 = ORIENTED_EDGE ( 'NONE', *, *, #63, .T. ) ;
#1173 = EDGE_CURVE ( 'NONE', #1073, #1129, #341, .T. ) ;
#1174 = CARTESIAN_POINT ( 'NONE',  ( -5.500000000000000000, 0.0000000000000000000, -3.999999999999997335 ) ) ;
#1175 = DIRECTION ( 'NONE',  ( -1.445602896647339163E-16, -1.000000000000000000, 1.567325801096383526E-32 ) ) ;
#1176 = CARTESIAN_POINT ( 'NONE',  ( -4.000000000000000000, -0.2999999999999999334, -4.000000000000000000 ) ) ;
#1177 = AXIS2_PLACEMENT_3D ( 'NONE', #86, #991, #1168 ) ;
ENDSEC;
END-ISO-10303-21;
